<svg width="1204" height="480" viewBox="0 0 1204 480" fill="none" xmlns="http://www.w3.org/2000/svg">
<g clip-path="url(#clip0_427_8729)">
<rect width="1204" height="480" fill="#6099F7"/>
<path d="M-308.328 -314.312H-195.973V-477H-193.973V-314.312H-81.6172V-477H-79.6172V-314.312H32.7373V-477H34.7373V-314.312H145.361V-477H147.361V-314.312H259.716V-477H261.716V-314.312H374.071V-477H376.071V-314.312H488.427V-477H490.427V-314.312H601.05V-477H603.05V-314.312H715.405V-477H717.405V-314.312H829.761V-477H831.761V-314.312H942.383V-477H944.383V-314.312H1056.74V-477H1058.74V-314.312H1171.09V-477H1173.09V-314.312H1285.45V-477H1287.45V-314.312H1398.07V-477H1400.07V-314.312H1512.43V-477H1514.43V-314.312H1671.83V-312.312H1514.43V-199.49H1671.83V-197.49H1514.43V-84.6709H1671.83V-82.6709H1514.43V30.1494H1671.83V32.1494H1514.43V144.97H1671.83V146.97H1514.43V259.79H1671.83V261.79H1514.43V374.61H1671.83V376.61H1514.43V489.431H1671.83V491.431H1514.43V668.287H1512.43V491.431H1400.07V668.287H1398.07V491.431H1287.45V668.287H1285.45V491.431H1173.09V668.287H1171.09V491.431H1058.74V668.287H1056.74V491.431H944.383V668.287H942.383V491.431H831.761V668.287H829.761V491.431H717.405V668.287H715.405V491.431H603.05V668.287H601.05V491.431H490.427V668.287H488.427V491.431H376.071V668.287H374.071V491.431H261.716V668.287H259.716V491.431H147.361V668.287H145.361V491.431H34.7373V668.287H32.7373V491.431H-79.6172V668.287H-81.6172V491.431H-193.973V668.287H-195.973V491.431H-308.328V668.287H-310.328V491.431H-468V489.431H-310.328V376.61H-468V374.61H-310.328V261.79H-468V259.79H-310.328V146.97H-468V144.97H-310.328V32.1494H-468V30.1494H-310.328V-82.6709L-468 -82.6699V-84.6699L-310.328 -84.6709V-197.49H-468V-199.49H-310.328V-312.312H-468V-314.312H-310.328V-477H-308.328V-314.312ZM1400.07 376.61V489.431H1512.43V376.61H1400.07ZM-308.328 489.431H-195.973V376.61H-308.328V489.431ZM-193.973 489.431H-81.6172V376.61H-193.973V489.431ZM-79.6172 489.431H32.7373V376.61H-79.6172V489.431ZM34.7373 489.431H145.361V376.61H34.7373V489.431ZM147.361 489.431H259.716V376.61H147.361V489.431ZM261.716 489.431H374.071V376.61H261.716V489.431ZM376.071 489.431H488.427V376.61H376.071V489.431ZM490.427 489.431H601.05V376.61H490.427V489.431ZM603.05 489.431H715.405V376.61H603.05V489.431ZM717.405 489.431H829.761V376.61H717.405V489.431ZM831.761 489.431H942.383V376.61H831.761V489.431ZM944.383 489.431H1056.74V376.61H944.383V489.431ZM1058.74 489.431H1171.09V376.61H1058.74V489.431ZM1173.09 489.431H1285.45V376.61H1173.09V489.431ZM1287.45 489.431H1398.07V376.61H1287.45V489.431ZM1400.07 261.79V374.61H1512.43V261.79H1400.07ZM-308.328 374.61H-195.973V261.79H-308.328V374.61ZM-193.973 374.61H-81.6172V261.79H-193.973V374.61ZM-79.6172 374.61H32.7373V261.79H-79.6172V374.61ZM34.7373 374.61H145.361V261.79H34.7373V374.61ZM147.361 374.61H259.716V261.79H147.361V374.61ZM261.716 374.61H374.071V261.79H261.716V374.61ZM376.071 374.61H488.427V261.79H376.071V374.61ZM490.427 374.61H601.05V261.79H490.427V374.61ZM603.05 374.61H715.405V261.79H603.05V374.61ZM717.405 374.61H829.761V261.79H717.405V374.61ZM831.761 374.61H942.383V261.79H831.761V374.61ZM944.383 374.61H1056.74V261.79H944.383V374.61ZM1058.74 374.61H1171.09V261.79H1058.74V374.61ZM1173.09 374.61H1285.45V261.79H1173.09V374.61ZM1287.45 374.61H1398.07V261.79H1287.45V374.61ZM1400.07 146.97V259.79H1512.43V146.97H1400.07ZM-308.328 259.79H-195.973V146.97H-308.328V259.79ZM-193.973 259.79H-81.6172V146.97H-193.973V259.79ZM-79.6172 259.79H32.7373V146.97H-79.6172V259.79ZM34.7373 259.79H145.361V146.97H34.7373V259.79ZM147.361 259.79H259.716V146.97H147.361V259.79ZM261.716 259.79H374.071V146.97H261.716V259.79ZM376.071 259.79H488.427V146.97H376.071V259.79ZM490.427 259.79H601.05V146.97H490.427V259.79ZM603.05 259.79H715.405V146.97H603.05V259.79ZM717.405 259.79H829.761V146.97H717.405V259.79ZM831.761 259.79H942.383V146.97H831.761V259.79ZM944.383 259.79H1056.74V146.97H944.383V259.79ZM1058.74 259.79H1171.09V146.97H1058.74V259.79ZM1173.09 259.79H1285.45V146.97H1173.09V259.79ZM1287.45 259.79H1398.07V146.97H1287.45V259.79ZM1400.07 32.1494V144.97H1512.43V32.1494H1400.07ZM-308.328 144.97H-195.973V32.1494H-308.328V144.97ZM-193.973 144.97H-81.6172V32.1494H-193.973V144.97ZM-79.6172 144.97H32.7373V32.1494H-79.6172V144.97ZM34.7373 144.97H145.361V32.1494H34.7373V144.97ZM147.361 144.97H259.716V32.1494H147.361V144.97ZM261.716 144.97H374.071V32.1494H261.716V144.97ZM376.071 144.97H488.427V32.1494H376.071V144.97ZM490.427 144.97H601.05V32.1494H490.427V144.97ZM603.05 144.97H715.405V32.1494H603.05V144.97ZM717.405 144.97H829.761V32.1494H717.405V144.97ZM831.761 144.97H942.383V32.1494H831.761V144.97ZM944.383 144.97H1056.74V32.1494H944.383V144.97ZM1058.74 144.97H1171.09V32.1494H1058.74V144.97ZM1173.09 144.97H1285.45V32.1494H1173.09V144.97ZM1287.45 144.97H1398.07V32.1494H1287.45V144.97ZM1400.07 -82.6709V30.1494H1512.43V-82.6709H1400.07ZM-308.328 30.1494H-195.973V-82.6709H-308.328V30.1494ZM-193.973 30.1494H-81.6172V-82.6709H-193.973V30.1494ZM-79.6172 30.1494H32.7373V-82.6709H-79.6172V30.1494ZM34.7373 30.1494H145.361V-82.6709H34.7373V30.1494ZM147.361 30.1494H259.716V-82.6709H147.361V30.1494ZM261.716 30.1494H374.071V-82.6709H261.716V30.1494ZM376.071 30.1494H488.427V-82.6709H376.071V30.1494ZM490.427 30.1494H601.05V-82.6709H490.427V30.1494ZM603.05 30.1494H715.405V-82.6709H603.05V30.1494ZM717.405 30.1494H829.761V-82.6709H717.405V30.1494ZM831.761 30.1494H942.383V-82.6709H831.761V30.1494ZM944.383 30.1494H1056.74V-82.6709H944.383V30.1494ZM1058.74 30.1494H1171.09V-82.6709H1058.74V30.1494ZM1173.09 30.1494H1285.45V-82.6709H1173.09V30.1494ZM1287.45 30.1494H1398.07V-82.6709H1287.45V30.1494ZM1400.07 -197.49V-84.6709H1512.43V-197.49H1400.07ZM-308.328 -84.6709H-195.973V-197.49H-308.328V-84.6709ZM-193.973 -84.6709H-81.6172V-197.49H-193.973V-84.6709ZM-79.6172 -84.6709H32.7373V-197.49H-79.6172V-84.6709ZM34.7373 -84.6709H145.361V-197.49H34.7373V-84.6709ZM147.361 -84.6709H259.716V-197.49H147.361V-84.6709ZM261.716 -84.6709H374.071V-197.49H261.716V-84.6709ZM376.071 -84.6709H488.427V-197.49H376.071V-84.6709ZM490.427 -84.6709H601.05V-197.49H490.427V-84.6709ZM603.05 -84.6709H715.405V-197.49H603.05V-84.6709ZM717.405 -84.6709H829.761V-197.49H717.405V-84.6709ZM831.761 -84.6709H942.383V-197.49H831.761V-84.6709ZM944.383 -84.6709H1056.74V-197.49H944.383V-84.6709ZM1058.74 -84.6709H1171.09V-197.49H1058.74V-84.6709ZM1173.09 -84.6709H1285.45V-197.49H1173.09V-84.6709ZM1287.45 -84.6709H1398.07V-197.49H1287.45V-84.6709ZM1400.07 -312.312V-199.49H1512.43V-312.312H1400.07ZM-308.328 -199.49H-195.973V-312.312H-308.328V-199.49ZM-193.973 -199.49H-81.6172V-312.312H-193.973V-199.49ZM-79.6172 -199.49H32.7373V-312.312H-79.6172V-199.49ZM34.7373 -199.49H145.361V-312.312H34.7373V-199.49ZM147.361 -199.49H259.716V-312.312H147.361V-199.49ZM261.716 -199.49H374.071V-312.312H261.716V-199.49ZM376.071 -199.49H488.427V-312.312H376.071V-199.49ZM490.427 -199.49H601.05V-312.312H490.427V-199.49ZM603.05 -199.49H715.405V-312.312H603.05V-199.49ZM717.405 -199.49H829.761V-312.312H717.405V-199.49ZM831.761 -199.49H942.383V-312.312H831.761V-199.49ZM944.383 -199.49H1056.74V-312.312H944.383V-199.49ZM1058.74 -199.49H1171.09V-312.312H1058.74V-199.49ZM1173.09 -199.49H1285.45V-312.312H1173.09V-199.49ZM1287.45 -199.49H1398.07V-312.312H1287.45V-199.49Z" fill="url(#paint0_radial_427_8729)"/>
<g style="mix-blend-mode:screen" opacity="0.2">
<circle cx="560.759" cy="240.759" r="92.759" fill="white" fill-opacity="0.4"/>
</g>
<ellipse opacity="0.2" cx="559.28" cy="239" rx="67.5" ry="68" fill="white" fill-opacity="0.6"/>
<circle cx="559.103" cy="239.103" r="13.2513" fill="white" fill-opacity="0.6"/>
<g style="mix-blend-mode:screen" opacity="0.2">
<circle cx="666.5" cy="123.5" r="27.5" fill="white" fill-opacity="0.4"/>
</g>
<circle opacity="0.2" cx="665.875" cy="122.875" r="17.5" fill="white" fill-opacity="0.6"/>
<circle cx="665.875" cy="122.875" r="8.75" fill="white" fill-opacity="0.6"/>
<g style="mix-blend-mode:screen" opacity="0.2">
<circle cx="451.5" cy="398.5" r="64.5" fill="white" fill-opacity="0.4"/>
</g>
<circle opacity="0.2" cx="450.26" cy="397.26" r="34.7308" fill="white" fill-opacity="0.6"/>
<circle cx="450.26" cy="397.26" r="17.3654" fill="white" fill-opacity="0.6"/>
<g style="mix-blend-mode:screen" opacity="0.2">
<circle cx="52" cy="48" r="176" fill="white" fill-opacity="0.4"/>
</g>
<circle opacity="0.2" cx="48.6154" cy="44.6154" r="94.7692" fill="white" fill-opacity="0.6"/>
<g style="mix-blend-mode:screen" opacity="0.2">
<circle cx="1166" cy="480" r="236" fill="white" fill-opacity="0.4"/>
</g>
<circle opacity="0.2" cx="1161.46" cy="475.462" r="127.077" fill="white" fill-opacity="0.6"/>
</g>
<defs>
<radialGradient id="paint0_radial_427_8729" cx="0" cy="0" r="1" gradientUnits="userSpaceOnUse" gradientTransform="translate(596.548 1247.05) rotate(180) scale(1300.45 1234.17)">
<stop stop-color="#EDECF3"/>
<stop offset="1" stop-color="#E6E5F5" stop-opacity="0.01"/>
</radialGradient>
<clipPath id="clip0_427_8729">
<rect width="1204" height="480" fill="white"/>
</clipPath>
</defs>
</svg>
