<svg width="93" height="22" viewBox="0 0 93 22" fill="none" xmlns="http://www.w3.org/2000/svg">
<path d="M87.7379 12.3291C88.4293 12.4794 89.0306 12.6598 89.5417 12.8102C90.2332 13.0507 90.8044 13.3212 91.2553 13.6519C92.4278 14.4637 93.0291 15.6061 92.999 17.0191C92.999 18.4622 92.4278 19.6046 91.3155 20.4163C90.2031 21.228 88.7901 21.6489 87.1366 21.6489C84.0701 21.6489 82.0257 20.4764 81.0035 18.1315L83.7995 16.508C84.3106 17.9511 85.4229 18.6726 87.1366 18.6726C88.8502 18.6726 89.692 18.1014 89.692 16.989C89.692 16.1773 88.73 15.5159 86.8359 15.0649C86.1144 14.8846 85.5131 14.7042 85.0622 14.5539C84.3707 14.3133 83.7995 14.0428 83.3485 13.7121C82.176 12.9003 81.5748 11.818 81.6048 10.4351C81.6048 9.05216 82.1159 7.9398 83.1681 7.09801C84.2204 6.25622 85.5432 5.83533 87.1065 5.83533C89.692 5.83533 91.556 6.88756 92.6683 8.96197L89.9325 10.4952C89.4214 9.3528 88.4895 8.78159 87.1065 8.78159C85.6334 8.78159 84.9118 9.32274 84.9118 10.375C84.9118 11.1266 85.8438 11.788 87.7379 12.3291Z" fill="#EDEEF3"/>
<path d="M65.7944 19.3641C64.2612 17.8308 63.4795 15.9368 63.4795 13.7421C63.4795 11.5475 64.2612 9.65344 65.7944 8.12018C67.3277 6.58692 69.1916 5.83533 71.4164 5.83533C73.6411 5.83533 75.505 6.58692 77.0383 8.12018C78.5716 9.65344 79.3532 11.5475 79.3532 13.7421C79.3532 15.9368 78.5716 17.8308 77.0383 19.3641C75.505 20.8973 73.6411 21.6489 71.4164 21.6489C69.1916 21.6489 67.3277 20.8973 65.7944 19.3641ZM71.4164 18.4922C72.7392 18.4922 73.8515 18.0413 74.7535 17.1394C75.6554 16.2374 76.1063 15.095 76.1063 13.7421C76.1063 12.3893 75.6554 11.2468 74.7535 10.3449C73.8515 9.443 72.7392 8.99204 71.4164 8.99204C70.0935 8.99204 68.9812 9.443 68.0793 10.3449C67.1773 11.2468 66.7264 12.3893 66.7264 13.7421C66.7264 15.095 67.1773 16.2374 68.0793 17.1394C68.9812 18.0413 70.0935 18.4922 71.4164 18.4922Z" fill="#EDEEF3"/>
<path d="M57.997 6.22614V8.75151C58.8088 6.88755 60.3721 5.95557 62.6269 5.95557V9.47304C61.3942 9.38285 60.3119 9.68349 59.38 10.375C58.448 11.0364 57.997 12.1487 57.997 13.682V21.2581H54.7501V6.22614H57.997Z" fill="#EDEEF3"/>
<path d="M47.7062 14.2833V6.2262H50.9531V21.2581H47.7062V19.3341C46.7141 20.8673 45.1508 21.649 43.0463 21.649C41.3026 21.649 39.9197 21.1078 38.8674 19.9955C37.8152 18.8831 37.274 17.3498 37.274 15.4558V6.2262H40.521V15.1251C40.521 16.2375 40.8216 17.1093 41.4229 17.7106C42.0241 18.3119 42.8359 18.6125 43.8881 18.6125C45.0606 18.6125 45.9926 18.2518 46.654 17.5302C47.3455 16.7786 47.7062 15.6963 47.7062 14.2833Z" fill="#EDEEF3"/>
<path d="M34.5978 15.1251H22.6323C22.8728 16.2374 23.414 17.1093 24.2858 17.7406C25.1276 18.372 26.1799 18.6726 27.4426 18.6726C29.1562 18.6726 30.4489 18.0413 31.3208 16.8087L33.9965 18.372C32.5234 20.5666 30.3287 21.6489 27.4125 21.6489C24.9773 21.6489 23.0232 20.8973 21.4899 19.4242C19.9867 17.921 19.2351 16.027 19.2351 13.7421C19.2351 11.5174 19.9867 9.65344 21.4598 8.12018C22.933 6.58692 24.827 5.83533 27.172 5.83533C29.3666 5.83533 31.1705 6.61699 32.5835 8.15025C33.9965 9.68351 34.718 11.5775 34.718 13.7722C34.718 14.163 34.688 14.614 34.5978 15.1251ZM22.6023 12.4794H31.4411C31.2306 11.307 30.7195 10.375 29.9379 9.71357C29.1863 9.08223 28.2543 8.78159 27.1419 8.78159C25.9394 8.78159 24.9472 9.11229 24.1355 9.7737C23.3238 10.4351 22.8127 11.337 22.6023 12.4794Z" fill="#EDEEF3"/>
<path d="M12.6268 14.4937V0.213379H16.0842V21.2581H13.3784L3.45735 6.97776V21.2581H0V0.213379H2.70575L12.6268 14.4937Z" fill="#EDEEF3"/>
</svg>
