<svg width="32" height="32" viewBox="0 0 32 32" fill="none" xmlns="http://www.w3.org/2000/svg">
<path d="M12 15C14.7614 15 17 17.2386 17 20V25.333C17 28.0944 14.7614 30.333 12 30.333H6.66699C3.90557 30.333 1.66699 28.0944 1.66699 25.333V20C1.66699 17.2386 3.90557 15 6.66699 15H12ZM6.66699 17C5.01014 17 3.66699 18.3431 3.66699 20V25.333C3.66699 26.9899 5.01014 28.333 6.66699 28.333H12C13.6569 28.333 15 26.9899 15 25.333V20C15 18.3431 13.6569 17 12 17H6.66699ZM25.333 3C27.3581 3 29 4.64195 29 6.66699V24C29 26.025 27.3581 27.667 25.333 27.667H20C19.4478 27.667 19.0002 27.2191 19 26.667C19 26.1147 19.4477 25.667 20 25.667H25.333C26.2535 25.667 27 24.9205 27 24V6.66699C27 5.74652 26.2535 5 25.333 5H9.33301C8.41268 5.00018 7.66699 5.74663 7.66699 6.66699V12C7.66699 12.5522 7.21913 12.9998 6.66699 13C6.11471 13 5.66699 12.5523 5.66699 12V6.66699C5.66699 4.64206 7.30811 3.00018 9.33301 3H25.333ZM10.7158 20.915C11.1062 20.5244 11.7402 20.5246 12.1309 20.915C12.5212 21.3055 12.5212 21.9386 12.1309 22.3291L9.46582 24.9961C9.07545 25.3866 8.4424 25.3864 8.05176 24.9961L6.4502 23.3965C6.0596 23.0062 6.05916 22.3731 6.44922 21.9824C6.8395 21.5918 7.47257 21.5913 7.86328 21.9814L8.75781 22.875L10.7158 20.915ZM22.667 20.333C23.219 20.3332 23.6668 20.781 23.667 21.333C23.667 21.8852 23.2191 22.3328 22.667 22.333H20C19.4477 22.333 19 21.8853 19 21.333C19.0002 20.7809 19.4478 20.333 20 20.333H22.667ZM22.667 16.333C23.219 16.3332 23.6668 16.781 23.667 17.333C23.667 17.8852 23.2191 18.3328 22.667 18.333H20C19.4477 18.333 19 17.8853 19 17.333C19.0002 16.7809 19.4478 16.333 20 16.333H22.667ZM22.6738 8.33301C22.7366 8.33347 22.7995 8.33935 22.8613 8.35156C22.8769 8.35463 22.892 8.35951 22.9072 8.36328C22.9241 8.36746 22.9413 8.3709 22.958 8.37598C22.9686 8.37918 22.9789 8.38317 22.9893 8.38672C23.0398 8.4039 23.0889 8.42568 23.1367 8.45117C23.153 8.45985 23.1689 8.46899 23.1846 8.47852C23.1967 8.48586 23.2089 8.49308 23.2207 8.50098C23.3305 8.5742 23.4247 8.66864 23.498 8.77832C23.4992 8.78005 23.5008 8.78147 23.502 8.7832L23.5459 8.85645C23.5927 8.94262 23.6266 9.03661 23.6465 9.13574C23.6557 9.18156 23.6604 9.22792 23.6631 9.27441C23.6642 9.29384 23.667 9.3133 23.667 9.33301V12C23.667 12.5522 23.2191 12.9998 22.667 13C22.1147 13 21.667 12.5523 21.667 12V11.7471L19.376 14.04C19.2607 14.1554 19.1236 14.235 18.9785 14.2822C18.9729 14.2841 18.9675 14.2864 18.9619 14.2881C18.8787 14.3136 18.7932 14.3278 18.707 14.3311C18.696 14.3315 18.6849 14.3319 18.6738 14.332C18.6598 14.3321 18.6458 14.3316 18.6318 14.3311C18.6143 14.3305 18.5967 14.3306 18.5791 14.3291C18.5581 14.3272 18.5374 14.3235 18.5166 14.3203C18.5062 14.3187 18.4957 14.3183 18.4854 14.3164C18.4709 14.3137 18.4567 14.31 18.4424 14.3066C18.3005 14.2741 18.1633 14.2113 18.042 14.1143L15.4072 12.0059L14.04 13.374C13.6495 13.7642 13.0164 13.7644 12.626 13.374C12.2356 12.9836 12.2358 12.3505 12.626 11.96L14.626 9.95996C14.6892 9.89674 14.7591 9.84353 14.833 9.80078C14.8425 9.7953 14.8517 9.78933 14.8613 9.78418C14.8734 9.77771 14.8861 9.77254 14.8984 9.7666C14.9169 9.75772 14.9353 9.74892 14.9541 9.74121C14.9605 9.7386 14.9672 9.73685 14.9736 9.73438C15.0262 9.71413 15.0798 9.69664 15.1348 9.68555C15.1587 9.68073 15.1829 9.67786 15.207 9.6748C15.2126 9.6741 15.2181 9.67249 15.2236 9.67188C15.2454 9.66949 15.2672 9.66893 15.2891 9.66797C15.2988 9.66753 15.3086 9.66714 15.3184 9.66699H15.333C15.347 9.66699 15.361 9.66739 15.375 9.66797C15.3896 9.66857 15.4043 9.66868 15.4189 9.66992C15.4709 9.67436 15.5224 9.68376 15.5732 9.69629C15.5866 9.69957 15.6001 9.70221 15.6133 9.70605C15.6186 9.7076 15.6236 9.71028 15.6289 9.71191C15.6548 9.71991 15.6807 9.7281 15.7061 9.73828C15.7144 9.74163 15.7222 9.74641 15.7305 9.75C15.752 9.75935 15.7739 9.76832 15.7949 9.7793C15.855 9.81059 15.9128 9.84825 15.9668 9.89258L18.5918 11.9932L20.2529 10.333H20C19.4477 10.333 19 9.88529 19 9.33301C19.0002 8.78087 19.4478 8.33301 20 8.33301H22.6738Z" fill="#343844"/>
</svg>
