<svg width="24" height="24" viewBox="0 0 24 24" fill="none" xmlns="http://www.w3.org/2000/svg">
<path fill-rule="evenodd" clip-rule="evenodd" d="M20.4225 11.9951C20.7154 12.288 20.7154 12.7628 20.4225 13.0557L19.7873 13.6909C19.4945 13.9838 19.0196 13.9838 18.7267 13.6909C18.4338 13.398 18.4338 12.9231 18.7267 12.6303L19.3619 11.9951C19.6548 11.7022 20.1296 11.7022 20.4225 11.9951Z" fill="white" fill-opacity="0.9"/>
<path fill-rule="evenodd" clip-rule="evenodd" d="M13.6909 18.7268C13.9837 19.0196 13.9837 19.4945 13.6909 19.7874L13.0557 20.4226C12.7628 20.7155 12.2879 20.7155 11.995 20.4226C11.7021 20.1297 11.7021 19.6548 11.995 19.3619L12.6302 18.7268C12.9231 18.4339 13.398 18.4339 13.6909 18.7268Z" fill="white" fill-opacity="0.9"/>
<path fill-rule="evenodd" clip-rule="evenodd" d="M16.2088 10.2497C16.623 10.2497 16.9588 10.5855 16.9588 10.9997V11.898C16.9588 12.3122 16.623 12.648 16.2088 12.648C15.7946 12.648 15.4588 12.3122 15.4588 11.898V10.9997C15.4588 10.5855 15.7946 10.2497 16.2088 10.2497Z" fill="white" fill-opacity="0.9"/>
<path fill-rule="evenodd" clip-rule="evenodd" d="M11.995 11.9951C12.2879 11.7022 12.7628 11.7022 13.0557 11.9951L13.6909 12.6303C13.9837 12.9231 13.9837 13.398 13.6909 13.6909C13.398 13.9838 12.9231 13.9838 12.6302 13.6909L11.995 13.0557C11.7021 12.7628 11.7021 12.288 11.995 11.9951Z" fill="white" fill-opacity="0.9"/>
<path fill-rule="evenodd" clip-rule="evenodd" d="M10.2496 16.2088C10.2496 15.7946 10.5854 15.4588 10.9996 15.4588H11.8979C12.3121 15.4588 12.6479 15.7946 12.6479 16.2088C12.6479 16.623 12.3121 16.9588 11.8979 16.9588H10.9996C10.5854 16.9588 10.2496 16.623 10.2496 16.2088Z" fill="white" fill-opacity="0.9"/>
<path fill-rule="evenodd" clip-rule="evenodd" d="M15.0787 15.0787C15.4278 14.7296 15.9442 14.6077 16.4125 14.7638L20.8624 16.2471C21.3453 16.4081 21.6903 16.8354 21.7459 17.3414C21.8014 17.8474 21.5574 18.3395 21.1209 18.6014L19.6227 19.5003C19.5725 19.5304 19.5304 19.5725 19.5003 19.6227L18.6014 21.1209C18.3395 21.5574 17.8474 21.8015 17.3414 21.7459C16.8354 21.6904 16.408 21.3454 16.2471 20.8624L14.7638 16.4126C14.6076 15.9442 14.7295 15.4278 15.0787 15.0787ZM16.3111 16.3111L19.9827 17.535L18.851 18.214C18.5896 18.3709 18.3708 18.5896 18.214 18.851L17.535 19.9827L16.3111 16.3111Z" fill="white" fill-opacity="0.9"/>
<path fill-rule="evenodd" clip-rule="evenodd" d="M18.4933 18.4933C18.7862 18.2004 19.261 18.2004 19.5539 18.4933L21.25 20.1894C21.5429 20.4823 21.5429 20.9572 21.25 21.2501C20.9571 21.543 20.4822 21.543 20.1893 21.2501L18.4933 19.554C18.2004 19.2611 18.2004 18.7862 18.4933 18.4933Z" fill="white" fill-opacity="0.9"/>
<path fill-rule="evenodd" clip-rule="evenodd" d="M2.24628 6.998C2.24628 6.58379 2.58206 6.248 2.99628 6.248H21.0038C21.418 6.248 21.7538 6.58379 21.7538 6.998C21.7538 7.41222 21.418 7.748 21.0038 7.748H2.99628C2.58206 7.748 2.24628 7.41222 2.24628 6.998Z" fill="white" fill-opacity="0.9"/>
<path fill-rule="evenodd" clip-rule="evenodd" d="M5.99753 3.74634C4.7542 3.74634 3.74628 4.75426 3.74628 5.99759V14.0009C3.74628 15.2443 4.7542 16.2522 5.99753 16.2522H6.99794C7.41216 16.2522 7.74794 16.588 7.74794 17.0022C7.74794 17.4164 7.41216 17.7522 6.99794 17.7522H5.99753C3.92577 17.7522 2.24628 16.0727 2.24628 14.0009V5.99759C2.24628 3.92583 3.92577 2.24634 5.99753 2.24634H18.0025C20.0743 2.24634 21.7538 3.92583 21.7538 5.99759V8.99884C21.7538 9.41305 21.418 9.74884 21.0038 9.74884C20.5896 9.74884 20.2538 9.41305 20.2538 8.99884V5.99759C20.2538 4.75426 19.2459 3.74634 18.0025 3.74634H5.99753Z" fill="white" fill-opacity="0.9"/>
</svg>
