<svg width="32" height="32" viewBox="0 0 32 32" fill="none" xmlns="http://www.w3.org/2000/svg">
<path fill-rule="evenodd" clip-rule="evenodd" d="M15.6666 5.33341C15.6666 4.41294 16.4128 3.66675 17.3333 3.66675H26.6666C27.5871 3.66675 28.3333 4.41294 28.3333 5.33341V14.6667C28.3333 15.5872 27.5871 16.3334 26.6666 16.3334H21.3333C20.781 16.3334 20.3333 16.7811 20.3333 17.3334C20.3333 17.8857 20.781 18.3334 21.3333 18.3334H26.6666C28.6917 18.3334 30.3333 16.6918 30.3333 14.6667V5.33341C30.3333 3.30837 28.6917 1.66675 26.6666 1.66675H17.3333C15.3082 1.66675 13.6666 3.30837 13.6666 5.33341V12.0001C13.6666 12.5524 14.1143 13.0001 14.6666 13.0001C15.2189 13.0001 15.6666 12.5524 15.6666 12.0001V5.33341ZM9.37373 3.95964C8.98321 3.56912 8.35004 3.56912 7.95952 3.95964C7.569 4.35017 7.569 4.98333 7.95952 5.37386L8.25241 5.66675H6.66663C4.64158 5.66675 2.99996 7.30837 2.99996 9.33342V10.6667C2.99996 11.219 3.44767 11.6667 3.99996 11.6667C4.55224 11.6667 4.99996 11.219 4.99996 10.6667V9.33342C4.99996 8.41294 5.74615 7.66675 6.66663 7.66675H8.25241L7.95952 7.95964C7.569 8.35017 7.569 8.98333 7.95952 9.37386C8.35004 9.76438 8.98321 9.76438 9.37373 9.37386L11.3737 7.37386C11.4696 7.27798 11.5419 7.16748 11.5907 7.04953C11.6396 6.93163 11.6666 6.80234 11.6666 6.66675C11.6666 6.53116 11.6396 6.40187 11.5907 6.28396C11.5419 6.16602 11.4696 6.05552 11.3737 5.95964L9.37373 3.95964ZM28 20.3334C28.5522 20.3334 29 20.7811 29 21.3334V22.6667C29 24.6918 27.3583 26.3334 25.3333 26.3334H23.7475L24.0404 26.6263C24.4309 27.0168 24.4309 27.65 24.0404 28.0405C23.6499 28.431 23.0167 28.431 22.6262 28.0405L20.6262 26.0405C20.5303 25.9446 20.458 25.8341 20.4092 25.7162C20.3603 25.5983 20.3333 25.469 20.3333 25.3334C20.3333 25.3162 20.3337 25.299 20.3346 25.282C20.3405 25.1651 20.3665 25.0535 20.4092 24.9506C20.458 24.8327 20.5303 24.7222 20.6262 24.6263L22.6262 22.6263C23.0167 22.2358 23.6499 22.2358 24.0404 22.6263C24.4309 23.0168 24.4309 23.65 24.0404 24.0405L23.7475 24.3334H25.3333C26.2538 24.3334 27 23.5872 27 22.6667V21.3334C27 20.7811 27.4477 20.3334 28 20.3334ZM5.66663 15.0001C3.45749 15.0001 1.66663 16.7909 1.66663 19.0001V20.6667V25.0001C1.66663 27.2092 3.45749 29.0001 5.66663 29.0001H14.3333C16.5424 29.0001 18.3333 27.2092 18.3333 25.0001V20.6667V19.0001C18.3333 16.7909 16.5424 15.0001 14.3333 15.0001H5.66663ZM3.66663 25.0001V21.6667H16.3333V25.0001C16.3333 26.1047 15.4379 27.0001 14.3333 27.0001H5.66663C4.56206 27.0001 3.66663 26.1047 3.66663 25.0001ZM3.66663 19.6667H16.3333V19.0001C16.3333 17.8955 15.4379 17.0001 14.3333 17.0001H5.66663C4.56206 17.0001 3.66663 17.8955 3.66663 19.0001V19.6667ZM17.6666 8.00008C17.6666 7.4478 18.1143 7.00008 18.6666 7.00008H25.3333C25.8856 7.00008 26.3333 7.4478 26.3333 8.00008C26.3333 8.55237 25.8856 9.00008 25.3333 9.00008H18.6666C18.1143 9.00008 17.6666 8.55237 17.6666 8.00008ZM22.6666 11.0001C22.1143 11.0001 21.6666 11.4478 21.6666 12.0001C21.6666 12.5524 22.1143 13.0001 22.6666 13.0001H25.3333C25.8856 13.0001 26.3333 12.5524 26.3333 12.0001C26.3333 11.4478 25.8856 11.0001 25.3333 11.0001H22.6666Z" fill="#343844"/>
</svg>
