<svg width="32" height="32" viewBox="0 0 32 32" fill="none" xmlns="http://www.w3.org/2000/svg">
<path d="M8 26.9998C8.55223 26.9998 8.99991 27.4475 9 27.9998C9 28.552 8.55228 28.9998 8 28.9998H5.33301C4.78087 28.9996 4.33301 28.5519 4.33301 27.9998C4.3331 27.4477 4.78093 26.9999 5.33301 26.9998H8ZM20.8184 3.14233C21.2918 2.85826 21.9062 3.01184 22.1904 3.48511C22.4746 3.95869 22.3212 4.57303 21.8477 4.85718L16.1797 8.25854C15.6906 8.55209 15.2951 8.97882 15.04 9.48901L14.6504 10.2693C14.4421 10.6858 14.333 11.1454 14.333 11.6111V12.3337H19V11.9998C19.0001 11.4476 19.4478 10.9998 20 10.9998C20.5522 10.9998 20.9999 11.4475 21 11.9998V14.6667C20.9999 14.9318 20.8944 15.1863 20.707 15.3738L17.7881 18.2947C17.3219 18.7611 17.3218 19.5168 17.7881 19.9832C18.1906 20.3856 18.8213 20.4482 19.2949 20.1326L25.3242 16.1121C26.0721 15.6133 26.6467 14.894 26.9678 14.0544L28.3994 10.3093C28.5966 9.79359 29.1747 9.53512 29.6904 9.73218C30.2061 9.92936 30.4645 10.5074 30.2676 11.0232L28.8359 14.7683C28.3667 15.9956 27.5268 17.0461 26.4336 17.7751L25 18.7312V23.9998C25 26.7612 22.7614 28.9998 20 28.9998H12.667C12.1147 28.9998 11.667 28.552 11.667 27.9998C11.6671 27.4476 12.1148 26.9998 12.667 26.9998H20C21.6569 26.9998 23 25.6566 23 23.9998V20.0652L20.4043 21.7966C19.1374 22.6411 17.4507 22.4738 16.374 21.3972C15.1268 20.15 15.1263 18.1282 16.373 16.8806L18.9189 14.3337H8.66699C7.01014 14.3337 5.66699 15.6769 5.66699 17.3337V19.3337C5.66673 19.8857 5.21897 20.3336 4.66699 20.3337C4.11487 20.3337 3.66726 19.8858 3.66699 19.3337V17.3337C3.66699 14.5723 5.90557 12.3337 8.66699 12.3337H12.333V11.6111C12.333 10.8349 12.5142 10.069 12.8613 9.37476L13.251 8.59448C13.6762 7.74395 14.336 7.03197 15.1514 6.54272L20.8184 3.14233ZM8 22.9998C8.55223 22.9998 8.99991 23.4475 9 23.9998C9 24.552 8.55228 24.9998 8 24.9998H2.66699C2.11471 24.9998 1.66699 24.552 1.66699 23.9998C1.66708 23.4475 2.11476 22.9998 2.66699 22.9998H8Z" fill="#343844"/>
</svg>
