<svg width="32" height="32" viewBox="0 0 32 32" fill="none" xmlns="http://www.w3.org/2000/svg">
<path fill-rule="evenodd" clip-rule="evenodd" d="M5.33333 1.66675C4.04467 1.66675 3 2.71142 3 4.00008V8.00008C3 9.28875 4.04467 10.3334 5.33333 10.3334H6.33333V17.6667H5.33333C4.04467 17.6667 3 18.7114 3 20.0001V24.0001C3 25.2887 4.04467 26.3334 5.33333 26.3334H9.33333C10.622 26.3334 11.6667 25.2887 11.6667 24.0001V23.0001H13.3333C13.8856 23.0001 14.3333 22.5524 14.3333 22.0001C14.3333 21.4478 13.8856 21.0001 13.3333 21.0001H11.6667V20.0001C11.6667 18.7114 10.622 17.6667 9.33333 17.6667H8.33333V10.3334H9.33333C10.622 10.3334 11.6667 9.28875 11.6667 8.00008V7.00008H19V8.00008C19 9.28875 20.0447 10.3334 21.3333 10.3334H22.3333V12.0001C22.3333 12.5524 22.781 13.0001 23.3333 13.0001C23.8856 13.0001 24.3333 12.5524 24.3333 12.0001V10.3334H25.3333C26.622 10.3334 27.6667 9.28875 27.6667 8.00008V4.00008C27.6667 2.71142 26.622 1.66675 25.3333 1.66675H21.3333C20.0447 1.66675 19 2.71142 19 4.00008V5.00008H11.6667V4.00008C11.6667 2.71142 10.622 1.66675 9.33333 1.66675H5.33333ZM23.3333 8.33341L25.3333 8.33341C25.5174 8.33341 25.6667 8.18418 25.6667 8.00008V4.00008C25.6667 3.81599 25.5174 3.66675 25.3333 3.66675H21.3333C21.1492 3.66675 21 3.81599 21 4.00008V6.00008V8.00008C21 8.18418 21.1492 8.33341 21.3333 8.33341L23.3333 8.33341ZM9.66667 20.0001V22.0001V24.0001C9.66667 24.1842 9.51743 24.3334 9.33333 24.3334H5.33333C5.14924 24.3334 5 24.1842 5 24.0001V20.0001C5 19.816 5.14924 19.6667 5.33333 19.6667H7.33333H9.33333C9.51743 19.6667 9.66667 19.816 9.66667 20.0001ZM9.66667 4.00008V6.00008V8.00008C9.66667 8.18418 9.51743 8.33341 9.33333 8.33341L7.33333 8.33341L5.33333 8.33341C5.14924 8.33341 5 8.18418 5 8.00008V4.00008C5 3.81599 5.14924 3.66675 5.33333 3.66675H9.33333C9.51743 3.66675 9.66667 3.81599 9.66667 4.00008ZM21.3333 22.6667C20.781 22.6667 20.3333 23.1145 20.3333 23.6667C20.3333 24.219 20.781 24.6667 21.3333 24.6667H24C24.5523 24.6667 25 24.219 25 23.6667C25 23.1145 24.5523 22.6667 24 22.6667H21.3333ZM20.3333 20.3334C20.3333 19.7811 20.781 19.3334 21.3333 19.3334H24C24.5523 19.3334 25 19.7811 25 20.3334C25 20.8857 24.5523 21.3334 24 21.3334H21.3333C20.781 21.3334 20.3333 20.8857 20.3333 20.3334ZM20 15.0001C17.975 15.0001 16.3333 16.6417 16.3333 18.6667V25.3334C16.3333 27.3585 17.975 29.0001 20 29.0001H25.3333C27.3584 29.0001 29 27.3585 29 25.3334V18.6667C29 16.6417 27.3584 15.0001 25.3333 15.0001H20ZM18.3333 18.6667C18.3333 17.7463 19.0795 17.0001 20 17.0001H25.3333C26.2538 17.0001 27 17.7463 27 18.6667V25.3334C27 26.2539 26.2538 27.0001 25.3333 27.0001H20C19.0795 27.0001 18.3333 26.2539 18.3333 25.3334V18.6667Z" fill="#343844"/>
</svg>
