<svg width="32" height="32" viewBox="0 0 32 32" fill="none" xmlns="http://www.w3.org/2000/svg">
<path d="M13.333 3C15.3581 3 17 4.64195 17 6.66699V10.667C16.9998 11.2191 16.5522 11.667 16 11.667C15.4478 11.667 15.0002 11.2191 15 10.667V6.66699C15 5.74652 14.2535 5 13.333 5H5.33301C4.41268 5.00018 3.66699 5.74663 3.66699 6.66699V25.333C3.66699 26.2534 4.41268 26.9998 5.33301 27H13.333C14.2535 27 15 26.2535 15 25.333V21.333C15.0002 20.7809 15.4478 20.333 16 20.333C16.5522 20.333 16.9998 20.7809 17 21.333V25.333C17 27.3581 15.3581 29 13.333 29H5.33301C3.30811 28.9998 1.66699 27.3579 1.66699 25.333V6.66699C1.66699 4.64206 3.30811 3.00018 5.33301 3H13.333ZM22.667 21.667C23.2191 21.6672 23.667 22.1148 23.667 22.667V25.333C23.667 26.2534 24.4127 26.9998 25.333 27H29.333C29.8853 27 30.333 27.4477 30.333 28C30.333 28.5523 29.8853 29 29.333 29H25.333C23.3081 28.9998 21.667 27.3579 21.667 25.333V22.667C21.667 22.1147 22.1147 21.667 22.667 21.667ZM8.2998 23.2861C8.69034 22.8958 9.3234 22.8957 9.71387 23.2861L9.7207 23.293C10.111 23.6835 10.111 24.3166 9.7207 24.707L9.71387 24.7139C9.3234 25.1043 8.69034 25.1042 8.2998 24.7139L8.29297 24.707C7.90245 24.3165 7.90245 23.6835 8.29297 23.293L8.2998 23.2861ZM28.2998 23.2861C28.6903 22.8958 29.3234 22.8957 29.7139 23.2861L29.7207 23.293C30.111 23.6835 30.111 24.3166 29.7207 24.707L29.7139 24.7139C29.3234 25.1043 28.6903 25.1042 28.2998 24.7139L28.293 24.707C27.9024 24.3165 27.9024 23.6835 28.293 23.293L28.2998 23.2861ZM10.667 7C11.9554 7.00018 12.9998 8.0446 13 9.33301V18.667C12.9998 19.9554 11.9554 20.9998 10.667 21H8C6.71144 21 5.66717 19.9555 5.66699 18.667V9.33301C5.66717 8.04449 6.71144 7 8 7H10.667ZM29.333 7C29.8853 7 30.333 7.44772 30.333 8C30.333 8.55228 29.8853 9 29.333 9H28C27.816 9 27.6672 9.14906 27.667 9.33301V11H29.333C29.8853 11 30.333 11.4477 30.333 12C30.333 12.5523 29.8853 13 29.333 13H27.667V15H29.333C29.8853 15 30.333 15.4477 30.333 16C30.333 16.5523 29.8853 17 29.333 17H27.667V18.667C27.6672 18.8509 27.816 19 28 19H29.333C29.8853 19 30.333 19.4477 30.333 20C30.333 20.5523 29.8853 21 29.333 21H28C26.7114 21 25.6672 19.9555 25.667 18.667V9.33301C25.6672 8.04449 26.7114 7 28 7H29.333ZM19.293 12.626C19.6835 12.2357 20.3165 12.2357 20.707 12.626L23.374 15.293C23.7643 15.6835 23.7643 16.3165 23.374 16.707L20.707 19.374C20.3165 19.7643 19.6835 19.7643 19.293 19.374C18.9025 18.9836 18.9026 18.3505 19.293 17.96L20.2529 17H16C15.4477 17 15 16.5523 15 16C15 15.4477 15.4477 15 16 15H20.2529L19.293 14.04C18.9026 13.6495 18.9025 13.0164 19.293 12.626ZM7.66699 18.667C7.66717 18.8509 7.81601 19 8 19H10.667C10.8508 18.9998 10.9998 18.8508 11 18.667V17H7.66699V18.667ZM7.66699 15H11V13H7.66699V15ZM8 9C7.81601 9 7.66717 9.14906 7.66699 9.33301V11H11V9.33301C10.9998 9.14917 10.8508 9.00018 10.667 9H8ZM29.333 3C29.8853 3 30.333 3.44772 30.333 4C30.333 4.55228 29.8853 5 29.333 5H25.333C24.4127 5.00018 23.667 5.74663 23.667 6.66699V9.33301C23.667 9.88518 23.2191 10.3328 22.667 10.333C22.1147 10.333 21.667 9.88529 21.667 9.33301V6.66699C21.667 4.64206 23.3081 3.00018 25.333 3H29.333Z" fill="#343844"/>
</svg>
