<svg width="32" height="32" viewBox="0 0 32 32" fill="none" xmlns="http://www.w3.org/2000/svg">
<path fill-rule="evenodd" clip-rule="evenodd" d="M3 6C3 4.34315 4.34315 3 6 3H26C27.6569 3 29 4.34315 29 6V12.6667C29 14.3235 27.6569 15.6667 26 15.6667H6C5.44772 15.6667 5 16.1144 5 16.6667V23.3333C5 23.8856 5.44772 24.3333 6 24.3333H13.3333C13.8856 24.3333 14.3333 24.781 14.3333 25.3333C14.3333 25.8856 13.8856 26.3333 13.3333 26.3333H6C4.34315 26.3333 3 24.9902 3 23.3333V16.6667C3 15.8983 3.28885 15.1974 3.7639 14.6667C3.28885 14.1359 3 13.435 3 12.6667V6ZM6 13.6667H26C26.5523 13.6667 27 13.219 27 12.6667V6C27 5.44772 26.5523 5 26 5H6C5.44772 5 5 5.44772 5 6V12.6667C5 13.219 5.44772 13.6667 6 13.6667ZM8.66667 7.66667C9.21895 7.66667 9.66667 8.11438 9.66667 8.66667V10C9.66667 10.5523 9.21895 11 8.66667 11C8.11438 11 7.66667 10.5523 7.66667 10V8.66667C7.66667 8.11438 8.11438 7.66667 8.66667 7.66667ZM17.3333 8.35002C16.781 8.35002 16.3333 8.79773 16.3333 9.35002C16.3333 9.9023 16.781 10.35 17.3333 10.35H24.0167C24.569 10.35 25.0167 9.9023 25.0167 9.35002C25.0167 8.79773 24.569 8.35002 24.0167 8.35002H17.3333ZM8.66667 18.3333C9.21895 18.3333 9.66667 18.781 9.66667 19.3333V20.6667C9.66667 21.219 9.21895 21.6667 8.66667 21.6667C8.11438 21.6667 7.66667 21.219 7.66667 20.6667V19.3333C7.66667 18.781 8.11438 18.3333 8.66667 18.3333ZM12.6667 18.3333C13.219 18.3333 13.6667 18.781 13.6667 19.3333V20.6667C13.6667 21.219 13.219 21.6667 12.6667 21.6667C12.1144 21.6667 11.6667 21.219 11.6667 20.6667V19.3333C11.6667 18.781 12.1144 18.3333 12.6667 18.3333ZM13.6667 8.66667C13.6667 8.11438 13.219 7.66667 12.6667 7.66667C12.1144 7.66667 11.6667 8.11438 11.6667 8.66667V10C11.6667 10.5523 12.1144 11 12.6667 11C13.219 11 13.6667 10.5523 13.6667 10V8.66667ZM23.2929 24.6262C23.6834 24.2357 24.3166 24.2357 24.7071 24.6262L25 24.9191V20.6667C25 20.1144 25.4477 19.6667 26 19.6667C26.5523 19.6667 27 20.1144 27 20.6667V24.9191L27.2929 24.6262C27.6834 24.2357 28.3166 24.2357 28.7071 24.6262C29.0976 25.0168 29.0976 25.6499 28.7071 26.0404L26.7071 28.0404C26.5118 28.2357 26.2559 28.3333 26 28.3333C25.8644 28.3333 25.7351 28.3063 25.6172 28.2575C25.4993 28.2087 25.3888 28.1363 25.2929 28.0404L23.2929 26.0404C22.9024 25.6499 22.9024 25.0168 23.2929 24.6262ZM18.3333 23.0809V27.3333C18.3333 27.8856 18.781 28.3333 19.3333 28.3333C19.8856 28.3333 20.3333 27.8856 20.3333 27.3333V23.0809L20.6262 23.3738C21.0168 23.7643 21.6499 23.7643 22.0404 23.3738C22.431 22.9832 22.431 22.3501 22.0404 21.9596L20.0404 19.9596C19.9446 19.8637 19.8341 19.7913 19.7161 19.7425C19.5982 19.6937 19.4689 19.6667 19.3333 19.6667C19.1977 19.6667 19.0685 19.6937 18.9506 19.7425C18.8353 19.7902 18.7271 19.8604 18.6328 19.9531M18.3333 23.0809L18.0404 23.3738C17.6499 23.7643 17.0168 23.7643 16.6262 23.3738C16.2357 22.9832 16.2357 22.3501 16.6262 21.9596L18.6256 19.9602" fill="#343844"/>
</svg>
