<svg width="32" height="32" viewBox="0 0 32 32" fill="none" xmlns="http://www.w3.org/2000/svg">
<path d="M17.333 1.66699C18.6213 1.66699 19.667 2.71172 19.667 4V4.33301H24C26.0256 4.33301 27.667 5.97438 27.667 8V12.333H28C29.2883 12.333 30.333 13.3787 30.333 14.667V17.333C30.333 18.6213 29.2883 19.667 28 19.667H27.667V24C27.667 26.0256 26.0256 27.667 24 27.667H19.667V28C19.667 29.2883 18.6213 30.333 17.333 30.333H14.667C13.3787 30.333 12.333 29.2883 12.333 28V27.667H8C6.03759 27.667 4.43593 26.1264 4.33789 24.1885L4.33301 24V19.667H4C2.71172 19.667 1.66699 18.6213 1.66699 17.333V14.667C1.66699 13.3787 2.71172 12.333 4 12.333H4.33301V8C4.33301 5.97438 5.97438 4.33301 8 4.33301H12.333V4C12.333 2.71172 13.3787 1.66699 14.667 1.66699H17.333ZM14.667 25C14.4834 25 14.3332 25.1494 14.333 25.333V28C14.333 28.1837 14.4833 28.333 14.667 28.333H17.333C17.5167 28.333 17.667 28.1837 17.667 28V25.333C17.6668 25.1494 17.5166 25 17.333 25H14.667ZM8 6.33301C7.07895 6.33301 6.33301 7.07895 6.33301 8V12.333H6.66699C7.95513 12.3332 9 13.3788 9 14.667V17.333C9 18.6212 7.95513 19.6668 6.66699 19.667H6.33301V24L6.3418 24.1709C6.42726 25.0116 7.13665 25.667 8 25.667H12.333V25.333C12.3332 24.0449 13.3788 23 14.667 23H17.333C18.6212 23 19.6668 24.0449 19.667 25.333V25.667H24C24.921 25.667 25.667 24.921 25.667 24V19.667H25.333C24.0449 19.6668 23 18.6212 23 17.333V14.667C23 13.3788 24.0449 12.3332 25.333 12.333H25.667V8C25.667 7.07895 24.921 6.33301 24 6.33301H19.667V6.66699C19.6668 7.95513 18.6212 9 17.333 9H14.667C13.3788 9 12.3332 7.95513 12.333 6.66699V6.33301H8ZM16.0859 18.835C16.7441 18.8257 17.2666 19.3587 17.2666 20C17.2666 20.6339 16.7542 21.168 16.0996 21.168C15.4555 21.1678 14.9336 20.6451 14.9336 20.001C14.9338 19.0528 15.7124 18.8404 16.0859 18.835ZM4 14.333C3.81628 14.333 3.66699 14.4833 3.66699 14.667V17.333C3.66699 17.5167 3.81628 17.667 4 17.667H6.66699C6.85056 17.6668 7 17.5166 7 17.333V14.667C7 14.4834 6.85056 14.3332 6.66699 14.333H4ZM25.333 14.333C25.1494 14.3332 25 14.4834 25 14.667V17.333C25 17.5166 25.1494 17.6668 25.333 17.667H28C28.1837 17.667 28.333 17.5167 28.333 17.333V14.667C28.333 14.4833 28.1837 14.333 28 14.333H25.333ZM11.9521 14.835C12.6105 14.8254 13.1338 15.3586 13.1338 16C13.1338 16.6338 12.6213 17.1679 11.9668 17.168C11.3225 17.168 10.7998 16.6453 10.7998 16.001C10.8 15.0529 11.5786 14.8404 11.9521 14.835ZM16.0859 14.835C16.7441 14.8257 17.2666 15.3587 17.2666 16C17.2666 16.6339 16.7542 17.168 16.0996 17.168C15.4555 17.1678 14.9336 16.6451 14.9336 16.001C14.9338 15.0528 15.7124 14.8404 16.0859 14.835ZM19.7588 14.835C20.4172 14.8254 20.9404 15.3586 20.9404 16C20.9404 16.6339 20.4281 17.168 19.7734 17.168C19.1292 17.168 18.6064 16.6453 18.6064 16.001C18.6066 15.053 19.3852 14.8404 19.7588 14.835ZM16.0859 10.835C16.7441 10.8257 17.2666 11.3587 17.2666 12C17.2666 12.6339 16.7542 13.168 16.0996 13.168C15.4555 13.1678 14.9336 12.6451 14.9336 12.001C14.9338 11.0528 15.7124 10.8404 16.0859 10.835ZM14.667 3.66699C14.4833 3.66699 14.333 3.81628 14.333 4V6.66699C14.3332 6.85056 14.4834 7 14.667 7H17.333C17.5166 7 17.6668 6.85056 17.667 6.66699V4C17.667 3.81628 17.5167 3.66699 17.333 3.66699H14.667Z" fill="#343844"/>
</svg>
