<svg width="126" height="40" viewBox="0 0 126 40" fill="none" xmlns="http://www.w3.org/2000/svg">
<path d="M119.383 2.14885C119.383 0.965847 120.342 0.00584693 121.525 0.00584693H122.954C123.523 0.00584693 124.068 0.231627 124.47 0.633517C124.872 1.03541 125.097 1.58049 125.097 2.14885C125.097 2.71721 124.872 3.26229 124.47 3.66418C124.068 4.06607 123.523 4.29185 122.954 4.29185H121.525C121.244 4.29185 120.965 4.23641 120.705 4.1287C120.445 4.02099 120.209 3.86313 120.01 3.66412C119.811 3.46511 119.654 3.22886 119.546 2.96886C119.438 2.70887 119.383 2.43022 119.383 2.14885ZM59.3923 14.2898C59.3923 22.1778 52.9983 28.5728 45.1093 28.5728C37.2213 28.5728 30.8263 22.1778 30.8263 14.2898C30.8263 6.39985 37.2213 0.00684693 45.1093 0.00684693C52.9983 0.00684693 59.3923 6.39985 59.3923 14.2898ZM28.0403 14.2188C28.8303 14.2188 29.4763 14.8588 29.3973 15.6448C29.1273 18.3347 28.0995 20.8926 26.4334 23.0215C24.7673 25.1503 22.5312 26.7626 19.985 27.671C17.4389 28.5793 14.6872 28.7465 12.0498 28.1529C9.41244 27.5594 6.99765 26.2296 5.08611 24.3181C3.17456 22.4065 1.84475 19.9917 1.25121 17.3543C0.657685 14.717 0.824811 11.9653 1.73317 9.41915C2.64153 6.87299 4.25382 4.6369 6.38267 2.97076C8.51151 1.30461 11.0695 0.276822 13.7593 0.00684693C14.5443 -0.0731531 15.1853 0.574847 15.1853 1.36285V12.7898C15.1853 13.5798 15.8253 14.2188 16.6143 14.2188H28.0403ZM79.3893 31.4298C80.5258 31.4298 81.6157 31.8813 82.4193 32.6849C83.2229 33.4885 83.6743 34.5784 83.6743 35.7148C83.6743 36.8513 83.2229 37.9412 82.4193 38.7448C81.6157 39.5484 80.5258 39.9998 79.3893 39.9998H72.2483C71.1119 39.9998 70.0219 39.5484 69.2184 38.7448C68.4148 37.9412 67.9633 36.8513 67.9633 35.7148C67.9633 34.5784 68.4148 33.4885 69.2184 32.6849C70.0219 31.8813 71.1119 31.4298 72.2483 31.4298H79.3893ZM75.1043 28.5728C82.9933 28.5728 89.3883 22.1778 89.3883 14.2898C89.3917 11.8668 88.7759 9.48306 87.5993 7.36485L89.9593 5.00485C90.2311 4.73288 90.4468 4.41003 90.5938 4.05474C90.7409 3.69945 90.8165 3.31867 90.8164 2.93414C90.8163 2.54961 90.7405 2.16887 90.5933 1.81365C90.446 1.45843 90.2303 1.13568 89.9583 0.863847C89.6863 0.592011 89.3635 0.376404 89.0082 0.229338C88.6529 0.0822712 88.2721 0.00662482 87.8876 0.00671768C87.5031 0.00681055 87.1223 0.0826408 86.7671 0.229879C86.4119 0.377117 86.0891 0.592879 85.8173 0.864847L83.7573 2.92485C81.2721 1.02675 78.2305 0.0008151 75.1033 0.00584693C67.2163 0.00684693 60.8223 6.39985 60.8223 14.2898C60.8223 22.1778 67.2163 28.5728 75.1043 28.5728ZM119.383 14.2898C119.383 22.1778 112.988 28.5728 105.099 28.5728C97.2113 28.5728 90.8163 22.1778 90.8163 14.2898C90.8163 6.39985 97.2113 0.00684693 105.099 0.00684693C112.988 0.00684693 119.383 6.40085 119.383 14.2898Z" fill="#626981"/>
</svg>
