<svg width="150" height="36" viewBox="0 0 150 36" fill="none" xmlns="http://www.w3.org/2000/svg">
<path fill-rule="evenodd" clip-rule="evenodd" d="M35.8624 18C35.8624 27.6987 28.0002 35.561 18.3014 35.561C8.60278 35.561 0.740479 27.6987 0.740479 18C0.740479 8.30137 8.60278 0.439056 18.3014 0.439056C28.0002 0.439056 35.8624 8.30137 35.8624 18ZM21.012 8.58617C22.5089 10.0832 22.5089 12.5102 21.012 14.0072L18.3014 16.7176L15.591 14.0072C14.0941 12.5102 14.0941 10.0832 15.591 8.58617C17.088 7.0892 19.515 7.0892 21.012 8.58617ZM27.7153 20.7105C26.2183 22.2075 23.7913 22.2075 22.2943 20.7105L19.5839 18.0001L22.2943 15.2895C23.7913 13.7926 26.2183 13.7926 27.7153 15.2895C29.2122 16.7865 29.2122 19.2135 27.7153 20.7105ZM21.012 21.9929C22.5089 23.4899 22.5089 25.9169 21.012 27.4139C19.515 28.9109 17.088 28.9109 15.591 27.4139C14.0941 25.9169 14.0941 23.4899 15.591 21.9929L18.3014 19.2825L21.012 21.9929ZM8.88757 15.2895C7.39064 16.7865 7.39064 19.2135 8.88757 20.7105C10.3846 22.2075 12.8116 22.2075 14.3086 20.7105L17.019 18.0001L14.3086 15.2895C12.8116 13.7926 10.3846 13.7926 8.88757 15.2895ZM56.17 25.9025H45.6756V10.8352H49.4055V22.7415H56.17V25.9025ZM60.1116 20.5288C60.1116 22.4886 60.8914 23.7951 62.3876 23.7951C63.8837 23.7951 64.6845 22.4886 64.6845 20.5288C64.6845 18.569 63.8837 17.2414 62.3876 17.2414C60.8914 17.2414 60.1116 18.569 60.1116 20.5288ZM68.1616 20.5288C68.1616 23.7741 65.8857 26.2396 62.4086 26.2396C58.9526 26.2396 56.6346 23.7741 56.6346 20.5288C56.6346 17.2835 58.9526 14.818 62.4086 14.818C65.8857 14.818 68.1616 17.2835 68.1616 20.5288ZM74.1801 29.6324C75.7817 29.6324 77.1936 29.2741 78.1418 28.4312C79.0058 27.6515 79.5748 26.4714 79.5748 24.8487V15.1129H76.2874V16.272H76.2453C75.6131 15.3658 74.6437 14.7968 73.2107 14.7968C70.5344 14.7968 68.68 17.0306 68.68 20.1916C68.68 23.5001 70.9348 25.3124 73.3582 25.3124C74.6648 25.3124 75.4866 24.7855 76.1188 24.069H76.2031V25.1438C76.2031 26.4503 75.592 27.2089 74.1379 27.2089C73 27.2089 72.431 26.7243 72.2414 26.1553H68.9118C69.249 28.4101 71.2088 29.6324 74.1801 29.6324ZM74.159 22.7625C72.8736 22.7625 72.0306 21.7088 72.0306 20.0862C72.0306 18.4425 72.8736 17.3888 74.159 17.3888C75.592 17.3888 76.3506 18.6111 76.3506 20.0651C76.3506 21.5824 75.6552 22.7625 74.159 22.7625ZM84.0585 20.5288C84.0585 22.4886 84.8382 23.7951 86.3344 23.7951C87.8306 23.7951 88.631 22.4886 88.631 20.5288C88.631 18.569 87.8306 17.2414 86.3344 17.2414C84.8382 17.2414 84.0585 18.569 84.0585 20.5288ZM92.1081 20.5288C92.1081 23.7741 89.8322 26.2396 86.3555 26.2396C82.8995 26.2396 80.5814 23.7741 80.5814 20.5288C80.5814 17.2835 82.8995 14.818 86.3555 14.818C89.8322 14.818 92.1081 17.2835 92.1081 20.5288ZM93.1117 25.9025H96.5466V15.113H93.1117V25.9025ZM93.1117 13.6168H96.5466V10.8352H93.1117V13.6168ZM101.472 29.4638H98.0367V15.1129H101.324V16.4195H101.387C102.125 15.4501 103.179 14.7968 104.654 14.7968C107.52 14.7968 109.269 17.2624 109.269 20.5077C109.269 24.0058 107.393 26.2396 104.569 26.2396C103.179 26.2396 102.188 25.6917 101.514 24.7855H101.472V29.4638ZM101.366 20.6341C101.366 22.3832 102.209 23.5844 103.684 23.5844C104.991 23.5844 105.792 22.4675 105.792 20.6341C105.792 18.7797 105.096 17.5574 103.621 17.5574C102.125 17.5574 101.366 18.885 101.366 20.6341ZM114.861 26.2396C117.685 26.2396 119.771 25.0173 119.771 22.6571C119.771 19.8966 117.537 19.4119 115.641 19.0958C115.472 19.0646 115.305 19.0356 115.142 19.0074C113.988 18.8069 113.049 18.6439 113.049 17.9789C113.049 17.3046 113.702 16.9885 114.545 16.9885C115.493 16.9885 116.146 17.2835 116.273 18.2528H119.434C119.265 16.1245 117.622 14.7968 114.566 14.7968C112.016 14.7968 109.909 15.9769 109.909 18.2528C109.909 20.7816 111.911 21.2874 113.786 21.6035C113.936 21.6299 114.084 21.6547 114.23 21.6791C115.478 21.8878 116.526 22.0631 116.526 22.9311C116.526 23.6265 115.872 24.0058 114.84 24.0058C113.702 24.0058 112.985 23.479 112.859 22.4043H109.614C109.719 24.7855 111.7 26.2396 114.861 26.2396ZM127.661 24.5749C126.881 25.6285 125.933 26.2186 124.437 26.2186C121.95 26.2186 120.644 24.5959 120.644 22.1936V15.113H124.058V21.4771C124.058 22.6572 124.584 23.3105 125.68 23.3105C126.86 23.3105 127.577 22.4254 127.577 21.1399V15.113H131.012V25.9025H127.724V24.5749H127.661ZM132.506 25.9024H135.941V19.8544C135.941 18.5689 136.573 17.6628 137.648 17.6628C138.681 17.6628 139.165 18.3371 139.165 19.4962V25.9024H142.6V19.8544C142.6 18.5689 143.211 17.6628 144.307 17.6628C145.34 17.6628 145.824 18.3371 145.824 19.4962V25.9024H149.259V18.885C149.259 16.4616 148.037 14.7968 145.593 14.7968C144.202 14.7968 143.043 15.3869 142.2 16.6934H142.158C141.61 15.5344 140.535 14.7968 139.123 14.7968C137.564 14.7968 136.531 15.5344 135.857 16.6513H135.794V15.1129H132.506V25.9024Z" fill="#626981"/>
</svg>
