<svg width="150" height="28" viewBox="0 0 150 28" fill="none" xmlns="http://www.w3.org/2000/svg">
<path fill-rule="evenodd" clip-rule="evenodd" d="M14.1754 11.2316C7.76298 11.2316 2.48214 6.38684 1.79358 0.15802H10.7027C11.2528 1.53683 12.6003 2.51115 14.1754 2.51115C15.7504 2.51115 17.0979 1.53683 17.6479 0.15802H26.557C25.8685 6.38684 20.5876 11.2316 14.1754 11.2316ZM49.0329 23.8534C50.0046 24.8928 51.4056 25.4125 53.2358 25.4125C55.0661 25.4125 56.467 24.8928 57.4387 23.8534C58.4103 22.8139 58.8961 21.3452 58.8961 19.4471V6.9741C58.8961 5.07603 58.4103 3.60728 57.4387 2.56786C56.467 1.52844 55.0661 1.00873 53.2358 1.00873C51.4056 1.00873 50.0046 1.52844 49.0329 2.56786C48.0613 3.60728 47.5755 5.07603 47.5755 6.9741V19.4471C47.5755 21.3452 48.0613 22.8139 49.0329 23.8534ZM55.1678 19.6844C55.1678 21.2435 54.5238 22.0231 53.2358 22.0231C51.9478 22.0231 51.3038 21.2435 51.3038 19.6844V6.73684C51.3038 5.1777 51.9478 4.39814 53.2358 4.39814C54.5238 4.39814 55.1678 5.1777 55.1678 6.73684V19.6844ZM40.0563 1.34772H36.3279V25.0737H46.1911V21.6842H40.0563V1.34772ZM66.705 25.4125C64.8974 25.4125 63.519 24.9041 62.5699 23.8872C61.6209 22.8479 61.1464 21.3678 61.1464 19.4471V6.9741C61.1464 5.05343 61.6209 3.58468 62.5699 2.56786C63.519 1.52844 64.8974 1.00873 66.705 1.00873C68.5127 1.00873 69.8911 1.52844 70.8401 2.56786C71.7892 3.58468 72.2637 5.05343 72.2637 6.9741V9.00774H68.7387V6.73684C68.7387 5.1777 68.0947 4.39814 66.8067 4.39814C65.5188 4.39814 64.8748 5.1777 64.8748 6.73684V19.7183C64.8748 21.2549 65.5188 22.0231 66.8067 22.0231C68.0947 22.0231 68.7387 21.2549 68.7387 19.7183V15.0748H66.8745V11.6854H72.2637V19.4471C72.2637 21.3678 71.7892 22.8479 70.8401 23.8872C69.8911 24.9041 68.5127 25.4125 66.705 25.4125ZM75.8438 23.8534C76.8154 24.8928 78.2163 25.4125 80.0466 25.4125C81.8769 25.4125 83.2779 24.8928 84.2495 23.8534C85.2212 22.8139 85.707 21.3452 85.707 19.4471V6.9741C85.707 5.07603 85.2212 3.60728 84.2495 2.56786C83.2779 1.52844 81.8769 1.00873 80.0466 1.00873C78.2163 1.00873 76.8154 1.52844 75.8438 2.56786C74.8721 3.60728 74.3863 5.07603 74.3863 6.9741V19.4471C74.3863 21.3452 74.8721 22.8139 75.8438 23.8534ZM81.9786 19.6844C81.9786 21.2435 81.3346 22.0231 80.0466 22.0231C78.7587 22.0231 78.1147 21.2435 78.1147 19.6844V6.73684C78.1147 5.1777 78.7587 4.39814 80.0466 4.39814C81.3346 4.39814 81.9786 5.1777 81.9786 6.73684V19.6844ZM88.2354 1.34772H91.9638V25.0737H88.2354V1.34772ZM100.247 1.34772H94.7559V25.0737H98.4846V15.4138H100.247C102.099 15.4138 103.489 14.9167 104.416 13.9225C105.343 12.9282 105.806 11.4708 105.806 9.55008V7.2114C105.806 5.29073 105.343 3.83329 104.416 2.83906C103.489 1.84483 102.099 1.34772 100.247 1.34772ZM101.603 11.516C101.309 11.8549 100.857 12.0244 100.247 12.0244H98.4846V4.73714H100.247C100.857 4.73714 101.309 4.9066 101.603 5.24554C101.919 5.58448 102.077 6.16068 102.077 6.97415V9.78734C102.077 10.6008 101.919 11.177 101.603 11.516ZM112.809 25.4125C111.002 25.4125 109.635 24.9041 108.708 23.8872C107.782 22.8479 107.319 21.3678 107.319 19.4471V18.0913H110.844V19.7183C110.844 21.2549 111.488 22.0231 112.776 22.0231C113.409 22.0231 113.883 21.8423 114.199 21.4808C114.538 21.0967 114.708 20.4866 114.708 19.6505C114.708 18.6563 114.482 17.7863 114.03 17.0407C113.578 16.2724 112.742 15.3572 111.521 14.2952C109.985 12.9394 108.912 11.7193 108.301 10.6347C107.692 9.52745 107.387 8.28467 107.387 6.90631C107.387 5.03084 107.861 3.58468 108.81 2.56786C109.759 1.52844 111.138 1.00873 112.946 1.00873C114.73 1.00873 116.075 1.52844 116.979 2.56786C117.905 3.58468 118.368 5.05343 118.368 6.9741V7.95703H114.843V6.73684C114.843 5.92338 114.685 5.33588 114.369 4.97434C114.053 4.59021 113.59 4.39814 112.979 4.39814C111.736 4.39814 111.115 5.15511 111.115 6.66905C111.115 7.5277 111.341 8.32986 111.793 9.07553C112.267 9.82117 113.115 10.725 114.335 11.787C115.894 13.1428 116.967 14.3743 117.555 15.4816C118.142 16.5888 118.436 17.888 118.436 19.3793C118.436 21.3226 117.95 22.8139 116.979 23.8534C116.029 24.8928 114.64 25.4125 112.809 25.4125ZM121.862 23.8873C122.811 24.9042 124.19 25.4125 125.997 25.4125C127.804 25.4125 129.183 24.9042 130.132 23.8873C131.081 22.8479 131.555 21.3679 131.555 19.4472V1.34772H127.963V19.7184C127.963 20.5318 127.793 21.1193 127.454 21.4809C127.138 21.8424 126.675 22.0232 126.065 22.0232C125.455 22.0232 124.98 21.8424 124.641 21.4809C124.325 21.1193 124.167 20.5318 124.167 19.7184V1.34772H120.438V19.4472C120.438 21.3679 120.913 22.8479 121.862 23.8873ZM134.211 1.34772H139.533L141.905 18.3286H141.972L144.346 1.34772H149.667V25.0737H146.141V7.10972H146.074L143.362 25.0737H140.244L137.532 7.10972H137.465V25.0737H134.211V1.34772ZM8.63856 16.7684C8.63856 21.3552 4.92022 25.0736 0.333374 25.0736V19.26C1.70942 19.26 2.82492 18.1444 2.82492 16.7684C2.82492 15.3923 1.70942 14.2768 0.333374 14.2768V8.4632C4.92022 8.4632 8.63856 12.1816 8.63856 16.7684ZM28.0173 11.2316C26.5981 10.7821 25.0868 10.5395 23.5187 10.5395C15.3006 10.5395 8.63858 17.2016 8.63858 25.4196C8.63858 26.2445 8.7057 27.0537 8.83475 27.842H18.0802C17.7502 27.102 17.5667 26.2823 17.5667 25.4196C17.5667 22.1324 20.2315 19.4676 23.5187 19.4676C25.3153 19.4676 26.926 20.2636 28.0173 21.5222V11.2316Z" fill="#626981"/>
</svg>
