<svg width="134" height="32" viewBox="0 0 134 32" fill="none" xmlns="http://www.w3.org/2000/svg">
<path fill-rule="evenodd" clip-rule="evenodd" d="M27.198 6.33692C28.1178 7.43034 28.8755 8.65032 29.448 9.95942C30.282 11.8681 30.7109 13.929 30.708 16.0119C30.7051 20.05 29.1012 23.9221 26.2479 26.7796C23.3946 29.6371 19.5248 31.2468 15.4868 31.2557C13.5305 31.2545 11.5931 30.8725 9.78301 30.1307C8.49191 29.6177 7.27989 28.9246 6.18302 28.0719C4.47356 26.7692 3.05937 25.1191 2.03355 23.2304C1.00773 21.3417 0.393541 19.2572 0.231372 17.114C0.0692147 14.9708 0.362783 12.8176 1.09274 10.7961C1.8227 8.77451 2.9725 6.93047 4.46648 5.38531C5.96045 3.84015 7.76472 2.6289 9.7605 1.83128C11.7564 1.03366 13.8985 0.667762 16.0459 0.757661C18.1933 0.847559 20.2974 1.39122 22.2195 2.35284C24.1417 3.31448 25.8384 4.6723 27.198 6.33692ZM20.5605 4.97566C18.9678 4.23444 17.2323 3.85048 15.4755 3.85066L15.4868 3.82816C13.4372 3.82664 11.4206 4.34361 9.62449 5.33099C7.82841 6.31837 6.3113 7.74406 5.21436 9.47533C4.1174 11.2067 3.47625 13.1874 3.35057 15.2331C3.22488 17.2788 3.61875 19.3231 4.49552 21.1757C5.00367 20.6419 5.31681 19.9521 5.38427 19.2182C5.58349 17.8418 6.22248 16.5669 7.20583 15.5835C8.18918 14.6002 9.46418 13.9612 10.8405 13.7619C11.6142 13.6917 12.3399 13.3569 12.8953 12.8138C13.4507 12.2706 13.8018 11.5525 13.8893 10.7807C14.0885 9.40434 14.7275 8.12934 15.7109 7.14598C16.6942 6.16262 17.9692 5.52364 19.3455 5.32442C19.7638 5.26069 20.1722 5.14347 20.5605 4.97566ZM6.30677 23.7657C6.26177 23.8057 6.21677 23.8457 6.17177 23.8869C7.04374 24.9075 8.07751 25.7778 9.23176 26.4632C9.53359 25.9997 9.72248 25.4717 9.78301 24.9219C9.98922 23.5428 10.6349 22.267 11.6238 21.284C12.6129 20.3011 13.8926 19.6633 15.273 19.4657C16.0478 19.3893 16.7723 19.0474 17.3239 18.4978C17.8754 17.9484 18.2199 17.2251 18.2993 16.4507C18.495 15.0729 19.1329 13.796 20.1168 12.812C21.1008 11.828 22.3777 11.1902 23.7555 10.9944C24.5315 10.9211 25.2548 10.5694 25.7918 10.0044C25.8462 9.95751 25.8953 9.90463 25.938 9.84692C25.242 8.65767 24.3435 7.59925 23.283 6.71942C22.3516 7.59209 21.1724 8.1542 19.908 8.32816C19.1316 8.38116 18.4006 8.71275 17.8493 9.26192C17.268 9.83207 16.9192 10.5979 16.8705 11.4107C16.6713 12.787 16.0323 14.062 15.0489 15.0453C14.0655 16.0287 12.7906 16.6677 11.4143 16.8669C10.6403 16.9303 9.91609 17.2744 9.37801 17.8344C8.81888 18.3789 8.47192 19.1048 8.39927 19.8819C8.22007 21.2644 7.57762 22.5454 6.57677 23.5157C6.48677 23.6057 6.39677 23.6857 6.30677 23.7657ZM12.1005 27.7569C13.1978 28.0716 14.334 28.2307 15.4755 28.2294V28.1732C17.3347 28.166 19.1674 27.733 20.8332 26.9074C22.4991 26.0819 23.9536 24.8857 25.0854 23.4108C26.2171 21.9358 26.9961 20.2211 27.3623 18.3984C27.7284 16.5757 27.6723 14.6933 27.198 12.8957C26.3439 13.4996 25.3553 13.8858 24.318 14.0207C23.5452 14.0995 22.8233 14.4425 22.2741 14.9918C21.7249 15.541 21.3819 16.2629 21.303 17.0357C21.1032 18.4136 20.4625 19.6899 19.477 20.6734C18.4914 21.6569 17.2139 22.2949 15.8355 22.4919C15.0627 22.5708 14.3408 22.9138 13.7916 23.463C13.2424 24.0122 12.8994 24.7342 12.8205 25.5069C12.7199 26.2945 12.4759 27.0572 12.1005 27.7569ZM42.2618 9.34069H38.8868V22.9869H42.2618V9.34069ZM48.8655 12.4457C45.6705 12.4457 43.6005 14.4594 43.6005 17.8344C43.6005 21.2657 45.6255 23.2344 48.8655 23.2344C52.1055 23.2344 54.1305 21.2094 54.1305 17.8344C54.1305 14.4594 52.0605 12.4457 48.8655 12.4457ZM48.8655 14.8869C50.013 14.8869 50.7443 15.9782 50.7443 17.8344V17.8457C50.7443 19.7244 50.0243 20.7594 48.8655 20.7594C47.7068 20.7594 46.998 19.6569 46.998 17.8344C46.998 16.0119 47.718 14.8869 48.8655 14.8869ZM58.6418 23.6507H55.4018V23.6619C55.593 25.5294 57.4493 26.8682 60.4305 26.8682C63.6368 26.8682 65.808 25.3382 65.808 22.8744V12.6369H62.433V14.5157C62.179 13.9085 61.7454 13.3935 61.1905 13.0396C60.6355 12.6858 59.9857 12.5099 59.328 12.5357C56.7405 12.5357 55.188 14.5719 55.188 17.8007C55.188 21.0294 56.8193 22.9082 59.283 22.9082C59.9207 22.9428 60.5542 22.7856 61.1016 22.4567C61.649 22.1278 62.0854 21.6425 62.3543 21.0632H62.4218V22.9532C62.4218 23.9657 61.7468 24.6632 60.4643 24.6632C60.092 24.7133 59.7135 24.6417 59.3851 24.4593C59.0567 24.2769 58.796 23.9933 58.6418 23.6507ZM60.4868 15.1457C61.6793 15.1457 62.433 16.1807 62.433 17.8232V17.8344C62.433 19.4994 61.6905 20.4107 60.4868 20.4107C59.283 20.4107 58.563 19.4769 58.563 17.8232C58.563 16.1694 59.2943 15.1457 60.4868 15.1457ZM72.3443 12.4344C69.1493 12.4344 67.0793 14.4482 67.0793 17.8232V17.8344C67.0793 21.2657 69.093 23.2232 72.3443 23.2232C75.5955 23.2232 77.6205 21.1982 77.6205 17.8232C77.6205 14.4482 75.5393 12.4344 72.3443 12.4344ZM72.3443 14.8757C73.4918 14.8757 74.223 15.9669 74.223 17.8232V17.8457C74.223 19.7244 73.5368 20.7707 72.3893 20.7707C71.2418 20.7707 70.533 19.6794 70.533 17.8457C70.533 16.0119 71.1968 14.8757 72.3443 14.8757ZM79.1689 9.21988C78.9867 9.50798 78.8941 9.84368 78.903 10.1844V10.2069C78.9009 10.4334 78.9457 10.6578 79.0345 10.8661C79.1233 11.0744 79.2542 11.2622 79.4191 11.4174C79.5839 11.5728 79.779 11.6923 79.9923 11.7686C80.2054 11.8448 80.4321 11.8762 80.658 11.8607C80.9988 11.8539 81.33 11.7461 81.6093 11.5509C81.8888 11.3557 82.104 11.0819 82.2276 10.7643C82.3514 10.4466 82.3779 10.0994 82.304 9.76661C82.2301 9.43384 82.0591 9.13051 81.8125 8.89507C81.566 8.65964 81.2552 8.50269 80.9194 8.44412C80.5836 8.38557 80.238 8.42803 79.9263 8.56614C79.6147 8.70424 79.3511 8.93176 79.1689 9.21988ZM82.278 12.6594H78.903V22.9869H82.278V12.6594ZM90.468 23.1219C93.033 23.1219 94.5293 21.1982 94.5293 17.8232L94.5743 17.8457C94.5743 14.4707 93.033 12.5357 90.4455 12.4907C89.7828 12.4611 89.127 12.6364 88.5675 12.9927C88.0079 13.349 87.5716 13.8689 87.318 14.4819H87.2505V12.6369H83.8755V26.2944H87.2505V21.2094H87.318C87.584 21.8124 88.0287 22.3193 88.5921 22.6614C89.1555 23.0034 89.8104 23.1641 90.468 23.1219ZM89.2193 15.1344C90.4005 15.1344 91.1543 16.1807 91.1543 17.8232V17.8457C91.1543 19.4769 90.4005 20.5007 89.2193 20.5007C88.038 20.5007 87.2618 19.4544 87.273 17.8232C87.2843 16.1919 88.038 15.1344 89.2193 15.1344ZM104.902 15.8769C104.823 13.7507 103.124 12.4232 100.323 12.4232V12.4457C97.533 12.4457 95.7218 13.7619 95.6993 15.7869C95.6993 17.3619 96.7568 18.4307 98.7705 18.8469L100.717 19.2632C101.527 19.4319 101.842 19.5444 101.842 20.0844C101.842 20.6244 101.392 20.9507 100.402 20.9507C99.4118 20.9507 98.8043 20.5007 98.703 19.7357H95.4518C95.598 21.8394 97.4768 23.2119 100.346 23.2119C103.214 23.2119 105.161 21.8394 105.161 19.7019C105.161 18.1382 104.283 17.3057 102.224 16.8669L100.064 16.4282C99.3105 16.2707 98.9393 16.1019 98.9393 15.5732C98.9393 15.0444 99.3555 14.6844 100.289 14.6844C101.223 14.6844 101.831 15.1457 101.831 15.8769H104.902ZM113.171 22.9644H116.422L116.467 12.6369H113.092V18.4644C113.124 18.7077 113.103 18.9549 113.032 19.1897C112.961 19.4244 112.84 19.6412 112.679 19.8256C112.517 20.0099 112.317 20.1575 112.094 20.2584C111.87 20.3593 111.627 20.4111 111.382 20.4107C110.336 20.4107 109.706 19.7582 109.706 18.5319V12.6369H106.331V19.3082C106.288 19.82 106.356 20.335 106.529 20.8184C106.702 21.3018 106.978 21.7425 107.336 22.1103C107.694 22.4783 108.127 22.765 108.606 22.9512C109.085 23.1374 109.598 23.2186 110.111 23.1894C110.78 23.2266 111.441 23.0336 111.986 22.6428C112.53 22.2519 112.924 21.6866 113.103 21.0407H113.171V22.9644ZM121.316 12.6369H118.053L117.997 22.9869H121.372V16.9007C121.346 16.6891 121.366 16.4745 121.429 16.2711C121.493 16.0676 121.599 15.88 121.741 15.7206C121.881 15.5612 122.056 15.4335 122.25 15.3459C122.444 15.2585 122.655 15.2133 122.868 15.2132C123.791 15.2132 124.297 15.7757 124.297 16.8107V22.9869H127.503V16.8782C127.476 16.6693 127.493 16.4569 127.555 16.2553C127.617 16.0538 127.721 15.8679 127.861 15.7101C128 15.5523 128.172 15.4263 128.365 15.3405C128.557 15.2548 128.766 15.2114 128.977 15.2132C129.922 15.2132 130.428 15.7307 130.428 16.8557V22.9869H133.803V15.9557C133.837 15.4977 133.773 15.0377 133.617 14.6058C133.461 14.1739 133.216 13.7796 132.897 13.4485C132.579 13.1175 132.195 12.8571 131.769 12.6844C131.344 12.5116 130.887 12.4303 130.428 12.4457C129.725 12.4154 129.031 12.6202 128.457 13.0275C127.882 13.4349 127.459 14.0217 127.256 14.6957H127.188C127.08 14.0288 126.725 13.4271 126.194 13.0102C125.661 12.5933 124.993 12.3918 124.319 12.4457C123.658 12.4334 123.01 12.6411 122.479 13.036C121.948 13.4309 121.562 13.9909 121.383 14.6282H121.316V12.6369Z" fill="#626981"/>
</svg>
