<svg width="150" height="36" viewBox="0 0 150 36" fill="none" xmlns="http://www.w3.org/2000/svg">
<path fill-rule="evenodd" clip-rule="evenodd" d="M35.8627 18C35.8627 27.6986 28.0004 35.561 18.3017 35.561C8.60302 35.561 0.740723 27.6986 0.740723 18C0.740723 8.30135 8.60302 0.439026 18.3017 0.439026C28.0004 0.439026 35.8627 8.30135 35.8627 18ZM22.2881 7.71041C23.1276 7.11231 24.0468 7.67243 23.7801 8.61967L21.1397 18H25.8195C26.8018 18 26.945 19.2923 26.0346 19.9409L14.3154 28.2896C13.4758 28.8877 12.5566 28.3276 12.8233 27.3803L14.9837 19.7052L19.8844 17.9761H13.8699V18H10.7839C9.80159 18 9.65838 16.7078 10.5688 16.0591L22.2881 7.71041ZM56.1702 25.0243H45.6758V9.95697H49.4057V21.8633H56.1702V25.0243ZM60.1119 19.6507C60.1119 21.6105 60.8916 22.9171 62.3878 22.9171C63.884 22.9171 64.6847 21.6105 64.6847 19.6507C64.6847 17.6909 63.884 16.3633 62.3878 16.3633C60.8916 16.3633 60.1119 17.6909 60.1119 19.6507ZM68.1618 19.6507C68.1618 22.896 65.8859 25.3615 62.4088 25.3615C58.9528 25.3615 56.6348 22.896 56.6348 19.6507C56.6348 16.4054 58.9528 13.9399 62.4088 13.9399C65.8859 13.9399 68.1618 16.4054 68.1618 19.6507ZM74.1804 28.7543C75.782 28.7543 77.1939 28.396 78.1422 27.5531C79.0061 26.7734 79.5751 25.5933 79.5751 23.9707V14.2349H76.2877V15.3939H76.2456C75.6134 14.4877 74.644 13.9188 73.211 13.9188C70.5347 13.9188 68.6803 16.1525 68.6803 19.3135C68.6803 22.622 70.9351 24.4343 73.3585 24.4343C74.6651 24.4343 75.4869 23.9074 76.1191 23.191H76.2034V24.2657C76.2034 25.5722 75.5923 26.3309 74.1383 26.3309C73.0003 26.3309 72.4313 25.8462 72.2417 25.2772H68.9121C69.2493 27.532 71.2091 28.7543 74.1804 28.7543ZM74.1593 21.8844C72.8739 21.8844 72.0309 20.8308 72.0309 19.2081C72.0309 17.5644 72.8739 16.5108 74.1593 16.5108C75.5923 16.5108 76.3509 17.733 76.3509 19.1871C76.3509 20.7043 75.6555 21.8844 74.1593 21.8844ZM84.0587 19.6507C84.0587 21.6105 84.8384 22.9171 86.3346 22.9171C87.8308 22.9171 88.6316 21.6105 88.6316 19.6507C88.6316 17.6909 87.8308 16.3633 86.3346 16.3633C84.8384 16.3633 84.0587 17.6909 84.0587 19.6507ZM92.1087 19.6507C92.1087 22.896 89.8328 25.3615 86.3557 25.3615C82.8997 25.3615 80.5816 22.896 80.5816 19.6507C80.5816 16.4054 82.8997 13.9399 86.3557 13.9399C89.8328 13.9399 92.1087 16.4054 92.1087 19.6507ZM93.1114 25.0243H96.5463V14.2348H93.1114V25.0243ZM93.1114 12.7386H96.5463V9.95697H93.1114V12.7386ZM101.472 28.5857H98.0373V14.2349H101.325V15.5414H101.388C102.125 14.572 103.179 13.9188 104.654 13.9188C107.52 13.9188 109.269 16.3843 109.269 19.6296C109.269 23.1277 107.394 25.3615 104.57 25.3615C103.179 25.3615 102.189 24.8136 101.514 23.9074H101.472V28.5857ZM101.367 19.756C101.367 21.5051 102.21 22.7063 103.685 22.7063C104.991 22.7063 105.792 21.5894 105.792 19.756C105.792 17.9016 105.097 16.6793 103.622 16.6793C102.125 16.6793 101.367 18.007 101.367 19.756ZM114.862 25.3615C117.685 25.3615 119.772 24.1392 119.772 21.7791C119.772 19.0185 117.538 18.5338 115.641 18.2177C115.473 18.1866 115.307 18.1577 115.145 18.1296L115.143 18.1293L115.143 18.1293L115.143 18.1293C113.988 17.9288 113.049 17.7658 113.049 17.1008C113.049 16.4265 113.703 16.1104 114.545 16.1104C115.494 16.1104 116.147 16.4054 116.273 17.3748H119.434C119.266 15.2464 117.622 13.9188 114.567 13.9188C112.017 13.9188 109.909 15.0989 109.909 17.3748C109.909 19.9035 111.911 20.4093 113.787 20.7254C113.937 20.7518 114.085 20.7767 114.231 20.801C115.479 21.0097 116.526 21.185 116.526 22.053C116.526 22.7484 115.873 23.1277 114.84 23.1277C113.703 23.1277 112.986 22.6009 112.86 21.5262H109.614C109.72 23.9074 111.701 25.3615 114.862 25.3615ZM127.662 23.6968C126.882 24.7504 125.934 25.3405 124.438 25.3405C121.951 25.3405 120.644 23.7179 120.644 21.3155V14.2349H124.058V20.599C124.058 21.7791 124.585 22.4324 125.681 22.4324C126.861 22.4324 127.577 21.5473 127.577 20.2619V14.2349H131.012V25.0244H127.725V23.6968H127.662ZM132.506 25.0243H135.941V18.9763C135.941 17.6909 136.573 16.7847 137.648 16.7847C138.68 16.7847 139.165 17.4591 139.165 18.6181V25.0243H142.6V18.9763C142.6 17.6909 143.211 16.7847 144.307 16.7847C145.339 16.7847 145.824 17.4591 145.824 18.6181V25.0243H149.259V18.007C149.259 15.5835 148.037 13.9188 145.592 13.9188C144.202 13.9188 143.042 14.5088 142.2 15.8153H142.157C141.61 14.6563 140.535 13.9188 139.123 13.9188C137.563 13.9188 136.531 14.6563 135.857 15.7732H135.793V14.2349H132.506V25.0243Z" fill="#626981"/>
</svg>
