<svg width="251" height="255" viewBox="0 0 251 255" fill="none" xmlns="http://www.w3.org/2000/svg">
<g filter="url(#filter0_dddd_455_2819)">
<rect x="32.7002" y="10.3691" width="186.3" height="190.631" rx="12" fill="white"/>
<rect x="33.2002" y="10.8691" width="185.3" height="189.631" rx="11.5" stroke="#ECEEF4"/>
<rect x="51.9727" y="26.0684" width="68.3295" height="8.4102" rx="4.2051" fill="#ECEEF4"/>
<rect x="51.9727" y="40.3291" width="117.387" height="6.72816" rx="3.36408" fill="#ECEEF4"/>
<path d="M51.6807 65.3164L200.604 65.3164" stroke="#ECEEF4" stroke-width="0.689001"/>
<rect x="168.483" y="96.1523" width="3.50408" height="3.36408" rx="1.68204" fill="#5A78E5"/>
<rect x="175.784" y="95.0312" width="24.5285" height="5.6068" rx="2.8034" fill="#ECEEF4"/>
<rect x="168.483" y="104.002" width="3.50408" height="3.36408" rx="1.68204" fill="#B59DF9"/>
<rect x="175.784" y="102.881" width="24.5285" height="5.6068" rx="2.8034" fill="#ECEEF4"/>
<rect x="168.483" y="111.852" width="3.50408" height="3.36408" rx="1.68204" fill="#FDAED0"/>
<rect x="175.784" y="110.73" width="24.5285" height="5.6068" rx="2.8034" fill="#ECEEF4"/>
<rect x="168.483" y="119.701" width="3.50408" height="3.36408" rx="1.68204" fill="#539EF3"/>
<rect x="175.784" y="118.58" width="24.5285" height="5.6068" rx="2.8034" fill="#ECEEF4"/>
<path opacity="0.6" d="M93.587 122.642L73.8701 140.026L99.2204 147.366L118.535 155.285L114.913 134.618L119.742 122.642L106.866 116.848L93.587 122.642Z" fill="#B59DF9" stroke="#B59DF9" stroke-width="1.378"/>
<path d="M140.069 106.971L148.337 141.74L125.167 169.634H87.9893L64.8193 141.741L73.0859 106.971L106.578 91.4854L140.069 106.971Z" stroke="#79829F" stroke-width="0.689001"/>
<path d="M133.804 112.213L140.38 139.868L121.95 162.057H92.3745L73.9438 139.869L80.519 112.214L107.163 99.8955L133.804 112.213Z" stroke="#79829F" stroke-width="0.689001"/>
<path d="M126.828 117.108L131.825 138.123L117.819 154.984H95.3379L81.3311 138.123L86.3271 117.108L106.578 107.745L126.828 117.108Z" stroke="#79829F" stroke-width="0.689001"/>
<path d="M120.043 122.807L123.292 136.469L114.183 147.435H99.5581L90.4487 136.469L93.6968 122.807L106.871 116.716L120.043 122.807Z" stroke="#79829F" stroke-width="0.689001"/>
<path d="M113.714 127.596L115.328 134.38L110.801 139.829H103.523L98.9956 134.38L100.609 127.596L107.162 124.565L113.714 127.596Z" stroke="#79829F" stroke-width="0.689001"/>
<path d="M65.0176 141.764L106.866 132.686L140.264 106.996" stroke="#79829F" stroke-width="0.689001"/>
<path d="M125.706 170.012L107.186 132.858L73.6741 107.305" stroke="#79829F" stroke-width="0.689001"/>
<path d="M107.175 91.5109L107.04 132.7L88.1801 169.58" stroke="#79829F" stroke-width="0.689001"/>
<path d="M107.067 132.879L148.714 141.957" stroke="#79829F" stroke-width="0.689001"/>
<path opacity="0.6" d="M87.5508 118.006L106.865 91.7373L112.901 127.664L125.576 136.549L110.084 138.867L94.3913 157.024L101.232 133.845L87.5508 118.006Z" fill="#5598E6" stroke="#5A78E5" stroke-width="1.378"/>
<ellipse cx="106.87" cy="91.3869" rx="0.87602" ry="0.841019" fill="#5A78E5"/>
<ellipse cx="87.5977" cy="117.738" rx="0.876019" ry="0.841022" fill="#5A78E5"/>
<ellipse cx="101.03" cy="133.998" rx="0.87602" ry="0.841019" fill="#5A78E5"/>
<ellipse cx="94.022" cy="156.987" rx="0.876019" ry="0.841019" fill="#5A78E5"/>
<ellipse cx="109.79" cy="138.484" rx="0.87602" ry="0.841019" fill="#5A78E5"/>
<ellipse cx="124.975" cy="136.241" rx="0.876019" ry="0.841019" fill="#5A78E5"/>
<ellipse cx="112.71" cy="127.271" rx="0.876019" ry="0.841019" fill="#5A78E5"/>
<ellipse cx="73.5816" cy="140.166" rx="0.876019" ry="0.841019" fill="#B59DF9"/>
<ellipse cx="99.2779" cy="147.455" rx="0.876019" ry="0.841022" fill="#B59DF9"/>
<ellipse cx="118.55" cy="154.743" rx="0.876019" ry="0.841022" fill="#B59DF9"/>
<ellipse cx="119.718" cy="122.785" rx="0.876019" ry="0.841019" fill="#B59DF9"/>
<ellipse cx="106.87" cy="100.358" rx="0.87602" ry="0.841015" fill="#FDAED0"/>
<ellipse cx="133.735" cy="112.132" rx="0.876019" ry="0.841019" fill="#FDAED0"/>
<ellipse cx="131.983" cy="137.923" rx="0.876019" ry="0.841022" fill="#FDAED0"/>
<ellipse cx="113.878" cy="146.895" rx="0.876019" ry="0.841011" fill="#FDAED0"/>
<ellipse cx="115.046" cy="134.56" rx="0.87602" ry="0.841022" fill="#B59DF9"/>
<ellipse cx="106.87" cy="116.617" rx="0.87602" ry="0.841019" fill="#B59DF9"/>
<ellipse cx="93.438" cy="122.785" rx="0.876019" ry="0.841019" fill="#B59DF9"/>
<ellipse cx="113.878" cy="146.895" rx="0.876019" ry="0.841011" fill="#FDAED0"/>
<ellipse cx="98.6939" cy="133.998" rx="0.876019" ry="0.841019" fill="#FDAED0"/>
<ellipse cx="80.0054" cy="112.132" rx="0.876019" ry="0.841019" fill="#FDAED0"/>
<ellipse cx="103.366" cy="140.166" rx="0.876019" ry="0.841019" fill="#FDAED0"/>
<path opacity="0.6" d="M106.866 100.235L79.9058 112.211L98.8179 134.231L103.244 140.025L114.109 146.979L132.216 138.094L133.825 112.211L106.866 100.235Z" fill="#FDAED0" stroke="#FDAED0" stroke-width="1.378"/>
<ellipse cx="80.0054" cy="112.132" rx="0.876019" ry="0.841019" fill="#539EF3"/>
<ellipse cx="64.8213" cy="141.287" rx="0.876019" ry="0.841019" fill="#539EF3"/>
<ellipse cx="103.366" cy="140.166" rx="0.876019" ry="0.841019" fill="#539EF3"/>
<ellipse cx="115.046" cy="135.12" rx="0.87602" ry="0.841019" fill="#539EF3"/>
<ellipse cx="140.743" cy="107.086" rx="0.876019" ry="0.841019" fill="#539EF3"/>
<ellipse cx="106.87" cy="107.647" rx="0.87602" ry="0.841019" fill="#539EF3"/>
<path opacity="0.6" d="M65.0176 141.571L79.9058 112.211L106.866 107.962L140.666 107.189L114.913 134.811L103.244 140.026L65.0176 141.571Z" fill="#8FBFF6" stroke="#539EF3" stroke-width="1.378"/>
<rect x="102.198" y="83.2578" width="10.5122" height="4.48544" rx="2.24272" fill="#ECEEF4"/>
<rect x="142.495" y="102.32" width="10.5122" height="4.48544" rx="2.24272" fill="#ECEEF4"/>
<rect x="151.839" y="138.204" width="10.5122" height="4.48544" rx="2.24272" fill="#ECEEF4"/>
<rect x="126.143" y="172.405" width="10.5122" height="4.48544" rx="2.24272" fill="#ECEEF4"/>
<rect x="75.9175" y="171.845" width="10.5122" height="4.48544" rx="2.24272" fill="#ECEEF4"/>
<rect x="51.3887" y="137.083" width="10.5122" height="4.48544" rx="2.24272" fill="#ECEEF4"/>
<rect x="60.7329" y="101.76" width="10.5122" height="4.48544" rx="2.24272" fill="#ECEEF4"/>
</g>
<defs>
<filter id="filter0_dddd_455_2819" x="0.700195" y="0.369141" width="250.3" height="254.631" filterUnits="userSpaceOnUse" color-interpolation-filters="sRGB">
<feFlood flood-opacity="0" result="BackgroundImageFix"/>
<feColorMatrix in="SourceAlpha" type="matrix" values="0 0 0 0 0 0 0 0 0 0 0 0 0 0 0 0 0 0 127 0" result="hardAlpha"/>
<feOffset dy="22"/>
<feGaussianBlur stdDeviation="16"/>
<feColorMatrix type="matrix" values="0 0 0 0 0.170868 0 0 0 0 0.225854 0 0 0 0 0.445799 0 0 0 0.05 0"/>
<feBlend mode="normal" in2="BackgroundImageFix" result="effect1_dropShadow_455_2819"/>
<feColorMatrix in="SourceAlpha" type="matrix" values="0 0 0 0 0 0 0 0 0 0 0 0 0 0 0 0 0 0 127 0" result="hardAlpha"/>
<feOffset dy="18"/>
<feGaussianBlur stdDeviation="10"/>
<feColorMatrix type="matrix" values="0 0 0 0 0.170868 0 0 0 0 0.225854 0 0 0 0 0.445799 0 0 0 0.05 0"/>
<feBlend mode="normal" in2="effect1_dropShadow_455_2819" result="effect2_dropShadow_455_2819"/>
<feColorMatrix in="SourceAlpha" type="matrix" values="0 0 0 0 0 0 0 0 0 0 0 0 0 0 0 0 0 0 127 0" result="hardAlpha"/>
<feOffset dy="6"/>
<feGaussianBlur stdDeviation="4"/>
<feColorMatrix type="matrix" values="0 0 0 0 0.170868 0 0 0 0 0.225854 0 0 0 0 0.445799 0 0 0 0.05 0"/>
<feBlend mode="normal" in2="effect2_dropShadow_455_2819" result="effect3_dropShadow_455_2819"/>
<feColorMatrix in="SourceAlpha" type="matrix" values="0 0 0 0 0 0 0 0 0 0 0 0 0 0 0 0 0 0 127 0" result="hardAlpha"/>
<feOffset/>
<feGaussianBlur stdDeviation="0.5"/>
<feColorMatrix type="matrix" values="0 0 0 0 0.170868 0 0 0 0 0.225854 0 0 0 0 0.445799 0 0 0 0.05 0"/>
<feBlend mode="normal" in2="effect3_dropShadow_455_2819" result="effect4_dropShadow_455_2819"/>
<feBlend mode="normal" in="SourceGraphic" in2="effect4_dropShadow_455_2819" result="shape"/>
</filter>
</defs>
</svg>
