<svg width="392" height="285" viewBox="0 0 392 285" fill="none" xmlns="http://www.w3.org/2000/svg">
<g filter="url(#filter0_dddd_524_9614)">
<rect x="32" y="10" width="327.952" height="220.7" rx="12" fill="#171C2F"/>
<rect x="32.5" y="10.5" width="326.952" height="219.7" rx="11.5" stroke="#2B324A"/>
<rect x="53.1156" y="28.1753" width="77.2039" height="9.73678" rx="4.86839" fill="#2B324A"/>
<rect x="53.2687" y="44.6681" width="131.973" height="7.78942" rx="3.89471" fill="#2B324A"/>
<path d="M53.2687 68.4207L338.713 68.4206" stroke="#2B324A" stroke-width="0.80062"/>
<rect x="53.1156" y="83.9995" width="12.5374" height="5.19295" rx="2.59647" fill="#2B324A"/>
<rect x="53.1156" y="97.631" width="12.5374" height="5.19295" rx="2.59647" fill="#2B324A"/>
<rect x="53.1156" y="111.263" width="12.5374" height="5.19295" rx="2.59647" fill="#2B324A"/>
<rect x="53.1156" y="124.894" width="12.5374" height="5.19295" rx="2.59647" fill="#2B324A"/>
<rect x="53.1156" y="138.526" width="12.5374" height="5.19294" rx="2.59647" fill="#2B324A"/>
<rect x="53.1156" y="152.157" width="12.5374" height="5.19295" rx="2.59647" fill="#2B324A"/>
<rect x="53.1156" y="165.788" width="12.5374" height="5.19295" rx="2.59647" fill="#2B324A"/>
<rect x="96.7664" y="176.499" width="8.04171" height="4.48711" rx="2.24356" fill="#2B324A"/>
<rect x="139.558" y="176.823" width="7.91835" height="3.89471" rx="1.94735" fill="#2B324A"/>
<rect x="183.769" y="176.823" width="7.91835" height="3.89471" rx="1.94735" fill="#2B324A"/>
<rect x="223.36" y="176.823" width="7.91835" height="3.89471" rx="1.94735" fill="#2B324A"/>
<rect x="267.571" y="176.823" width="7.91835" height="3.89471" rx="1.94735" fill="#2B324A"/>
<rect x="312.442" y="176.823" width="7.91837" height="3.89471" rx="1.94735" fill="#2B324A"/>
<rect x="80.0306" y="84.3998" width="258.282" height="86.3438" stroke="#2B324A" stroke-width="0.80062"/>
<path d="M79.6302 112.7H338.713" stroke="#2B324A" stroke-width="0.80062"/>
<path d="M79.6302 98.6106H338.713" stroke="#2B324A" stroke-width="0.80062"/>
<path d="M79.6302 126.789H338.713" stroke="#2B324A" stroke-width="0.80062"/>
<path d="M79.6302 140.878H338.713" stroke="#2B324A" stroke-width="0.80062"/>
<path d="M79.6302 154.967H338.713" stroke="#2B324A" stroke-width="0.80062"/>
<path d="M123.215 83.9995L123.215 171.144" stroke="#2B324A" stroke-width="0.80062"/>
<path d="M165.991 83.9995L165.991 171.144" stroke="#2B324A" stroke-width="0.80062"/>
<path d="M208.768 83.9995L208.768 171.144" stroke="#2B324A" stroke-width="0.80062"/>
<path d="M251.545 83.9995L251.545 171.144" stroke="#2B324A" stroke-width="0.80062"/>
<path d="M294.322 83.9995L294.322 171.144" stroke="#2B324A" stroke-width="0.80062"/>
<rect x="85.8993" y="127.141" width="29.7767" height="24.6791" fill="#5A78E5"/>
<rect x="85.8993" y="151.82" width="29.7767" height="6.73068" fill="#B59DF9"/>
<rect x="85.8993" y="158.55" width="29.7767" height="3.36535" fill="#FDAED0"/>
<rect x="128.039" y="127.141" width="31.3439" height="3.36534" fill="#FDAED0"/>
<rect x="172.095" y="84.5129" width="29.7767" height="14.5831" fill="#FDAED0"/>
<rect x="214.409" y="148.454" width="29.7767" height="6.73067" fill="#FDAED0"/>
<rect x="256.723" y="92.3654" width="31.3439" height="14.5831" fill="#FDAED0"/>
<rect x="300.605" y="127.141" width="29.7767" height="3.36534" fill="#FDAED0"/>
<rect x="128.039" y="106.948" width="31.3439" height="5.6089" fill="#B59DF9"/>
<rect x="172.095" y="99.0959" width="29.7767" height="20.192" fill="#B59DF9"/>
<rect x="214.409" y="142.846" width="29.7767" height="5.60889" fill="#B59DF9"/>
<rect x="256.723" y="106.948" width="31.3439" height="13.4613" fill="#B59DF9"/>
<rect x="300.605" y="92.3655" width="29.7767" height="3.36534" fill="#B59DF9"/>
<rect x="128.039" y="112.557" width="31.3439" height="14.5831" fill="#5A78E5"/>
<rect x="172.095" y="119.288" width="29.7767" height="7.85245" fill="#5A78E5"/>
<rect x="214.409" y="127.141" width="29.7767" height="15.7049" fill="#5A78E5"/>
<rect x="256.723" y="120.41" width="31.3439" height="6.73067" fill="#5A78E5"/>
<path d="M300.605 95.7308H330.381V127.141H300.605V95.7308Z" fill="#5A78E5"/>
<rect x="53.2687" y="203.437" width="3.95918" height="3.89471" rx="1.94735" fill="#5A78E5"/>
<rect x="61.6938" y="202.139" width="27.7142" height="6.49118" rx="3.24559" fill="#2B324A"/>
<rect x="105.356" y="203.437" width="3.95918" height="3.89471" rx="1.94735" fill="#B59DF9"/>
<rect x="113.823" y="202.139" width="27.7142" height="6.49118" rx="3.24559" fill="#2B324A"/>
<rect x="157.444" y="203.437" width="3.95918" height="3.89471" rx="1.94735" fill="#FDAED0"/>
<rect x="165.952" y="202.139" width="27.7142" height="6.49118" rx="3.24559" fill="#2B324A"/>
</g>
<defs>
<filter id="filter0_dddd_524_9614" x="0" y="0" width="391.952" height="284.7" filterUnits="userSpaceOnUse" color-interpolation-filters="sRGB">
<feFlood flood-opacity="0" result="BackgroundImageFix"/>
<feColorMatrix in="SourceAlpha" type="matrix" values="0 0 0 0 0 0 0 0 0 0 0 0 0 0 0 0 0 0 127 0" result="hardAlpha"/>
<feOffset dy="22"/>
<feGaussianBlur stdDeviation="16"/>
<feColorMatrix type="matrix" values="0 0 0 0 0.170868 0 0 0 0 0.225854 0 0 0 0 0.445799 0 0 0 0.05 0"/>
<feBlend mode="normal" in2="BackgroundImageFix" result="effect1_dropShadow_524_9614"/>
<feColorMatrix in="SourceAlpha" type="matrix" values="0 0 0 0 0 0 0 0 0 0 0 0 0 0 0 0 0 0 127 0" result="hardAlpha"/>
<feOffset dy="18"/>
<feGaussianBlur stdDeviation="10"/>
<feColorMatrix type="matrix" values="0 0 0 0 0.170868 0 0 0 0 0.225854 0 0 0 0 0.445799 0 0 0 0.05 0"/>
<feBlend mode="normal" in2="effect1_dropShadow_524_9614" result="effect2_dropShadow_524_9614"/>
<feColorMatrix in="SourceAlpha" type="matrix" values="0 0 0 0 0 0 0 0 0 0 0 0 0 0 0 0 0 0 127 0" result="hardAlpha"/>
<feOffset dy="6"/>
<feGaussianBlur stdDeviation="4"/>
<feColorMatrix type="matrix" values="0 0 0 0 0.170868 0 0 0 0 0.225854 0 0 0 0 0.445799 0 0 0 0.05 0"/>
<feBlend mode="normal" in2="effect2_dropShadow_524_9614" result="effect3_dropShadow_524_9614"/>
<feColorMatrix in="SourceAlpha" type="matrix" values="0 0 0 0 0 0 0 0 0 0 0 0 0 0 0 0 0 0 127 0" result="hardAlpha"/>
<feOffset/>
<feGaussianBlur stdDeviation="0.5"/>
<feColorMatrix type="matrix" values="0 0 0 0 0.170868 0 0 0 0 0.225854 0 0 0 0 0.445799 0 0 0 0.05 0"/>
<feBlend mode="normal" in2="effect3_dropShadow_524_9614" result="effect4_dropShadow_524_9614"/>
<feBlend mode="normal" in="SourceGraphic" in2="effect4_dropShadow_524_9614" result="shape"/>
</filter>
</defs>
</svg>
