<svg width="289" height="273" viewBox="0 0 289 273" fill="none" xmlns="http://www.w3.org/2000/svg">
<g filter="url(#filter0_dddd_524_9323)">
<path d="M32 22C32 15.3726 37.3726 10 44 10H244.312C250.94 10 256.312 15.3726 256.312 22V206.037C256.312 212.665 250.94 218.037 244.312 218.037H44C37.3726 218.037 32 212.665 32 206.037V22Z" fill="#171C2F"/>
<path d="M44 10.5H244.312C250.664 10.5002 255.812 15.6488 255.812 22V206.037C255.812 212.388 250.664 217.537 244.312 217.537H44C37.6487 217.537 32.5 212.388 32.5 206.037V22L32.5146 21.4082C32.8227 15.3319 37.8472 10.5 44 10.5Z" stroke="#2B324A"/>
<path d="M214.188 52.375C213.887 52.375 213.606 52.3509 213.343 52.3027C213.083 52.2581 212.869 52.2006 212.698 52.1302L213.232 50.3608C213.51 50.4461 213.76 50.4925 213.982 50.4999C214.208 50.5074 214.402 50.4554 214.565 50.3441C214.732 50.2329 214.867 50.0437 214.971 49.7766L215.11 49.415L212.048 40.6239H214.538L216.305 46.9001H216.394L218.178 40.6239H220.684L217.366 50.0938C217.207 50.5537 216.99 50.9543 216.716 51.2956C216.446 51.6405 216.103 51.9058 215.688 52.0912C215.273 52.2804 214.773 52.375 214.188 52.375Z" fill="#D3D6E2"/>
<path d="M211.184 40.6239V42.4044H206.043V40.6239H211.184ZM207.21 38.5764H209.578V46.544C209.578 46.7628 209.611 46.9334 209.678 47.0558C209.744 47.1745 209.837 47.258 209.956 47.3062C210.078 47.3544 210.219 47.3785 210.378 47.3785C210.489 47.3785 210.6 47.3693 210.711 47.3507C210.823 47.3285 210.908 47.3118 210.967 47.3007L211.339 49.0644C211.221 49.1015 211.054 49.1442 210.839 49.1924C210.624 49.2443 210.363 49.2759 210.056 49.287C209.485 49.3092 208.985 49.2332 208.555 49.0589C208.129 48.8845 207.798 48.6137 207.56 48.2465C207.323 47.8793 207.207 47.4156 207.21 46.8555V38.5764Z" fill="#D3D6E2"/>
<path d="M202.379 49.1701V40.6239H204.747V49.1701H202.379ZM203.569 39.5223C203.217 39.5223 202.915 39.4054 202.663 39.1717C202.415 38.9343 202.291 38.6506 202.291 38.3205C202.291 37.994 202.415 37.714 202.663 37.4803C202.915 37.2429 203.217 37.1242 203.569 37.1242C203.921 37.1242 204.221 37.2429 204.469 37.4803C204.721 37.714 204.847 37.994 204.847 38.3205C204.847 38.6506 204.721 38.9343 204.469 39.1717C204.221 39.4054 203.921 39.5223 203.569 39.5223Z" fill="#D3D6E2"/>
<path d="M201.168 40.6239L198.184 49.1702H195.516L192.532 40.6239H195.033L196.805 46.7387H196.894L198.662 40.6239H201.168Z" fill="#D3D6E2"/>
<path d="M188.946 49.1701V40.6239H191.313V49.1701H188.946ZM190.135 39.5223C189.783 39.5223 189.481 39.4054 189.229 39.1717C188.981 38.9343 188.857 38.6506 188.857 38.3205C188.857 37.994 188.981 37.714 189.229 37.4803C189.481 37.2429 189.783 37.1242 190.135 37.1242C190.487 37.1242 190.787 37.2429 191.035 37.4803C191.287 37.714 191.413 37.994 191.413 38.3205C191.413 38.6506 191.287 38.9343 191.035 39.1717C190.787 39.4054 190.487 39.5223 190.135 39.5223Z" fill="#D3D6E2"/>
<path d="M187.404 40.6239V42.4044H182.263V40.6239H187.404ZM183.43 38.5764H185.798V46.544C185.798 46.7628 185.831 46.9334 185.898 47.0558C185.964 47.1745 186.057 47.258 186.175 47.3062C186.298 47.3544 186.439 47.3785 186.598 47.3785C186.709 47.3785 186.82 47.3693 186.931 47.3507C187.042 47.3285 187.128 47.3118 187.187 47.3007L187.559 49.0644C187.441 49.1015 187.274 49.1442 187.059 49.1924C186.844 49.2443 186.583 49.2759 186.276 49.287C185.705 49.3092 185.205 49.2332 184.775 49.0589C184.349 48.8845 184.017 48.6137 183.78 48.2465C183.543 47.8793 183.426 47.4156 183.43 46.8555V38.5764Z" fill="#D3D6E2"/>
<path d="M177.535 49.3371C176.661 49.3371 175.909 49.1516 175.279 48.7807C174.653 48.406 174.171 47.8867 173.834 47.2228C173.5 46.5588 173.334 45.7947 173.334 44.9304C173.334 44.055 173.502 43.2872 173.839 42.627C174.18 41.963 174.664 41.4456 175.29 41.0746C175.916 40.7 176.661 40.5127 177.524 40.5127C178.269 40.5127 178.921 40.6481 179.48 40.9188C180.04 41.1896 180.482 41.5698 180.808 42.0594C181.134 42.5491 181.314 43.124 181.347 43.7843H179.113C179.05 43.3577 178.884 43.0146 178.613 42.7549C178.346 42.4916 177.996 42.3599 177.563 42.3599C177.196 42.3599 176.876 42.46 176.601 42.6603C176.331 42.8569 176.12 43.1444 175.968 43.5228C175.816 43.9011 175.74 44.3592 175.74 44.8971C175.74 45.4423 175.814 45.906 175.962 46.288C176.114 46.6701 176.327 46.9613 176.601 47.1616C176.876 47.3619 177.196 47.462 177.563 47.462C177.833 47.462 178.076 47.4064 178.291 47.2951C178.509 47.1838 178.689 47.0225 178.83 46.811C178.974 46.5959 179.069 46.3381 179.113 46.0377H181.347C181.31 46.6905 181.133 47.2654 180.814 47.7625C180.499 48.2558 180.064 48.6416 179.508 48.9198C178.952 49.198 178.295 49.3371 177.535 49.3371Z" fill="#D3D6E2"/>
<path d="M167.034 49.3315C166.49 49.3315 166.004 49.2369 165.578 49.0478C165.152 48.8549 164.815 48.5711 164.567 48.1965C164.322 47.8181 164.2 47.347 164.2 46.7832C164.2 46.3084 164.287 45.9097 164.461 45.587C164.635 45.2643 164.873 45.0046 165.173 44.808C165.473 44.6114 165.814 44.4631 166.195 44.3629C166.581 44.2628 166.984 44.1923 167.407 44.1515C167.903 44.0996 168.303 44.0513 168.607 44.0068C168.911 43.9586 169.131 43.8881 169.268 43.7954C169.406 43.7027 169.474 43.5654 169.474 43.3837V43.3503C169.474 42.9979 169.363 42.7253 169.141 42.5324C168.922 42.3395 168.611 42.2431 168.207 42.2431C167.781 42.2431 167.442 42.3376 167.19 42.5268C166.938 42.7123 166.771 42.946 166.69 43.2279L164.5 43.0498C164.611 42.5305 164.83 42.0817 165.156 41.7033C165.482 41.3213 165.902 41.0283 166.417 40.8242C166.936 40.6165 167.536 40.5127 168.218 40.5127C168.692 40.5127 169.146 40.5683 169.58 40.6796C170.017 40.7909 170.404 40.9633 170.741 41.197C171.082 41.4307 171.351 41.7312 171.547 42.0984C171.743 42.4619 171.842 42.8977 171.842 43.4059V49.1702H169.596V47.985H169.53C169.393 48.2521 169.209 48.4877 168.979 48.6917C168.75 48.892 168.474 49.0496 168.151 49.1646C167.829 49.2759 167.457 49.3315 167.034 49.3315ZM167.712 47.6957C168.061 47.6957 168.368 47.6271 168.635 47.4899C168.902 47.3489 169.111 47.1597 169.263 46.9223C169.415 46.6849 169.491 46.416 169.491 46.1156V45.2086C169.417 45.2569 169.315 45.3014 169.185 45.3422C169.059 45.3793 168.916 45.4145 168.757 45.4479C168.598 45.4776 168.439 45.5054 168.279 45.5313C168.12 45.5536 167.975 45.574 167.846 45.5925C167.568 45.6333 167.325 45.6983 167.118 45.7873C166.91 45.8763 166.749 45.9969 166.634 46.1489C166.519 46.2973 166.462 46.4828 166.462 46.7053C166.462 47.028 166.579 47.2747 166.812 47.4453C167.049 47.6123 167.349 47.6957 167.712 47.6957Z" fill="#D3D6E2"/>
<path d="M153.27 52.375C152.97 52.375 152.688 52.3509 152.425 52.3027C152.166 52.2581 151.951 52.2006 151.781 52.1302L152.314 50.3608C152.592 50.4461 152.842 50.4925 153.064 50.4999C153.29 50.5074 153.485 50.4554 153.648 50.3441C153.815 50.2329 153.95 50.0437 154.054 49.7766L154.193 49.415L151.13 40.6239H153.62L155.387 46.9001H155.476L157.26 40.6239H159.767L156.449 50.0938C156.29 50.5537 156.073 50.9543 155.799 51.2956C155.528 51.6405 155.185 51.9058 154.77 52.0912C154.356 52.2804 153.855 52.375 153.27 52.375Z" fill="#D3D6E2"/>
<path d="M149.912 37.7752V49.1701H147.544V37.7752H149.912Z" fill="#D3D6E2"/>
<path d="M140.581 46.7109L140.587 43.8677H140.931L143.665 40.6239H146.383L142.71 44.9193H142.148L140.581 46.7109ZM138.436 49.1701V37.7752H140.803V49.1701H138.436ZM143.771 49.1701L141.259 45.4479L142.837 43.7731L146.544 49.1701H143.771Z" fill="#D3D6E2"/>
<path d="M132.973 49.3371C132.095 49.3371 131.339 49.159 130.705 48.8029C130.076 48.4431 129.59 47.935 129.249 47.2784C128.909 46.6182 128.738 45.8374 128.738 44.936C128.738 44.0569 128.909 43.2854 129.249 42.6214C129.59 41.9574 130.07 41.44 130.689 41.0691C131.311 40.6981 132.041 40.5127 132.878 40.5127C133.442 40.5127 133.966 40.6035 134.451 40.7853C134.94 40.9633 135.366 41.2323 135.729 41.5921C136.096 41.9519 136.381 42.4044 136.585 42.9497C136.789 43.4912 136.891 44.1255 136.891 44.8525V45.5035H129.683V44.0346H134.662C134.662 43.6934 134.588 43.3911 134.44 43.1277C134.292 42.8644 134.086 42.6585 133.823 42.5101C133.564 42.358 133.262 42.282 132.917 42.282C132.558 42.282 132.239 42.3655 131.961 42.5324C131.687 42.6956 131.472 42.9163 131.317 43.1945C131.161 43.469 131.082 43.775 131.078 44.1125V45.5091C131.078 45.9319 131.156 46.2973 131.311 46.6052C131.471 46.9131 131.695 47.1505 131.984 47.3174C132.273 47.4843 132.615 47.5677 133.012 47.5677C133.275 47.5677 133.516 47.5307 133.734 47.4565C133.953 47.3823 134.14 47.271 134.296 47.1226C134.451 46.9743 134.57 46.7925 134.651 46.5774L136.841 46.722C136.73 47.2487 136.502 47.7087 136.157 48.1019C135.816 48.4914 135.376 48.7955 134.835 49.0144C134.297 49.2295 133.677 49.3371 132.973 49.3371Z" fill="#D3D6E2"/>
<path d="M123.62 49.3371C122.742 49.3371 121.986 49.159 121.352 48.8029C120.722 48.4431 120.237 47.935 119.896 47.2784C119.555 46.6182 119.385 45.8374 119.385 44.936C119.385 44.0569 119.555 43.2854 119.896 42.6214C120.237 41.9574 120.717 41.44 121.336 41.0691C121.958 40.6981 122.688 40.5127 123.525 40.5127C124.088 40.5127 124.613 40.6035 125.098 40.7853C125.587 40.9633 126.013 41.2323 126.376 41.5921C126.743 41.9519 127.028 42.4044 127.232 42.9497C127.436 43.4912 127.538 44.1255 127.538 44.8525V45.5035H120.33V44.0346H125.309C125.309 43.6934 125.235 43.3911 125.087 43.1277C124.939 42.8644 124.733 42.6585 124.47 42.5101C124.211 42.358 123.909 42.282 123.564 42.282C123.205 42.282 122.886 42.3655 122.608 42.5324C122.334 42.6956 122.119 42.9163 121.964 43.1945C121.808 43.469 121.728 43.775 121.725 44.1125V45.5091C121.725 45.9319 121.802 46.2973 121.958 46.6052C122.117 46.9131 122.342 47.1505 122.631 47.3174C122.92 47.4843 123.262 47.5677 123.659 47.5677C123.922 47.5677 124.163 47.5307 124.381 47.4565C124.6 47.3823 124.787 47.271 124.942 47.1226C125.098 46.9743 125.217 46.7925 125.298 46.5774L127.488 46.722C127.377 47.2487 127.149 47.7087 126.804 48.1019C126.463 48.4914 126.022 48.7955 125.481 49.0144C124.944 49.2295 124.324 49.3371 123.62 49.3371Z" fill="#D3D6E2"/>
<path d="M108.316 49.1702L105.993 40.6239H108.388L109.711 46.3659H109.789L111.167 40.6239H113.518L114.918 46.3325H114.99L116.291 40.6239H118.681L116.363 49.1702H113.857L112.39 43.7954H112.284L110.817 49.1702H108.316Z" fill="#D3D6E2"/>
<path d="M96.6066 49.1702V40.6239H98.9018V42.1151H98.9907C99.1463 41.5846 99.4075 41.184 99.7743 40.9133C100.141 40.6388 100.563 40.5015 101.041 40.5015C101.16 40.5015 101.288 40.5089 101.425 40.5238C101.562 40.5386 101.682 40.559 101.786 40.585V42.6882C101.675 42.6548 101.521 42.6251 101.325 42.5991C101.128 42.5732 100.949 42.5602 100.786 42.5602C100.437 42.5602 100.126 42.6362 99.8521 42.7883C99.5816 42.9367 99.3668 43.1444 99.2074 43.4115C99.0518 43.6785 98.974 43.9864 98.974 44.3351V49.1702H96.6066Z" fill="#D3D6E2"/>
<path d="M92.3454 45.5313V40.6239H94.7129V49.1702H92.4399V47.6178H92.351C92.1583 48.1186 91.8378 48.521 91.3895 48.8252C90.9449 49.1293 90.4022 49.2814 89.7612 49.2814C89.1906 49.2814 88.6886 49.1516 88.2551 48.892C87.8217 48.6323 87.4827 48.2632 87.2381 47.7847C86.9973 47.3062 86.875 46.7331 86.8713 46.0655V40.6239H89.2388V45.6426C89.2425 46.1471 89.3777 46.5458 89.6445 46.8389C89.9112 47.1319 90.2688 47.2784 90.7171 47.2784C91.0024 47.2784 91.2691 47.2135 91.5173 47.0837C91.7656 46.9501 91.9656 46.7535 92.1175 46.4939C92.2731 46.2342 92.3491 45.9134 92.3454 45.5313Z" fill="#D3D6E2"/>
<path d="M81.1306 49.3371C80.2674 49.3371 79.5208 49.1535 78.891 48.7863C78.2648 48.4153 77.7813 47.8997 77.4405 47.2395C77.0996 46.5755 76.9292 45.8058 76.9292 44.9304C76.9292 44.0476 77.0996 43.2761 77.4405 42.6158C77.7813 41.9519 78.2648 41.4363 78.891 41.0691C79.5208 40.6981 80.2674 40.5127 81.1306 40.5127C81.9939 40.5127 82.7386 40.6981 83.3647 41.0691C83.9945 41.4363 84.4799 41.9519 84.8207 42.6158C85.1616 43.2761 85.332 44.0476 85.332 44.9304C85.332 45.8058 85.1616 46.5755 84.8207 47.2395C84.4799 47.8997 83.9945 48.4153 83.3647 48.7863C82.7386 49.1535 81.9939 49.3371 81.1306 49.3371ZM81.1417 47.501C81.5344 47.501 81.8623 47.3897 82.1254 47.1671C82.3884 46.9409 82.5867 46.633 82.72 46.2435C82.8571 45.8541 82.9257 45.4108 82.9257 44.9137C82.9257 44.4167 82.8571 43.9734 82.72 43.584C82.5867 43.1945 82.3884 42.8866 82.1254 42.6603C81.8623 42.4341 81.5344 42.3209 81.1417 42.3209C80.7453 42.3209 80.4118 42.4341 80.1414 42.6603C79.8746 42.8866 79.6727 43.1945 79.5356 43.584C79.4023 43.9734 79.3356 44.4167 79.3356 44.9137C79.3356 45.4108 79.4023 45.8541 79.5356 46.2435C79.6727 46.633 79.8746 46.9409 80.1414 47.1671C80.4118 47.3897 80.7453 47.501 81.1417 47.501Z" fill="#D3D6E2"/>
<path d="M67.0995 37.7752H69.7948L72.3901 42.6826H72.5013L75.0966 37.7752H77.792L73.6406 45.1418V49.1701H71.2509V45.1418L67.0995 37.7752Z" fill="#D3D6E2"/>
<path d="M98.0764 75.2836C98.0764 73.8414 99.2456 72.6723 100.688 72.6723H187.624C189.067 72.6723 190.236 73.8414 190.236 75.2836C190.236 76.7258 189.067 77.895 187.624 77.895H100.688C99.2456 77.895 98.0764 76.7258 98.0764 75.2836Z" fill="#3C4561"/>
<path d="M101.238 102.866C100.702 102.866 100.229 102.776 99.8186 102.595C99.4082 102.407 99.0848 102.142 98.8483 101.801C98.6118 101.453 98.4901 101.031 98.4832 100.537H99.8916C99.9055 100.878 100.027 101.167 100.257 101.404C100.493 101.634 100.817 101.749 101.227 101.749C101.582 101.749 101.863 101.665 102.072 101.498C102.281 101.324 102.385 101.094 102.385 100.809C102.385 100.509 102.291 100.276 102.103 100.109C101.923 99.9417 101.679 99.8059 101.373 99.7014C101.067 99.597 100.74 99.4856 100.392 99.3672C99.829 99.1722 99.3978 98.9215 99.0987 98.6151C98.8066 98.3087 98.6605 97.9013 98.6605 97.393C98.6536 96.9613 98.7544 96.5922 98.9631 96.2858C99.1787 95.9724 99.4708 95.7322 99.8395 95.5651C100.208 95.391 100.632 95.3039 101.112 95.3039C101.599 95.3039 102.027 95.391 102.396 95.5651C102.771 95.7391 103.063 95.9829 103.272 96.2962C103.488 96.6096 103.602 96.9821 103.616 97.4139H102.187C102.18 97.1562 102.079 96.9299 101.884 96.7349C101.697 96.533 101.432 96.432 101.091 96.432C100.799 96.4251 100.552 96.4982 100.351 96.6514C100.156 96.7976 100.059 97.0135 100.059 97.299C100.059 97.5427 100.135 97.7377 100.288 97.8839C100.441 98.0232 100.65 98.1416 100.914 98.2391C101.178 98.3366 101.481 98.441 101.822 98.5524C102.183 98.6778 102.514 98.824 102.813 98.9911C103.112 99.1583 103.352 99.3811 103.533 99.6596C103.714 99.9312 103.804 100.283 103.804 100.715C103.804 101.098 103.707 101.453 103.512 101.78C103.317 102.107 103.029 102.372 102.646 102.574C102.263 102.769 101.794 102.866 101.238 102.866Z" fill="#9198B7"/>
<path d="M93.3135 102.741V95.4293H94.6489V101.696H97.8832V102.741H93.3135Z" fill="#9198B7"/>
<path d="M90.5625 102.741V95.4293H91.8979V102.741H90.5625Z" fill="#9198B7"/>
<path d="M82.7776 102.741L85.4485 95.4293H86.9508L89.6217 102.741H88.2028L87.6186 101.049H84.7703L84.1756 102.741H82.7776ZM85.1355 100.004H87.2534L86.1892 96.9647L85.1355 100.004Z" fill="#9198B7"/>
<path d="M74.0366 102.741V95.4293H75.6225L77.949 100.067L80.2443 95.4293H81.8302V102.741H80.4947V97.6959L78.4603 101.696H77.4065L75.3721 97.6959V102.741H74.0366Z" fill="#9198B7"/>
<path d="M68.005 102.741V95.4293H72.7729V96.5051H69.3404V98.5106H72.46V99.5552H69.3404V101.665H72.7729V102.741H68.005Z" fill="#9198B7"/>
<path d="M86.3488 139.707L93.4642 123.76H84.1656V120.819H97.0219V123.274L89.9334 139.707H86.3488Z" fill="#EDEEF3"/>
<path d="M77.9574 139.436V124.487L74.8579 125.215V122.571L79.4128 120.547H81.5421V139.436H77.9574Z" fill="#EDEEF3"/>
<path d="M79.3532 160.676L74.6116 166.968C74.115 167.626 74.5851 168.569 75.4102 168.569H84.4982C85.3044 168.569 85.7792 167.664 85.3209 167.001L80.9745 160.709C80.5869 160.148 79.7636 160.131 79.3532 160.676Z" fill="#387FF5"/>
<path d="M95.1706 168.069V166.545H91.0426V165.261L94.9546 159.669H96.7906V165.141H97.8826V166.545H96.7906V168.069H95.1706ZM92.7706 165.141H95.2786V161.457L92.7706 165.141Z" fill="#EDEEF3"/>
<path d="M149.896 102.866C149.36 102.866 148.887 102.776 148.477 102.595C148.067 102.407 147.743 102.142 147.507 101.801C147.27 101.453 147.149 101.031 147.142 100.537H148.55C148.564 100.878 148.686 101.167 148.915 101.404C149.152 101.634 149.475 101.749 149.886 101.749C150.24 101.749 150.522 101.665 150.731 101.498C150.939 101.324 151.044 101.094 151.044 100.809C151.044 100.509 150.95 100.276 150.762 100.109C150.581 99.9417 150.338 99.8059 150.032 99.7014C149.726 99.597 149.399 99.4856 149.051 99.3672C148.487 99.1722 148.056 98.9215 147.757 98.6151C147.465 98.3087 147.319 97.9013 147.319 97.393C147.312 96.9613 147.413 96.5922 147.622 96.2858C147.837 95.9724 148.129 95.7322 148.498 95.5651C148.867 95.391 149.291 95.3039 149.771 95.3039C150.258 95.3039 150.685 95.391 151.054 95.5651C151.43 95.7391 151.722 95.9829 151.93 96.2962C152.146 96.6096 152.261 96.9821 152.275 97.4139H150.845C150.838 97.1562 150.738 96.9299 150.543 96.7349C150.355 96.533 150.091 96.432 149.75 96.432C149.458 96.4251 149.211 96.4982 149.009 96.6514C148.814 96.7976 148.717 97.0135 148.717 97.299C148.717 97.5427 148.794 97.7377 148.947 97.8839C149.1 98.0232 149.308 98.1416 149.573 98.2391C149.837 98.3366 150.139 98.441 150.48 98.5524C150.842 98.6778 151.172 98.824 151.471 98.9911C151.77 99.1583 152.01 99.3811 152.191 99.6596C152.372 99.9312 152.462 100.283 152.462 100.715C152.462 101.098 152.365 101.453 152.17 101.78C151.976 102.107 151.687 102.372 151.304 102.574C150.922 102.769 150.452 102.866 149.896 102.866Z" fill="#9198B7"/>
<path d="M141.972 102.741V95.4293H143.307V101.696H146.542V102.741H141.972Z" fill="#9198B7"/>
<path d="M136.225 102.741V95.4293H137.561V101.696H140.795V102.741H136.225Z" fill="#9198B7"/>
<path d="M128.441 102.741L131.111 95.4293H132.614L135.285 102.741H133.866L133.282 101.049H130.433L129.839 102.741H128.441ZM130.798 100.004H132.916L131.852 96.9647L130.798 100.004Z" fill="#9198B7"/>
<path d="M124.617 102.866C123.879 102.866 123.247 102.71 122.718 102.396C122.189 102.076 121.782 101.634 121.497 101.07C121.212 100.499 121.069 99.8407 121.069 99.0956C121.069 98.3505 121.212 97.6924 121.497 97.1214C121.782 96.5504 122.189 96.1047 122.718 95.7844C123.247 95.4641 123.879 95.3039 124.617 95.3039C125.493 95.3039 126.21 95.5233 126.766 95.962C127.329 96.3937 127.681 97.003 127.82 97.7899H126.349C126.258 97.393 126.063 97.0831 125.764 96.8603C125.472 96.6305 125.083 96.5156 124.596 96.5156C123.921 96.5156 123.393 96.7454 123.01 97.205C122.627 97.6646 122.436 98.2948 122.436 99.0956C122.436 99.8964 122.627 100.527 123.01 100.986C123.393 101.439 123.921 101.665 124.596 101.665C125.083 101.665 125.472 101.561 125.764 101.352C126.063 101.136 126.258 100.84 126.349 100.464H127.82C127.681 101.216 127.329 101.804 126.766 102.229C126.21 102.654 125.493 102.866 124.617 102.866Z" fill="#9198B7"/>
<path d="M144.707 140.083C143.324 140.083 142.129 139.84 141.123 139.355C140.134 138.869 139.353 138.203 138.778 137.358C138.221 136.494 137.897 135.523 137.808 134.444H141.177C141.338 135.217 141.734 135.865 142.363 136.386C142.991 136.89 143.773 137.142 144.707 137.142C145.714 137.142 146.531 136.773 147.16 136.036C147.807 135.298 148.13 134.381 148.13 133.283C148.13 132.15 147.807 131.251 147.16 130.585C146.531 129.919 145.732 129.587 144.761 129.587C143.953 129.587 143.252 129.784 142.659 130.18C142.066 130.576 141.644 131.071 141.392 131.664H138.077L139.694 120.871H150.152V123.893H142.282L141.419 128.264C141.815 127.833 142.354 127.482 143.036 127.212C143.719 126.924 144.483 126.78 145.327 126.78C146.675 126.78 147.798 127.086 148.696 127.698C149.595 128.291 150.278 129.083 150.745 130.072C151.212 131.044 151.445 132.105 151.445 133.256C151.445 134.57 151.158 135.739 150.583 136.764C150.026 137.79 149.235 138.599 148.211 139.193C147.205 139.786 146.037 140.083 144.707 140.083Z" fill="#EDEEF3"/>
<path d="M122.087 139.759V137.25C123.237 136.297 124.351 135.352 125.429 134.417C126.525 133.481 127.495 132.555 128.34 131.637C129.202 130.72 129.885 129.829 130.388 128.966C130.909 128.084 131.17 127.23 131.17 126.402C131.17 125.629 130.954 124.945 130.523 124.352C130.109 123.758 129.418 123.461 128.447 123.461C127.459 123.461 126.713 123.785 126.21 124.433C125.707 125.08 125.456 125.863 125.456 126.78H122.114C122.15 125.395 122.455 124.244 123.03 123.326C123.605 122.391 124.369 121.698 125.321 121.249C126.273 120.781 127.342 120.547 128.528 120.547C130.451 120.547 131.942 121.078 133.002 122.139C134.08 123.182 134.619 124.541 134.619 126.214C134.619 127.257 134.377 128.273 133.892 129.263C133.425 130.252 132.805 131.206 132.032 132.123C131.259 133.04 130.424 133.904 129.525 134.713C128.627 135.505 127.756 136.243 126.911 136.926H135.078V139.759H122.087Z" fill="#EDEEF3"/>
<path d="M130.715 161.324L125.973 167.615C125.477 168.274 125.947 169.217 126.772 169.217H135.86C136.666 169.217 137.141 168.312 136.683 167.649L132.336 161.357C131.948 160.796 131.125 160.779 130.715 161.324Z" fill="#387FF5"/>
<path d="M143.454 168.717L146.454 161.697H142.386V160.317H148.122V161.457L145.134 168.717H143.454Z" fill="#EDEEF3"/>
<path d="M217.87 102.866C217.334 102.866 216.861 102.776 216.451 102.595C216.041 102.407 215.717 102.142 215.481 101.801C215.244 101.453 215.122 101.031 215.115 100.537H216.524C216.538 100.878 216.66 101.167 216.889 101.404C217.126 101.634 217.449 101.749 217.859 101.749C218.214 101.749 218.496 101.665 218.704 101.498C218.913 101.324 219.017 101.094 219.017 100.809C219.017 100.509 218.924 100.276 218.736 100.109C218.555 99.9417 218.311 99.8059 218.005 99.7014C217.699 99.597 217.373 99.4856 217.025 99.3672C216.461 99.1722 216.03 98.9215 215.731 98.6151C215.439 98.3087 215.293 97.9013 215.293 97.393C215.286 96.9613 215.387 96.5922 215.595 96.2858C215.811 95.9724 216.103 95.7322 216.472 95.5651C216.84 95.391 217.265 95.3039 217.745 95.3039C218.232 95.3039 218.659 95.391 219.028 95.5651C219.403 95.7391 219.696 95.9829 219.904 96.2962C220.12 96.6096 220.235 96.9821 220.249 97.4139H218.819C218.812 97.1562 218.711 96.9299 218.517 96.7349C218.329 96.533 218.065 96.432 217.724 96.432C217.432 96.4251 217.185 96.4982 216.983 96.6514C216.788 96.7976 216.691 97.0135 216.691 97.299C216.691 97.5427 216.767 97.7377 216.92 97.8839C217.073 98.0232 217.282 98.1416 217.546 98.2391C217.811 98.3366 218.113 98.441 218.454 98.5524C218.816 98.6778 219.146 98.824 219.445 98.9911C219.744 99.1583 219.984 99.3811 220.165 99.6596C220.346 99.9312 220.436 100.283 220.436 100.715C220.436 101.098 220.339 101.453 220.144 101.78C219.949 102.107 219.661 102.372 219.278 102.574C218.896 102.769 218.426 102.866 217.87 102.866Z" fill="#9198B7"/>
<path d="M210.5 102.866C209.811 102.866 209.209 102.71 208.695 102.396C208.18 102.083 207.78 101.648 207.495 101.091C207.21 100.527 207.067 99.872 207.067 99.1269C207.067 98.3749 207.213 97.7133 207.505 97.1423C207.804 96.5643 208.225 96.1152 208.768 95.7949C209.317 95.4676 209.967 95.3039 210.719 95.3039C211.574 95.3039 212.284 95.5094 212.847 95.9202C213.41 96.3311 213.776 96.8986 213.942 97.6228H212.451C212.339 97.2816 212.138 97.017 211.845 96.8289C211.553 96.634 211.178 96.5365 210.719 96.5365C209.988 96.5365 209.425 96.7698 209.028 97.2363C208.632 97.6959 208.434 98.3296 208.434 99.1374C208.434 99.9452 208.629 100.572 209.018 101.018C209.414 101.456 209.95 101.676 210.625 101.676C211.285 101.676 211.783 101.498 212.117 101.143C212.457 100.781 212.663 100.307 212.732 99.7223H210.886V98.7196H214.078V102.741H212.847L212.743 101.78C212.506 102.128 212.211 102.396 211.856 102.584C211.501 102.772 211.049 102.866 210.5 102.866Z" fill="#9198B7"/>
<path d="M199.788 102.741V95.4293H201.123L204.556 100.579V95.4293H205.891V102.741H204.556L201.123 97.6019V102.741H199.788Z" fill="#9198B7"/>
<path d="M197.037 102.741V95.4293H198.372V102.741H197.037Z" fill="#9198B7"/>
<path d="M192.573 102.741V96.5051H190.445V95.4293H196.048V96.5051H193.909V102.741H192.573Z" fill="#9198B7"/>
<path d="M184.841 102.741V95.4293H189.609V96.5051H186.177V98.5106H189.296V99.5552H186.177V101.665H189.609V102.741H184.841Z" fill="#9198B7"/>
<path d="M178.809 102.741V95.4293H183.577V96.5051H180.145V98.5106H183.264V99.5552H180.145V101.665H183.577V102.741H178.809Z" fill="#9198B7"/>
<path d="M169.599 102.741V95.4293H171.185L173.511 100.067L175.807 95.4293H177.393V102.741H176.057V97.6959L174.023 101.696H172.969L170.934 97.6959V102.741H169.599Z" fill="#9198B7"/>
<path d="M203.03 140.355C201.646 140.355 200.451 140.112 199.445 139.626C198.457 139.141 197.675 138.475 197.1 137.629C196.543 136.766 196.22 135.795 196.13 134.715H199.499C199.661 135.489 200.056 136.136 200.685 136.658C201.314 137.162 202.095 137.414 203.03 137.414C204.036 137.414 204.853 137.045 205.482 136.307C206.129 135.57 206.453 134.652 206.453 133.555C206.453 132.422 206.129 131.522 205.482 130.857C204.853 130.191 204.054 129.858 203.084 129.858C202.275 129.858 201.574 130.056 200.981 130.452C200.388 130.848 199.966 131.342 199.715 131.936H196.399L198.017 121.142H208.474V124.165H200.604L199.741 128.536C200.137 128.104 200.676 127.753 201.359 127.484C202.041 127.196 202.805 127.052 203.65 127.052C204.997 127.052 206.12 127.358 207.019 127.969C207.917 128.563 208.6 129.354 209.067 130.344C209.534 131.315 209.768 132.377 209.768 133.528C209.768 134.841 209.48 136.01 208.905 137.036C208.348 138.061 207.558 138.871 206.533 139.464C205.527 140.058 204.359 140.355 203.03 140.355Z" fill="#EDEEF3"/>
<path d="M180.409 140.031V137.522C181.559 136.568 182.673 135.624 183.751 134.688C184.847 133.753 185.817 132.826 186.662 131.909C187.524 130.991 188.207 130.101 188.71 129.237C189.231 128.356 189.492 127.502 189.492 126.674C189.492 125.9 189.276 125.217 188.845 124.623C188.432 124.03 187.74 123.733 186.77 123.733C185.781 123.733 185.036 124.057 184.533 124.704C184.03 125.352 183.778 126.134 183.778 127.052H180.436C180.472 125.667 180.777 124.515 181.352 123.598C181.927 122.662 182.691 121.97 183.643 121.52C184.596 121.052 185.665 120.819 186.851 120.819C188.773 120.819 190.264 121.349 191.325 122.411C192.403 123.454 192.942 124.812 192.942 126.485C192.942 127.529 192.699 128.545 192.214 129.534C191.747 130.524 191.127 131.477 190.354 132.395C189.582 133.312 188.746 134.176 187.848 134.985C186.949 135.777 186.078 136.514 185.233 137.198H193.4V140.031H180.409Z" fill="#EDEEF3"/>
<path d="M188.466 161.324L183.725 167.615C183.228 168.274 183.698 169.217 184.523 169.217H193.611C194.418 169.217 194.892 168.312 194.434 167.649L190.088 161.357C189.7 160.796 188.877 160.779 188.466 161.324Z" fill="#387FF5"/>
<path d="M200.632 168.717V167.529C201.152 167.121 201.656 166.713 202.144 166.305C202.632 165.897 203.068 165.493 203.452 165.093C203.844 164.685 204.152 164.289 204.376 163.905C204.608 163.521 204.724 163.149 204.724 162.789C204.724 162.565 204.68 162.361 204.592 162.177C204.512 161.985 204.384 161.833 204.208 161.721C204.032 161.601 203.8 161.541 203.512 161.541C203.232 161.541 202.992 161.605 202.792 161.733C202.6 161.861 202.452 162.033 202.348 162.249C202.252 162.457 202.204 162.693 202.204 162.957H200.644C200.66 162.341 200.796 161.825 201.052 161.409C201.316 160.993 201.664 160.685 202.096 160.485C202.536 160.277 203.024 160.173 203.56 160.173C204.152 160.173 204.652 160.285 205.06 160.509C205.476 160.725 205.792 161.021 206.008 161.397C206.232 161.773 206.344 162.205 206.344 162.693C206.344 163.061 206.272 163.421 206.128 163.773C205.992 164.125 205.804 164.469 205.564 164.805C205.332 165.133 205.068 165.449 204.772 165.753C204.476 166.057 204.164 166.349 203.836 166.629C203.508 166.901 203.192 167.157 202.888 167.397H206.536V168.717H200.632Z" fill="#EDEEF3"/>
<path d="M101.989 191.053C101.989 189.611 103.158 188.442 104.6 188.442H155.89C157.333 188.442 158.502 189.611 158.502 191.053C158.502 192.495 157.333 193.665 155.89 193.665H104.6C103.158 193.665 101.989 192.495 101.989 191.053Z" fill="#3C4561"/>
<path d="M172.412 191.053C172.412 189.611 173.582 188.442 175.024 188.442H183.712C185.154 188.442 186.323 189.611 186.323 191.053C186.323 192.495 185.154 193.665 183.712 193.665H175.024C173.582 193.665 172.412 192.495 172.412 191.053Z" fill="#3C4561"/>
</g>
<defs>
<filter id="filter0_dddd_524_9323" x="0" y="0" width="288.312" height="272.037" filterUnits="userSpaceOnUse" color-interpolation-filters="sRGB">
<feFlood flood-opacity="0" result="BackgroundImageFix"/>
<feColorMatrix in="SourceAlpha" type="matrix" values="0 0 0 0 0 0 0 0 0 0 0 0 0 0 0 0 0 0 127 0" result="hardAlpha"/>
<feOffset dy="22"/>
<feGaussianBlur stdDeviation="16"/>
<feColorMatrix type="matrix" values="0 0 0 0 0.170868 0 0 0 0 0.225854 0 0 0 0 0.445799 0 0 0 0.05 0"/>
<feBlend mode="normal" in2="BackgroundImageFix" result="effect1_dropShadow_524_9323"/>
<feColorMatrix in="SourceAlpha" type="matrix" values="0 0 0 0 0 0 0 0 0 0 0 0 0 0 0 0 0 0 127 0" result="hardAlpha"/>
<feOffset dy="18"/>
<feGaussianBlur stdDeviation="10"/>
<feColorMatrix type="matrix" values="0 0 0 0 0.170868 0 0 0 0 0.225854 0 0 0 0 0.445799 0 0 0 0.05 0"/>
<feBlend mode="normal" in2="effect1_dropShadow_524_9323" result="effect2_dropShadow_524_9323"/>
<feColorMatrix in="SourceAlpha" type="matrix" values="0 0 0 0 0 0 0 0 0 0 0 0 0 0 0 0 0 0 127 0" result="hardAlpha"/>
<feOffset dy="6"/>
<feGaussianBlur stdDeviation="4"/>
<feColorMatrix type="matrix" values="0 0 0 0 0.170868 0 0 0 0 0.225854 0 0 0 0 0.445799 0 0 0 0.05 0"/>
<feBlend mode="normal" in2="effect2_dropShadow_524_9323" result="effect3_dropShadow_524_9323"/>
<feColorMatrix in="SourceAlpha" type="matrix" values="0 0 0 0 0 0 0 0 0 0 0 0 0 0 0 0 0 0 127 0" result="hardAlpha"/>
<feOffset/>
<feGaussianBlur stdDeviation="0.5"/>
<feColorMatrix type="matrix" values="0 0 0 0 0.170868 0 0 0 0 0.225854 0 0 0 0 0.445799 0 0 0 0.05 0"/>
<feBlend mode="normal" in2="effect3_dropShadow_524_9323" result="effect4_dropShadow_524_9323"/>
<feBlend mode="normal" in="SourceGraphic" in2="effect4_dropShadow_524_9323" result="shape"/>
</filter>
</defs>
</svg>
