<svg width="433" height="305" viewBox="0 0 433 305" fill="none" xmlns="http://www.w3.org/2000/svg">
<g clip-path="url(#clip0_455_228)">
<g clip-path="url(#clip1_455_228)">
<rect width="432.752" height="304.396" transform="translate(0.248047 -0.240234)" fill="#6099F7"/>
<g style="mix-blend-mode:screen" opacity="0.2">
<circle cx="215.955" cy="152.053" r="95.2723" fill="white" fill-opacity="0.4"/>
</g>
<circle opacity="0.2" cx="214.123" cy="150.221" r="51.3005" fill="white" fill-opacity="0.6"/>
<path d="M-317.47 -173.229H-251.597V-268.611H-250.424V-173.229H-184.551V-268.611H-183.378V-173.229H-117.506V-268.611H-116.333V-173.229H-51.4756V-268.611H-50.3027V-173.229H15.5693V-268.611H16.7422V-173.229H82.6152V-268.611H83.7881V-173.229H149.661V-268.611H150.834V-173.229H215.69V-268.611H216.863V-173.229H282.736V-268.611H283.909V-173.229H349.782V-268.611H350.955V-173.229H415.812V-268.611H416.984V-173.229H482.857V-268.611H484.03V-173.229H549.902V-268.611H551.075V-173.229H616.948V-268.611H618.121V-173.229H682.978V-268.611H684.15V-173.229H750.023V-268.611H751.196V-173.229H843.481V-172.056H751.196V-105.91H843.481V-104.737H751.196V-38.5918H843.481V-37.4189H751.196V28.7256H843.481V29.8984H751.196V96.0439H843.481V97.2168H751.196V163.362H843.481V164.535H751.196V230.68H843.481V231.853H751.196V297.998H843.481V299.171H751.196V402.86H750.023V299.171H684.15V402.86H682.978V299.171H618.121V402.86H616.948V299.171H551.075V402.86H549.902V299.171H484.03V402.86H482.857V299.171H416.984V402.86H415.812V299.171H350.955V402.86H349.782V299.171H283.909V402.86H282.736V299.171H216.863V402.86H215.69V299.171H150.834V402.86H149.661V299.171H83.7881V402.86H82.6152V299.171H16.7422V402.86H15.5693V299.171H-50.3027V402.86H-51.4756V299.171H-116.333V402.86H-117.506V299.171H-183.379V402.86H-184.552V299.171H-250.424V402.86H-251.597V299.171H-317.47V402.86H-318.643V299.171H-411.084V297.998H-318.643V231.853L-411.084 231.854V230.681L-318.643 230.68V164.535H-411.084V163.362H-318.643V97.2168H-411.084V96.0439H-318.643V29.8984H-411.084V28.7256H-318.643V-37.4189H-411.084V-38.5918H-318.643V-104.737H-411.084V-105.91H-318.643V-172.056H-411.084V-173.229H-318.643V-268.611H-317.47V-173.229ZM684.15 231.853V297.998H750.023V231.853H684.15ZM-317.47 297.998H-251.597V231.853H-317.47V297.998ZM-250.424 297.998H-184.552V231.853H-250.424V297.998ZM-183.379 297.998H-117.506V231.853H-183.379V297.998ZM-116.333 297.998H-51.4756V231.853H-116.333V297.998ZM-50.3027 297.998H15.5693V231.853H-50.3027V297.998ZM16.7422 297.998H82.6152V231.853H16.7422V297.998ZM83.7881 297.998H149.661V231.853H83.7881V297.998ZM150.834 297.998H215.69V231.853H150.834V297.998ZM216.863 297.998H282.736V231.853H216.863V297.998ZM283.909 297.998H349.782V231.853H283.909V297.998ZM350.955 297.998H415.812V231.853H350.955V297.998ZM416.984 297.998H482.857V231.853H416.984V297.998ZM484.03 297.998H549.902V231.853H484.03V297.998ZM551.075 297.998H616.948V231.853H551.075V297.998ZM618.121 297.998H682.978V231.853H618.121V297.998ZM684.15 164.535V230.68H750.023V164.535H684.15ZM-317.47 230.68H-251.597V164.535H-317.47V230.68ZM-250.424 230.68H-184.552V164.535H-250.424V230.68ZM-183.379 230.68H-117.506V164.535H-183.379V230.68ZM-116.333 230.68H-51.4756V164.535H-116.333V230.68ZM-50.3027 230.68H15.5693V164.535H-50.3027V230.68ZM16.7422 230.68H82.6152V164.535H16.7422V230.68ZM83.7881 230.68H149.661V164.535H83.7881V230.68ZM150.834 230.68H215.69V164.535H150.834V230.68ZM216.863 230.68H282.736V164.535H216.863V230.68ZM283.909 230.68H349.782V164.535H283.909V230.68ZM350.955 230.68H415.812V164.535H350.955V230.68ZM416.984 230.68H482.857V164.535H416.984V230.68ZM484.03 230.68H549.902V164.535H484.03V230.68ZM551.075 230.68H616.948V164.535H551.075V230.68ZM618.121 230.68H682.978V164.535H618.121V230.68ZM684.15 97.2168V163.362H750.023V97.2168H684.15ZM-317.47 163.362H-251.597V97.2168H-317.47V163.362ZM-250.424 163.362H-184.552V97.2168H-250.424V163.362ZM-183.379 163.362H-117.506V97.2168H-183.379V163.362ZM-116.333 163.362H-51.4756V97.2168H-116.333V163.362ZM-50.3027 163.362H15.5693V97.2168H-50.3027V163.362ZM16.7422 163.362H82.6152V97.2168H16.7422V163.362ZM83.7881 163.362H149.661V97.2168H83.7881V163.362ZM150.834 163.362H215.69V97.2168H150.834V163.362ZM216.863 163.362H282.736V97.2168H216.863V163.362ZM283.909 163.362H349.782V97.2168H283.909V163.362ZM350.955 163.362H415.812V97.2168H350.955V163.362ZM416.984 163.362H482.857V97.2168H416.984V163.362ZM484.03 163.362H549.902V97.2168H484.03V163.362ZM551.075 163.362H616.948V97.2168H551.075V163.362ZM618.121 163.362H682.978V97.2168H618.121V163.362ZM684.15 29.8984V96.0439H750.023V29.8984H684.15ZM-317.47 96.0439H-251.597V29.8984H-317.47V96.0439ZM-250.424 96.0439H-184.552L-184.551 29.8984H-250.424V96.0439ZM-183.379 96.0439H-117.506V29.8984H-183.378L-183.379 96.0439ZM-116.333 96.0439H-51.4756V29.8984H-116.333V96.0439ZM-50.3027 96.0439H15.5693V29.8984H-50.3027V96.0439ZM16.7422 96.0439H82.6152V29.8984H16.7422V96.0439ZM83.7881 96.0439H149.661V29.8984H83.7881V96.0439ZM150.834 96.0439H215.69V29.8984H150.834V96.0439ZM216.863 96.0439H282.736V29.8984H216.863V96.0439ZM283.909 96.0439H349.782V29.8984H283.909V96.0439ZM350.955 96.0439H415.812V29.8984H350.955V96.0439ZM416.984 96.0439H482.857V29.8984H416.984V96.0439ZM484.03 96.0439H549.902V29.8984H484.03V96.0439ZM551.075 96.0439H616.948V29.8984H551.075V96.0439ZM618.121 96.0439H682.978V29.8984H618.121V96.0439ZM684.15 -37.4189V28.7256H750.023V-37.4189H684.15ZM-317.47 28.7256H-251.597V-37.4189H-317.47V28.7256ZM-250.424 28.7256H-184.551V-37.4189H-250.424V28.7256ZM-183.378 28.7256H-117.506V-37.4189H-183.378V28.7256ZM-116.333 28.7256H-51.4756V-37.4189H-116.333V28.7256ZM-50.3027 28.7256H15.5693V-37.4189H-50.3027V28.7256ZM16.7422 28.7256H82.6152V-37.4189H16.7422V28.7256ZM83.7881 28.7256H149.661V-37.4189H83.7881V28.7256ZM150.834 28.7256H215.69V-37.4189H150.834V28.7256ZM216.863 28.7256H282.736V-37.4189H216.863V28.7256ZM283.909 28.7256H349.782V-37.4189H283.909V28.7256ZM350.955 28.7256H415.812V-37.4189H350.955V28.7256ZM416.984 28.7256H482.857V-37.4189H416.984V28.7256ZM484.03 28.7256H549.902V-37.4189H484.03V28.7256ZM551.075 28.7256H616.948V-37.4189H551.075V28.7256ZM618.121 28.7256H682.978V-37.4189H618.121V28.7256ZM684.15 -104.737V-38.5918H750.023V-104.737H684.15ZM-317.47 -38.5918H-251.597V-104.737H-317.47V-38.5918ZM-250.424 -38.5918H-184.551V-104.737H-250.424V-38.5918ZM-183.378 -38.5918H-117.506V-104.737H-183.378V-38.5918ZM-116.333 -38.5918H-51.4756V-104.737H-116.333V-38.5918ZM-50.3027 -38.5918H15.5693V-104.737H-50.3027V-38.5918ZM16.7422 -38.5918H82.6152V-104.737H16.7422V-38.5918ZM83.7881 -38.5918H149.661V-104.737H83.7881V-38.5918ZM150.834 -38.5918H215.69V-104.737H150.834V-38.5918ZM216.863 -38.5918H282.736V-104.737H216.863V-38.5918ZM283.909 -38.5918H349.782V-104.737H283.909V-38.5918ZM350.955 -38.5918H415.812V-104.737H350.955V-38.5918ZM416.984 -38.5918H482.857V-104.737H416.984V-38.5918ZM484.03 -38.5918H549.902V-104.737H484.03V-38.5918ZM551.075 -38.5918H616.948V-104.737H551.075V-38.5918ZM618.121 -38.5918H682.978V-104.737H618.121V-38.5918ZM684.15 -172.056V-105.91H750.023V-172.056H684.15ZM-317.47 -105.91H-251.597V-172.056H-317.47V-105.91ZM-250.424 -105.91H-184.551V-172.056H-250.424V-105.91ZM-183.378 -105.91H-117.506V-172.056H-183.378V-105.91ZM-116.333 -105.91H-51.4756V-172.056H-116.333V-105.91ZM-50.3027 -105.91H15.5693V-172.056H-50.3027V-105.91ZM16.7422 -105.91H82.6152V-172.056H16.7422V-105.91ZM83.7881 -105.91H149.661V-172.056H83.7881V-105.91ZM150.834 -105.91H215.69V-172.056H150.834V-105.91ZM216.863 -105.91H282.736V-172.056H216.863V-105.91ZM283.909 -105.91H349.782V-172.056H283.909V-105.91ZM350.955 -105.91H415.812V-172.056H350.955V-105.91ZM416.984 -105.91H482.857V-172.056H416.984V-105.91ZM484.03 -105.91H549.902V-172.056H484.03V-105.91ZM551.075 -105.91H616.948V-172.056H551.075V-105.91ZM618.121 -105.91H682.978V-172.056H618.121V-105.91Z" fill="url(#paint0_radial_455_228)"/>
<path fill-rule="evenodd" clip-rule="evenodd" d="M241.165 93.1306C241.165 90.7021 243.134 88.7334 245.562 88.7334C264.181 88.7334 279.274 103.827 279.274 122.445C279.274 124.874 277.306 126.842 274.877 126.842C272.449 126.842 270.48 124.874 270.48 122.445C270.48 108.684 259.324 97.5278 245.562 97.5278C243.134 97.5278 241.165 95.5591 241.165 93.1306ZM213.316 94.5963C183.365 94.5963 159.084 118.877 159.084 148.828C159.084 182.018 185.99 208.923 219.179 208.923C233.563 208.923 247.357 203.209 257.527 193.039C267.698 182.868 273.411 169.074 273.411 154.691V151.76C273.411 149.331 271.443 147.363 269.014 147.363C266.586 147.363 264.617 149.331 264.617 151.76V154.691C264.617 166.742 259.83 178.299 251.309 186.82C242.787 195.342 231.23 200.129 219.179 200.129C190.847 200.129 167.879 177.161 167.879 148.828C167.879 123.734 188.222 103.391 213.316 103.391H216.248C218.676 103.391 220.645 101.422 220.645 98.9935C220.645 96.565 218.676 94.5963 216.248 94.5963H213.316ZM222.315 124.458C218.716 121.774 213.781 121.774 210.182 124.458C205.835 127.681 200.674 129.623 195.281 130.065C191.458 130.308 188.457 133.451 188.399 137.289V153.225C188.399 160.681 193.005 166.648 197.607 170.813C202.303 175.062 207.773 178.148 211.128 179.84C214.343 181.486 218.153 181.486 221.367 179.84C224.72 178.15 230.191 175.068 234.888 170.82C239.492 166.656 244.097 160.689 244.097 153.225V137.355L244.095 137.235C243.991 133.435 241.022 130.337 237.235 130.066C231.836 129.628 226.667 127.685 222.315 124.458ZM210.182 124.458L210.174 124.463L212.806 127.986L210.186 124.455L210.182 124.458ZM215.437 131.509C215.918 131.15 216.578 131.15 217.059 131.509L217.071 131.518C222.415 135.482 228.705 137.961 235.302 138.713V153.225C235.302 156.951 232.946 160.719 228.988 164.298C225.13 167.788 220.447 170.456 217.396 171.993L217.364 172.01C216.663 172.37 215.832 172.37 215.132 172.01L215.1 171.993C212.051 170.457 207.368 167.785 203.508 164.292C199.549 160.709 197.193 156.942 197.193 153.225V138.713C203.79 137.961 210.081 135.482 215.425 131.518L215.437 131.509ZM195.826 138.842L195.865 138.84C195.852 138.841 195.839 138.842 195.826 138.842ZM245.562 106.322C243.134 106.322 241.165 108.291 241.165 110.719C241.165 113.148 243.134 115.117 245.562 115.117C249.61 115.117 252.891 118.398 252.891 122.445C252.891 124.874 254.86 126.842 257.288 126.842C259.717 126.842 261.685 124.874 261.685 122.445C261.685 113.541 254.467 106.322 245.562 106.322Z" fill="url(#paint1_linear_455_228)" fill-opacity="0.8"/>
<g style="mix-blend-mode:screen" opacity="0.2">
<circle cx="230.026" cy="56.4873" r="16.123" fill="white" fill-opacity="0.4"/>
</g>
<circle opacity="0.2" cx="229.66" cy="56.1209" r="10.2601" fill="white" fill-opacity="0.6"/>
<circle cx="229.659" cy="56.1208" r="5.13005" fill="white" fill-opacity="0.6"/>
<g style="mix-blend-mode:screen" opacity="0.2">
<circle cx="603.786" cy="151.76" r="201.098" fill="white" fill-opacity="0.4"/>
</g>
<g style="mix-blend-mode:color-burn">
<rect width="432.752" height="304.396" transform="translate(0.248047 -0.240234)" fill="#387FF5" fill-opacity="0.1"/>
</g>
<g style="mix-blend-mode:screen" opacity="0.2">
<circle cx="131.529" cy="201.301" r="37.8158" fill="white" fill-opacity="0.4"/>
</g>
<circle opacity="0.2" cx="130.802" cy="200.574" r="20.3623" fill="white" fill-opacity="0.6"/>
<circle cx="130.802" cy="200.574" r="10.1812" fill="white" fill-opacity="0.6"/>
</g>
</g>
<defs>
<radialGradient id="paint0_radial_455_228" cx="0" cy="0" r="1" gradientUnits="userSpaceOnUse" gradientTransform="translate(213.052 742.186) rotate(180) scale(762.441 723.584)">
<stop stop-color="#EDECF3"/>
<stop offset="1" stop-color="#E6E5F5" stop-opacity="0.01"/>
</radialGradient>
<linearGradient id="paint1_linear_455_228" x1="186.465" y1="81.405" x2="249.399" y2="216.485" gradientUnits="userSpaceOnUse">
<stop stop-color="white"/>
<stop offset="1" stop-color="white" stop-opacity="0.38"/>
</linearGradient>
<clipPath id="clip0_455_228">
<path d="M0.248047 16C0.248047 7.16344 7.41149 0 16.248 0H417C425.836 0 433 7.16345 433 16V288.148C433 296.985 425.836 304.148 417 304.148H16.248C7.41149 304.148 0.248047 296.985 0.248047 288.148V16Z" fill="white"/>
</clipPath>
<clipPath id="clip1_455_228">
<rect width="432.752" height="304.396" fill="white" transform="translate(0.248047 -0.240234)"/>
</clipPath>
</defs>
</svg>
