<svg width="251" height="255" viewBox="0 0 251 255" fill="none" xmlns="http://www.w3.org/2000/svg">
<g filter="url(#filter0_dddd_524_9751)">
<rect x="32" y="10" width="186.3" height="190.631" rx="12" fill="#171C2F"/>
<rect x="32.5" y="10.5" width="185.3" height="189.631" rx="11.5" stroke="#2B324A"/>
<rect x="51.2723" y="25.6991" width="68.3295" height="8.4102" rx="4.2051" fill="#2B324A"/>
<rect x="51.2723" y="39.9603" width="117.387" height="6.72816" rx="3.36408" fill="#2B324A"/>
<path d="M50.9803 64.9468L199.904 64.9468" stroke="#2B324A" stroke-width="0.689001"/>
<rect x="167.783" y="95.7841" width="3.50408" height="3.36408" rx="1.68204" fill="#5A78E5"/>
<rect x="175.083" y="94.6627" width="24.5285" height="5.6068" rx="2.8034" fill="#2B324A"/>
<rect x="167.783" y="103.634" width="3.50408" height="3.36408" rx="1.68204" fill="#B59DF9"/>
<rect x="175.083" y="102.512" width="24.5285" height="5.6068" rx="2.8034" fill="#2B324A"/>
<rect x="167.783" y="111.483" width="3.50408" height="3.36408" rx="1.68204" fill="#FDAED0"/>
<rect x="175.083" y="110.362" width="24.5285" height="5.6068" rx="2.8034" fill="#2B324A"/>
<rect x="167.783" y="119.333" width="3.50408" height="3.36408" rx="1.68204" fill="#539EF3"/>
<rect x="175.083" y="118.211" width="24.5285" height="5.6068" rx="2.8034" fill="#2B324A"/>
<path opacity="0.6" d="M92.8862 122.273L73.1693 139.657L98.5196 146.997L117.834 154.916L114.213 134.249L119.041 122.273L106.165 116.478L92.8862 122.273Z" fill="#B59DF9" stroke="#B59DF9" stroke-width="1.378"/>
<path d="M139.369 106.602L147.636 141.372L124.466 169.265H87.2886L64.1187 141.373L72.3853 106.602L105.877 91.1169L139.369 106.602Z" stroke="#9198B7" stroke-width="0.689001"/>
<path d="M133.104 111.844L139.68 139.5L121.249 161.688H91.6738L73.2432 139.501L79.8184 111.845L106.462 99.5271L133.104 111.844Z" stroke="#9198B7" stroke-width="0.689001"/>
<path d="M126.127 116.74L131.124 137.755L117.119 154.616H94.6371L80.6302 137.755L85.6263 116.74L105.877 107.377L126.127 116.74Z" stroke="#9198B7" stroke-width="0.689001"/>
<path d="M119.343 122.438L122.591 136.1L113.482 147.066H98.8572L89.7478 136.1L92.9958 122.438L106.17 116.348L119.343 122.438Z" stroke="#9198B7" stroke-width="0.689001"/>
<path d="M113.014 127.227L114.627 134.011L110.101 139.461H102.823L98.2952 134.011L99.9084 127.227L106.461 124.197L113.014 127.227Z" stroke="#9198B7" stroke-width="0.689001"/>
<path d="M64.3169 141.395L106.165 132.317L139.563 106.627" stroke="#9198B7" stroke-width="0.689001"/>
<path d="M125.005 169.643L106.485 132.489L72.9733 106.937" stroke="#9198B7" stroke-width="0.689001"/>
<path d="M106.474 91.1424L106.34 132.331L87.4795 169.212" stroke="#9198B7" stroke-width="0.689001"/>
<path d="M106.366 132.51L148.013 141.589" stroke="#9198B7" stroke-width="0.689001"/>
<path opacity="0.6" d="M86.8505 117.637L106.165 91.3682L112.201 127.295L124.876 136.18L109.384 138.498L93.691 156.654L100.532 133.476L86.8505 117.637Z" fill="#5598E6" stroke="#5A78E5" stroke-width="1.378"/>
<ellipse cx="106.17" cy="91.0183" rx="0.87602" ry="0.841019" fill="#5A78E5"/>
<ellipse cx="86.8971" cy="117.37" rx="0.876019" ry="0.841022" fill="#5A78E5"/>
<ellipse cx="100.329" cy="133.63" rx="0.87602" ry="0.841019" fill="#5A78E5"/>
<ellipse cx="93.3213" cy="156.618" rx="0.876019" ry="0.841019" fill="#5A78E5"/>
<ellipse cx="109.09" cy="138.115" rx="0.87602" ry="0.841019" fill="#5A78E5"/>
<ellipse cx="124.274" cy="135.873" rx="0.876019" ry="0.841019" fill="#5A78E5"/>
<ellipse cx="112.01" cy="126.902" rx="0.876019" ry="0.841019" fill="#5A78E5"/>
<ellipse cx="72.8808" cy="139.797" rx="0.876019" ry="0.841019" fill="#B59DF9"/>
<ellipse cx="98.5774" cy="147.086" rx="0.876019" ry="0.841022" fill="#B59DF9"/>
<ellipse cx="117.85" cy="154.375" rx="0.876019" ry="0.841022" fill="#B59DF9"/>
<ellipse cx="119.018" cy="122.416" rx="0.876019" ry="0.841019" fill="#B59DF9"/>
<ellipse cx="106.17" cy="99.9892" rx="0.87602" ry="0.841015" fill="#FDAED0"/>
<ellipse cx="133.034" cy="111.763" rx="0.876019" ry="0.841019" fill="#FDAED0"/>
<ellipse cx="131.282" cy="137.555" rx="0.876019" ry="0.841022" fill="#FDAED0"/>
<ellipse cx="113.178" cy="146.526" rx="0.876019" ry="0.841011" fill="#FDAED0"/>
<ellipse cx="114.346" cy="134.191" rx="0.87602" ry="0.841022" fill="#B59DF9"/>
<ellipse cx="106.17" cy="116.249" rx="0.87602" ry="0.841019" fill="#B59DF9"/>
<ellipse cx="92.7372" cy="122.416" rx="0.876019" ry="0.841019" fill="#B59DF9"/>
<ellipse cx="113.178" cy="146.526" rx="0.876019" ry="0.841011" fill="#FDAED0"/>
<ellipse cx="97.9933" cy="133.63" rx="0.876019" ry="0.841019" fill="#FDAED0"/>
<ellipse cx="79.305" cy="111.763" rx="0.876019" ry="0.841019" fill="#FDAED0"/>
<ellipse cx="102.665" cy="139.797" rx="0.876019" ry="0.841019" fill="#FDAED0"/>
<path opacity="0.6" d="M106.165 99.8669L79.2051 111.843L98.1172 133.862L102.543 139.657L113.408 146.61L131.515 137.725L133.125 111.843L106.165 99.8669Z" fill="#FDAED0" stroke="#FDAED0" stroke-width="1.378"/>
<ellipse cx="79.305" cy="111.763" rx="0.876019" ry="0.841019" fill="#539EF3"/>
<ellipse cx="64.1207" cy="140.919" rx="0.876019" ry="0.841019" fill="#539EF3"/>
<ellipse cx="102.665" cy="139.797" rx="0.876019" ry="0.841019" fill="#539EF3"/>
<ellipse cx="114.346" cy="134.751" rx="0.87602" ry="0.841019" fill="#539EF3"/>
<ellipse cx="140.042" cy="106.717" rx="0.876019" ry="0.841019" fill="#539EF3"/>
<ellipse cx="106.17" cy="107.278" rx="0.87602" ry="0.841019" fill="#539EF3"/>
<path opacity="0.6" d="M64.3169 141.202L79.2052 111.842L106.165 107.593L139.965 106.82L114.213 134.442L102.543 139.657L64.3169 141.202Z" fill="#8FBFF6" stroke="#539EF3" stroke-width="1.378"/>
<rect x="101.497" y="82.8884" width="10.5122" height="4.48544" rx="2.24272" fill="#2B324A"/>
<rect x="141.794" y="101.952" width="10.5122" height="4.48544" rx="2.24272" fill="#2B324A"/>
<rect x="151.138" y="137.835" width="10.5122" height="4.48544" rx="2.24272" fill="#2B324A"/>
<rect x="125.442" y="172.037" width="10.5122" height="4.48544" rx="2.24272" fill="#2B324A"/>
<rect x="75.2168" y="171.476" width="10.5122" height="4.48544" rx="2.24272" fill="#2B324A"/>
<rect x="50.6884" y="136.714" width="10.5122" height="4.48544" rx="2.24272" fill="#2B324A"/>
<rect x="60.0325" y="101.391" width="10.5122" height="4.48544" rx="2.24272" fill="#2B324A"/>
</g>
<defs>
<filter id="filter0_dddd_524_9751" x="0" y="0" width="250.3" height="254.631" filterUnits="userSpaceOnUse" color-interpolation-filters="sRGB">
<feFlood flood-opacity="0" result="BackgroundImageFix"/>
<feColorMatrix in="SourceAlpha" type="matrix" values="0 0 0 0 0 0 0 0 0 0 0 0 0 0 0 0 0 0 127 0" result="hardAlpha"/>
<feOffset dy="22"/>
<feGaussianBlur stdDeviation="16"/>
<feColorMatrix type="matrix" values="0 0 0 0 0.170868 0 0 0 0 0.225854 0 0 0 0 0.445799 0 0 0 0.05 0"/>
<feBlend mode="normal" in2="BackgroundImageFix" result="effect1_dropShadow_524_9751"/>
<feColorMatrix in="SourceAlpha" type="matrix" values="0 0 0 0 0 0 0 0 0 0 0 0 0 0 0 0 0 0 127 0" result="hardAlpha"/>
<feOffset dy="18"/>
<feGaussianBlur stdDeviation="10"/>
<feColorMatrix type="matrix" values="0 0 0 0 0.170868 0 0 0 0 0.225854 0 0 0 0 0.445799 0 0 0 0.05 0"/>
<feBlend mode="normal" in2="effect1_dropShadow_524_9751" result="effect2_dropShadow_524_9751"/>
<feColorMatrix in="SourceAlpha" type="matrix" values="0 0 0 0 0 0 0 0 0 0 0 0 0 0 0 0 0 0 127 0" result="hardAlpha"/>
<feOffset dy="6"/>
<feGaussianBlur stdDeviation="4"/>
<feColorMatrix type="matrix" values="0 0 0 0 0.170868 0 0 0 0 0.225854 0 0 0 0 0.445799 0 0 0 0.05 0"/>
<feBlend mode="normal" in2="effect2_dropShadow_524_9751" result="effect3_dropShadow_524_9751"/>
<feColorMatrix in="SourceAlpha" type="matrix" values="0 0 0 0 0 0 0 0 0 0 0 0 0 0 0 0 0 0 127 0" result="hardAlpha"/>
<feOffset/>
<feGaussianBlur stdDeviation="0.5"/>
<feColorMatrix type="matrix" values="0 0 0 0 0.170868 0 0 0 0 0.225854 0 0 0 0 0.445799 0 0 0 0.05 0"/>
<feBlend mode="normal" in2="effect3_dropShadow_524_9751" result="effect4_dropShadow_524_9751"/>
<feBlend mode="normal" in="SourceGraphic" in2="effect4_dropShadow_524_9751" result="shape"/>
</filter>
</defs>
</svg>
