<svg width="425" height="298" viewBox="0 0 425 298" fill="none" xmlns="http://www.w3.org/2000/svg">
<g clip-path="url(#clip0_524_9395)">
<g clip-path="url(#clip1_524_9395)">
<rect width="424.8" height="298.536" fill="#2D66C4"/>
<path d="M-417.643 -234.4H-339.931V-346.925H-338.547V-234.4H-260.835V-346.925H-259.451V-234.4H-181.74V-346.925H-180.356V-234.4H-103.842V-346.925H-102.458V-234.4H-24.7463V-346.925H-23.3625V-234.4H54.3494V-346.925H55.7332V-234.4H133.445V-346.925H134.829V-234.4H211.343V-346.925H212.726V-234.4H290.438V-346.925H291.822V-234.4H369.535V-346.925H370.919V-234.4H447.431V-346.925H448.815V-234.4H526.528V-346.925H527.912V-234.4H605.624V-346.925H607.008V-234.4H684.719V-346.925H686.103V-234.4H762.617V-346.925H764.001V-234.4H841.713V-346.925H843.096V-234.4H951.968V-233.016H843.096V-154.982H951.968V-153.598H843.096V-75.5646H951.968V-74.1808H843.096V3.85333H951.968V5.23712H843.096V83.2703H951.968V84.6541H843.096V162.687H951.968V164.071H843.096V242.105H951.968V243.489H843.096V321.522H951.968V322.906H843.096V445.231H841.713V322.906H764V445.231H762.616V322.906H686.102V445.231H684.719V322.906H607.007V445.231H605.623V322.906H527.911V445.231H526.527V322.906H448.815V445.231H447.431V322.906H370.919V445.231H369.535V322.906H291.822V445.231H290.438V322.906H212.726V445.231H211.343V322.906H134.829V445.231H133.445V322.906H55.7332V445.231H54.3494V322.906H-23.3625V445.231H-24.7463V322.906H-102.458V445.231H-103.842V322.906H-180.356V445.231H-181.74V322.906H-259.451V445.231H-260.835V322.906H-338.547V445.231H-339.931V322.906H-417.644V445.231H-419.028V322.906H-528.083V321.522H-419.028V243.489H-528.083V242.105H-419.028V164.071H-528.083V162.687H-419.028V84.6541H-528.083V83.2703H-419.028L-419.027 5.23712H-528.083V3.85333H-419.027L-419.028 -74.1808L-528.083 -74.1799V-75.5637L-419.028 -75.5646L-419.027 -153.598H-528.083V-154.982H-419.027V-233.016H-528.083V-234.4H-419.027V-346.925H-417.643V-234.4ZM764 243.489V321.522H841.713V243.489H764ZM-417.644 321.522H-339.931V243.489H-417.644V321.522ZM-338.547 321.522H-260.835V243.489H-338.547V321.522ZM-259.451 321.522H-181.74V243.489H-259.451V321.522ZM-180.356 321.522H-103.842V243.489H-180.356V321.522ZM-102.458 321.522H-24.7463V243.489H-102.458V321.522ZM-23.3625 321.522H54.3494V243.489H-23.3625V321.522ZM55.7332 321.522H133.445V243.489H55.7332V321.522ZM134.829 321.522H211.343V243.489H134.829V321.522ZM212.726 321.522H290.438V243.489H212.726V321.522ZM291.822 321.522H369.535V243.489H291.822V321.522ZM370.919 321.522H447.431V243.489H370.919V321.522ZM448.815 321.522H526.527V243.489H448.815V321.522ZM527.911 321.522H605.623V243.489H527.911V321.522ZM607.007 321.522H684.719V243.489H607.007V321.522ZM686.102 321.522H762.616V243.489H686.102V321.522ZM764 164.071V242.105H841.713V164.071H764ZM-417.644 242.105H-339.931V164.071H-417.644V242.105ZM-338.547 242.105H-260.835V164.071H-338.547V242.105ZM-259.451 242.105H-181.74V164.071H-259.451V242.105ZM-180.356 242.105H-103.842V164.071H-180.356V242.105ZM-102.458 242.105H-24.7463V164.071H-102.458V242.105ZM-23.3625 242.105H54.3494V164.071H-23.3625V242.105ZM55.7332 242.105H133.445V164.071H55.7332V242.105ZM134.829 242.105H211.343V164.071H134.829V242.105ZM212.726 242.105H290.438V164.071H212.726V242.105ZM291.822 242.105H369.535V164.071H291.822V242.105ZM370.919 242.105H447.431V164.071H370.919V242.105ZM448.815 242.105H526.527V164.071H448.815V242.105ZM527.911 242.105H605.623V164.071H527.911V242.105ZM607.007 242.105H684.719V164.071H607.007V242.105ZM686.102 242.105H762.616V164.071H686.102V242.105ZM764 84.6541V162.687H841.713V84.6541H764ZM-417.644 162.687H-339.931V84.6541H-417.644V162.687ZM-338.547 162.687H-260.835V84.6541H-338.547V162.687ZM-259.451 162.687H-181.74V84.6541H-259.451V162.687ZM-180.356 162.687H-103.842V84.6541H-180.356V162.687ZM-102.458 162.687H-24.7463V84.6541H-102.458V162.687ZM-23.3625 162.687H54.3494V84.6541H-23.3625V162.687ZM55.7332 162.687H133.445V84.6541H55.7332V162.687ZM134.829 162.687H211.343V84.6541H134.829V162.687ZM212.726 162.687H290.438V84.6541H212.726V162.687ZM291.822 162.687H369.535V84.6541H291.822V162.687ZM370.919 162.687H447.431V84.6541H370.919V162.687ZM448.815 162.687H526.527V84.6541H448.815V162.687ZM527.911 162.687H605.623V84.6541H527.911V162.687ZM607.007 162.687H684.719V84.6541H607.007V162.687ZM686.102 162.687H762.616V84.6541H686.102V162.687ZM764.001 5.23712L764 83.2703H841.713V5.23712H764.001ZM-417.644 83.2703H-339.931V5.23712H-417.643L-417.644 83.2703ZM-338.547 83.2703H-260.835V5.23712H-338.547V83.2703ZM-259.451 83.2703H-181.74V5.23712H-259.451V83.2703ZM-180.356 83.2703H-103.842V5.23712H-180.356V83.2703ZM-102.458 83.2703H-24.7463V5.23712H-102.458V83.2703ZM-23.3625 83.2703H54.3494V5.23712H-23.3625V83.2703ZM55.7332 83.2703H133.445V5.23712H55.7332V83.2703ZM134.829 83.2703H211.343V5.23712H134.829V83.2703ZM212.726 83.2703H290.438V5.23712H212.726V83.2703ZM291.822 83.2703H369.535V5.23712H291.822V83.2703ZM370.919 83.2703H447.431V5.23712H370.919V83.2703ZM448.815 83.2703H526.527L526.528 5.23712H448.815V83.2703ZM527.911 83.2703H605.623L605.624 5.23712H527.912L527.911 83.2703ZM607.007 83.2703H684.719L684.719 5.23712H607.008L607.007 83.2703ZM686.102 83.2703H762.616L762.617 5.23712H686.103L686.102 83.2703ZM764.001 -74.1808V3.85333H841.713V-74.1808H764.001ZM-417.643 3.85333H-339.931V-74.1808H-417.644L-417.643 3.85333ZM-338.547 3.85333H-260.835V-74.1808H-338.547V3.85333ZM-259.451 3.85333H-181.74V-74.1808H-259.451V3.85333ZM-180.356 3.85333H-103.842V-74.1808H-180.356V3.85333ZM-102.458 3.85333H-24.7463V-74.1808H-102.458V3.85333ZM-23.3625 3.85333H54.3494V-74.1808H-23.3625V3.85333ZM55.7332 3.85333H133.445V-74.1808H55.7332V3.85333ZM134.829 3.85333H211.343V-74.1808H134.829V3.85333ZM212.726 3.85333H290.438V-74.1808H212.726V3.85333ZM291.822 3.85333H369.535V-74.1808H291.822V3.85333ZM370.919 3.85333H447.431V-74.1808H370.919V3.85333ZM448.815 3.85333H526.528V-74.1808H448.815V3.85333ZM527.912 3.85333H605.624V-74.1808H527.912V3.85333ZM607.008 3.85333H684.719V-74.1808H607.008V3.85333ZM686.103 3.85333H762.617V-74.1808H686.103V3.85333ZM764.001 -153.598V-75.5646H841.713V-153.598H764.001ZM-417.644 -75.5646H-339.931V-153.598H-417.643L-417.644 -75.5646ZM-338.547 -75.5646H-260.835V-153.598H-338.547V-75.5646ZM-259.451 -75.5646H-181.74V-153.598H-259.451V-75.5646ZM-180.356 -75.5646H-103.842V-153.598H-180.356V-75.5646ZM-102.458 -75.5646H-24.7463V-153.598H-102.458V-75.5646ZM-23.3625 -75.5646H54.3494V-153.598H-23.3625V-75.5646ZM55.7332 -75.5646H133.445V-153.598H55.7332V-75.5646ZM134.829 -75.5646H211.343V-153.598H134.829V-75.5646ZM212.726 -75.5646H290.438V-153.598H212.726V-75.5646ZM291.822 -75.5646H369.535V-153.598H291.822V-75.5646ZM370.919 -75.5646H447.431V-153.598H370.919V-75.5646ZM448.815 -75.5646H526.528V-153.598H448.815V-75.5646ZM527.912 -75.5646H605.624V-153.598H527.912V-75.5646ZM607.008 -75.5646H684.719V-153.598H607.008V-75.5646ZM686.103 -75.5646H762.617V-153.598H686.103V-75.5646ZM764.001 -233.016V-154.982H841.713V-233.016H764.001ZM-417.643 -154.982H-339.931V-233.016H-417.643V-154.982ZM-338.547 -154.982H-260.835V-233.016H-338.547V-154.982ZM-259.451 -154.982H-181.74V-233.016H-259.451V-154.982ZM-180.356 -154.982H-103.842V-233.016H-180.356V-154.982ZM-102.458 -154.982H-24.7463V-233.016H-102.458V-154.982ZM-23.3625 -154.982H54.3494V-233.016H-23.3625V-154.982ZM55.7332 -154.982H133.445V-233.016H55.7332V-154.982ZM134.829 -154.982H211.343V-233.016H134.829V-154.982ZM212.726 -154.982H290.438V-233.016H212.726V-154.982ZM291.822 -154.982H369.535V-233.016H291.822V-154.982ZM370.919 -154.982H447.431V-233.016H370.919V-154.982ZM448.815 -154.982H526.528V-233.016H448.815V-154.982ZM527.912 -154.982H605.624V-233.016H527.912V-154.982ZM607.008 -154.982H684.719V-233.016H607.008V-154.982ZM686.103 -154.982H762.617V-233.016H686.103V-154.982Z" fill="url(#paint0_radial_524_9395)"/>
<g style="mix-blend-mode:screen" opacity="0.2">
<circle cx="183.475" cy="149.525" r="64.1583" fill="white" fill-opacity="0.4"/>
</g>
<ellipse opacity="0.2" cx="182.452" cy="148.308" rx="46.6875" ry="47.0333" fill="white" fill-opacity="0.6"/>
<circle cx="182.329" cy="148.379" r="9.16547" fill="white" fill-opacity="0.6"/>
<g style="mix-blend-mode:screen" opacity="0.2">
<circle cx="256.613" cy="68.4208" r="19.0208" fill="white" fill-opacity="0.4"/>
</g>
<circle opacity="0.2" cx="256.18" cy="67.9885" r="12.1042" fill="white" fill-opacity="0.6"/>
<circle cx="256.18" cy="67.9885" r="6.05208" fill="white" fill-opacity="0.6"/>
<g style="mix-blend-mode:screen" opacity="0.2">
<circle cx="107.904" cy="258.629" r="44.6125" fill="white" fill-opacity="0.4"/>
</g>
<circle opacity="0.2" cx="107.046" cy="257.771" r="24.0221" fill="white" fill-opacity="0.6"/>
<circle cx="107.046" cy="257.771" r="12.0111" fill="white" fill-opacity="0.6"/>
<g style="mix-blend-mode:color-burn">
<rect width="424.8" height="298.536" fill="#2E71E5" fill-opacity="0.1"/>
</g>
</g>
</g>
<defs>
<radialGradient id="paint0_radial_524_9395" cx="0" cy="0" r="1" gradientUnits="userSpaceOnUse" gradientTransform="translate(208.229 845.544) rotate(180) scale(899.476 853.635)">
<stop stop-color="#EDECF3"/>
<stop offset="1" stop-color="#E6E5F5" stop-opacity="0.01"/>
</radialGradient>
<clipPath id="clip0_524_9395">
<path d="M0 16C0 7.16342 7.16344 0 16 0H408.8C417.637 0 424.8 7.16344 424.8 16V281.946C424.8 290.783 417.637 297.946 408.8 297.946H16C7.16344 297.946 0 290.782 0 281.946V16Z" fill="white"/>
</clipPath>
<clipPath id="clip1_524_9395">
<rect width="424.8" height="298.536" fill="white"/>
</clipPath>
</defs>
</svg>
