<svg width="289" height="273" viewBox="0 0 289 273" fill="none" xmlns="http://www.w3.org/2000/svg">
<g filter="url(#filter0_dddd_455_280)">
<path d="M32 22.9629C32 16.3355 37.3726 10.9629 44 10.9629H244.312C250.94 10.9629 256.312 16.3355 256.312 22.9629V207C256.312 213.627 250.94 219 244.312 219H44C37.3726 219 32 213.627 32 207V22.9629Z" fill="white"/>
<path d="M44 11.4629H244.312C250.664 11.4631 255.812 16.6117 255.812 22.9629V207C255.812 213.351 250.664 218.5 244.312 218.5H44C37.6487 218.5 32.5 213.351 32.5 207V22.9629C32.5 16.8101 37.3319 11.7855 43.4082 11.4775L44 11.4629Z" stroke="#ECEEF4"/>
<path d="M214.187 53.338C213.887 53.338 213.606 53.3139 213.343 53.2656C213.083 53.2211 212.868 53.1636 212.698 53.0932L213.232 51.3238C213.509 51.4091 213.76 51.4555 213.982 51.4629C214.208 51.4703 214.402 51.4184 214.565 51.3071C214.732 51.1958 214.867 51.0067 214.971 50.7396L215.11 50.3779L212.048 41.5869H214.538L216.305 47.863H216.394L218.178 41.5869H220.684L217.366 51.0567C217.207 51.5167 216.99 51.9173 216.716 52.2586C216.446 52.6035 216.103 52.8687 215.688 53.0542C215.273 53.2434 214.773 53.338 214.187 53.338Z" fill="#343844"/>
<path d="M211.184 41.5866V43.3671H206.043V41.5866H211.184ZM207.21 39.5391H209.577V47.5066C209.577 47.7255 209.611 47.8961 209.678 48.0185C209.744 48.1372 209.837 48.2207 209.955 48.2689C210.078 48.3171 210.218 48.3412 210.378 48.3412C210.489 48.3412 210.6 48.332 210.711 48.3134C210.822 48.2911 210.908 48.2745 210.967 48.2633L211.339 50.0271C211.221 50.0642 211.054 50.1068 210.839 50.1551C210.624 50.207 210.363 50.2385 210.055 50.2497C209.485 50.2719 208.985 50.1959 208.555 50.0215C208.129 49.8472 207.797 49.5764 207.56 49.2092C207.323 48.842 207.206 48.3783 207.21 47.8182V39.5391Z" fill="#343844"/>
<path d="M202.379 50.1329V41.5866H204.747V50.1329H202.379ZM203.569 40.485C203.217 40.485 202.915 40.3681 202.663 40.1344C202.415 39.8971 202.291 39.6133 202.291 39.2832C202.291 38.9567 202.415 38.6767 202.663 38.443C202.915 38.2056 203.217 38.0869 203.569 38.0869C203.921 38.0869 204.221 38.2056 204.469 38.443C204.721 38.6767 204.847 38.9567 204.847 39.2832C204.847 39.6133 204.721 39.8971 204.469 40.1344C204.221 40.3681 203.921 40.485 203.569 40.485Z" fill="#343844"/>
<path d="M201.168 41.5869L198.184 50.1331H195.516L192.532 41.5869H195.033L196.805 47.7017H196.894L198.662 41.5869H201.168Z" fill="#343844"/>
<path d="M188.946 50.1329V41.5866H191.313V50.1329H188.946ZM190.135 40.485C189.783 40.485 189.481 40.3681 189.229 40.1344C188.981 39.8971 188.857 39.6133 188.857 39.2832C188.857 38.9567 188.981 38.6767 189.229 38.443C189.481 38.2056 189.783 38.0869 190.135 38.0869C190.487 38.0869 190.787 38.2056 191.035 38.443C191.287 38.6767 191.413 38.9567 191.413 39.2832C191.413 39.6133 191.287 39.8971 191.035 40.1344C190.787 40.3681 190.487 40.485 190.135 40.485Z" fill="#343844"/>
<path d="M187.403 41.5866V43.3671H182.263V41.5866H187.403ZM183.43 39.5391H185.797V47.5066C185.797 47.7255 185.831 47.8961 185.897 48.0185C185.964 48.1372 186.057 48.2207 186.175 48.2689C186.297 48.3171 186.438 48.3412 186.597 48.3412C186.709 48.3412 186.82 48.332 186.931 48.3134C187.042 48.2911 187.127 48.2745 187.187 48.2633L187.559 50.0271C187.44 50.0642 187.274 50.1068 187.059 50.1551C186.844 50.207 186.583 50.2385 186.275 50.2497C185.705 50.2719 185.204 50.1959 184.775 50.0215C184.349 49.8472 184.017 49.5764 183.78 49.2092C183.543 48.842 183.426 48.3783 183.43 47.8182V39.5391Z" fill="#343844"/>
<path d="M177.535 50.3C176.661 50.3 175.908 50.1145 175.279 49.7436C174.652 49.369 174.171 48.8497 173.834 48.1857C173.5 47.5217 173.333 46.7576 173.333 45.8934C173.333 45.018 173.502 44.2501 173.839 43.5899C174.18 42.9259 174.664 42.4085 175.29 42.0375C175.916 41.6629 176.661 41.4756 177.524 41.4756C178.268 41.4756 178.921 41.611 179.48 41.8818C180.039 42.1525 180.482 42.5327 180.808 43.0224C181.134 43.512 181.314 44.0869 181.347 44.7472H179.113C179.05 44.3206 178.884 43.9775 178.613 43.7179C178.346 43.4545 177.996 43.3228 177.563 43.3228C177.196 43.3228 176.875 43.423 176.601 43.6233C176.331 43.8199 176.12 44.1073 175.968 44.4857C175.816 44.864 175.74 45.3221 175.74 45.86C175.74 46.4052 175.814 46.8689 175.962 47.251C176.114 47.633 176.327 47.9242 176.601 48.1245C176.875 48.3248 177.196 48.425 177.563 48.425C177.833 48.425 178.076 48.3693 178.291 48.258C178.509 48.1468 178.689 47.9854 178.83 47.774C178.974 47.5588 179.069 47.301 179.113 47.0006H181.347C181.31 47.6534 181.132 48.2284 180.814 48.7254C180.499 49.2187 180.064 49.6045 179.508 49.8827C178.952 50.1609 178.294 50.3 177.535 50.3Z" fill="#343844"/>
<path d="M167.034 50.2944C166.489 50.2944 166.004 50.1999 165.578 50.0107C165.152 49.8178 164.815 49.534 164.566 49.1594C164.322 48.781 164.2 48.31 164.2 47.7462C164.2 47.2714 164.287 46.8726 164.461 46.5499C164.635 46.2272 164.872 45.9675 165.172 45.771C165.472 45.5744 165.813 45.426 166.195 45.3258C166.58 45.2257 166.984 45.1552 167.406 45.1144C167.903 45.0625 168.303 45.0143 168.607 44.9697C168.911 44.9215 169.131 44.851 169.268 44.7583C169.405 44.6656 169.474 44.5283 169.474 44.3466V44.3132C169.474 43.9608 169.363 43.6882 169.14 43.4953C168.922 43.3024 168.61 43.206 168.207 43.206C167.781 43.206 167.442 43.3006 167.19 43.4897C166.938 43.6752 166.771 43.9089 166.689 44.1908L164.5 44.0127C164.611 43.4934 164.83 43.0446 165.156 42.6663C165.482 42.2842 165.902 41.9912 166.417 41.7872C166.936 41.5794 167.536 41.4756 168.218 41.4756C168.692 41.4756 169.146 41.5312 169.579 41.6425C170.016 41.7538 170.404 41.9263 170.741 42.16C171.082 42.3936 171.35 42.6941 171.547 43.0613C171.743 43.4248 171.841 43.8607 171.841 44.3688V50.1331H169.596V48.948H169.529C169.392 49.215 169.209 49.4506 168.979 49.6546C168.749 49.8549 168.473 50.0125 168.151 50.1275C167.829 50.2388 167.456 50.2944 167.034 50.2944ZM167.712 48.6586C168.06 48.6586 168.368 48.59 168.635 48.4528C168.901 48.3118 169.111 48.1226 169.263 47.8853C169.414 47.6479 169.49 47.3789 169.49 47.0785V46.1716C169.416 46.2198 169.314 46.2643 169.185 46.3051C169.059 46.3422 168.916 46.3774 168.757 46.4108C168.597 46.4405 168.438 46.4683 168.279 46.4943C168.12 46.5165 167.975 46.5369 167.845 46.5555C167.568 46.5963 167.325 46.6612 167.117 46.7502C166.91 46.8392 166.749 46.9598 166.634 47.1119C166.519 47.2602 166.462 47.4457 166.462 47.6683C166.462 47.991 166.578 48.2376 166.812 48.4083C167.049 48.5752 167.349 48.6586 167.712 48.6586Z" fill="#343844"/>
<path d="M153.27 53.338C152.97 53.338 152.688 53.3139 152.425 53.2656C152.166 53.2211 151.951 53.1636 151.781 53.0932L152.314 51.3238C152.592 51.4091 152.842 51.4555 153.064 51.4629C153.29 51.4703 153.485 51.4184 153.648 51.3071C153.815 51.1958 153.95 51.0067 154.054 50.7396L154.193 50.3779L151.13 41.5869H153.62L155.387 47.863H155.476L157.26 41.5869H159.767L156.449 51.0567C156.29 51.5167 156.073 51.9173 155.799 52.2586C155.528 52.6035 155.185 52.8687 154.77 53.0542C154.356 53.2434 153.855 53.338 153.27 53.338Z" fill="#343844"/>
<path d="M149.912 38.7378V50.1328H147.544V38.7378H149.912Z" fill="#343844"/>
<path d="M140.581 47.6735L140.586 44.8303H140.931L143.665 41.5865H146.383L142.709 45.8819H142.148L140.581 47.6735ZM138.436 50.1328V38.7378H140.803V50.1328H138.436ZM143.771 50.1328L141.259 46.4105L142.837 44.7357L146.544 50.1328H143.771Z" fill="#343844"/>
<path d="M132.973 50.3C132.095 50.3 131.339 50.122 130.706 49.7659C130.076 49.4061 129.59 48.8979 129.25 48.2413C128.909 47.5811 128.738 46.8003 128.738 45.8989C128.738 45.0198 128.909 44.2483 129.25 43.5843C129.59 42.9204 130.07 42.4029 130.689 42.032C131.311 41.6611 132.041 41.4756 132.879 41.4756C133.442 41.4756 133.966 41.5665 134.451 41.7482C134.94 41.9263 135.366 42.1952 135.73 42.555C136.096 42.9148 136.382 43.3673 136.585 43.9126C136.789 44.4542 136.891 45.0884 136.891 45.8155V46.4664H129.683V44.9976H134.662C134.662 44.6563 134.588 44.354 134.44 44.0906C134.292 43.8273 134.086 43.6214 133.823 43.473C133.564 43.321 133.262 43.2449 132.917 43.2449C132.558 43.2449 132.239 43.3284 131.962 43.4953C131.687 43.6585 131.473 43.8792 131.317 44.1574C131.161 44.4319 131.082 44.7379 131.078 45.0755V46.472C131.078 46.8949 131.156 47.2602 131.311 47.5681C131.471 47.876 131.695 48.1134 131.984 48.2803C132.273 48.4472 132.616 48.5307 133.012 48.5307C133.275 48.5307 133.516 48.4936 133.734 48.4194C133.953 48.3452 134.14 48.2339 134.296 48.0856C134.451 47.9372 134.57 47.7554 134.651 47.5403L136.841 47.6849C136.73 48.2117 136.502 48.6716 136.157 49.0648C135.817 49.4543 135.376 49.7584 134.835 49.9773C134.298 50.1924 133.677 50.3 132.973 50.3Z" fill="#343844"/>
<path d="M123.62 50.3C122.741 50.3 121.986 50.122 121.352 49.7659C120.722 49.4061 120.237 48.8979 119.896 48.2413C119.555 47.5811 119.385 46.8003 119.385 45.8989C119.385 45.0198 119.555 44.2483 119.896 43.5843C120.237 42.9204 120.717 42.4029 121.335 42.032C121.958 41.6611 122.688 41.4756 123.525 41.4756C124.088 41.4756 124.612 41.5665 125.098 41.7482C125.587 41.9263 126.013 42.1952 126.376 42.555C126.743 42.9148 127.028 43.3673 127.232 43.9126C127.436 44.4542 127.537 45.0884 127.537 45.8155V46.4664H120.33V44.9976H125.309C125.309 44.6563 125.235 44.354 125.087 44.0906C124.938 43.8273 124.733 43.6214 124.47 43.473C124.21 43.321 123.909 43.2449 123.564 43.2449C123.205 43.2449 122.886 43.3284 122.608 43.4953C122.334 43.6585 122.119 43.8792 121.963 44.1574C121.808 44.4319 121.728 44.7379 121.724 45.0755V46.472C121.724 46.8949 121.802 47.2602 121.958 47.5681C122.117 47.876 122.341 48.1134 122.63 48.2803C122.919 48.4472 123.262 48.5307 123.658 48.5307C123.921 48.5307 124.162 48.4936 124.381 48.4194C124.599 48.3452 124.787 48.2339 124.942 48.0856C125.098 47.9372 125.216 47.7554 125.298 47.5403L127.487 47.6849C127.376 48.2117 127.148 48.6716 126.804 49.0648C126.463 49.4543 126.022 49.7584 125.481 49.9773C124.944 50.1924 124.323 50.3 123.62 50.3Z" fill="#343844"/>
<path d="M108.316 50.1331L105.993 41.5869H108.388L109.711 47.3289H109.789L111.167 41.5869H113.518L114.918 47.2955H114.991L116.291 41.5869H118.681L116.363 50.1331H113.857L112.39 44.7584H112.284L110.817 50.1331H108.316Z" fill="#343844"/>
<path d="M96.6064 50.133V41.5868H98.9017V43.0779H98.9906C99.1462 42.5475 99.4074 42.1469 99.7742 41.8761C100.141 41.6016 100.563 41.4644 101.041 41.4644C101.16 41.4644 101.288 41.4718 101.425 41.4866C101.562 41.5014 101.682 41.5218 101.786 41.5478V43.651C101.675 43.6176 101.521 43.5879 101.325 43.562C101.128 43.536 100.949 43.523 100.786 43.523C100.437 43.523 100.126 43.5991 99.852 43.7511C99.5815 43.8995 99.3666 44.1072 99.2073 44.3743C99.0517 44.6414 98.9739 44.9492 98.9739 45.2979V50.133H96.6064Z" fill="#343844"/>
<path d="M92.3452 46.4943V41.5869H94.7126V50.1331H92.4396V48.5808H92.3507C92.1581 49.0815 91.8376 49.484 91.3893 49.7882C90.9447 50.0923 90.4019 50.2444 89.761 50.2444C89.1904 50.2444 88.6884 50.1146 88.2549 49.8549C87.8214 49.5953 87.4824 49.2262 87.2379 48.7477C86.9971 48.2692 86.8748 47.6961 86.8711 47.0285V41.5869H89.2386V46.6056C89.2423 47.1101 89.3775 47.5088 89.6442 47.8018C89.911 48.0949 90.2685 48.2414 90.7168 48.2414C91.0021 48.2414 91.2689 48.1765 91.5171 48.0467C91.7653 47.9131 91.9654 47.7165 92.1173 47.4569C92.2729 47.1972 92.3489 46.8764 92.3452 46.4943Z" fill="#343844"/>
<path d="M81.1306 50.3C80.2674 50.3 79.5208 50.1164 78.891 49.7492C78.2648 49.3782 77.7813 48.8626 77.4405 48.2024C77.0996 47.5384 76.9292 46.7688 76.9292 45.8934C76.9292 45.0105 77.0996 44.239 77.4405 43.5788C77.7813 42.9148 78.2648 42.3992 78.891 42.032C79.5208 41.6611 80.2674 41.4756 81.1306 41.4756C81.9939 41.4756 82.7386 41.6611 83.3647 42.032C83.9945 42.3992 84.4799 42.9148 84.8207 43.5788C85.1616 44.239 85.332 45.0105 85.332 45.8934C85.332 46.7688 85.1616 47.5384 84.8207 48.2024C84.4799 48.8626 83.9945 49.3782 83.3647 49.7492C82.7386 50.1164 81.9939 50.3 81.1306 50.3ZM81.1417 48.4639C81.5344 48.4639 81.8623 48.3526 82.1254 48.1301C82.3884 47.9038 82.5867 47.5959 82.72 47.2064C82.8571 46.817 82.9257 46.3737 82.9257 45.8767C82.9257 45.3796 82.8571 44.9364 82.72 44.5469C82.5867 44.1574 82.3884 43.8495 82.1254 43.6233C81.8623 43.397 81.5344 43.2839 81.1417 43.2839C80.7453 43.2839 80.4118 43.397 80.1414 43.6233C79.8746 43.8495 79.6727 44.1574 79.5356 44.5469C79.4023 44.9364 79.3356 45.3796 79.3356 45.8767C79.3356 46.3737 79.4023 46.817 79.5356 47.2064C79.6727 47.5959 79.8746 47.9038 80.1414 48.1301C80.4118 48.3526 80.7453 48.4639 81.1417 48.4639Z" fill="#343844"/>
<path d="M67.0991 38.7378H69.7945L72.3898 43.6452H72.5009L75.0962 38.7378H77.7916L73.6402 46.1045V50.1328H71.2505V46.1045L67.0991 38.7378Z" fill="#343844"/>
<path d="M98.0762 76.2466C98.0762 74.8044 99.2453 73.6353 100.688 73.6353H187.624C189.066 73.6353 190.235 74.8044 190.235 76.2466V76.2466C190.235 77.6888 189.066 78.8579 187.624 78.8579H100.688C99.2453 78.8579 98.0762 77.6888 98.0762 76.2466V76.2466Z" fill="#D2D5E2"/>
<path d="M101.237 103.829C100.702 103.829 100.229 103.739 99.8184 103.557C99.408 103.369 99.0846 103.105 98.8481 102.764C98.6116 102.415 98.4899 101.994 98.4829 101.5H99.8914C99.9053 101.841 100.027 102.13 100.257 102.367C100.493 102.597 100.816 102.711 101.227 102.711C101.582 102.711 101.863 102.628 102.072 102.461C102.281 102.287 102.385 102.057 102.385 101.771C102.385 101.472 102.291 101.239 102.103 101.071C101.922 100.904 101.679 100.769 101.373 100.664C101.067 100.56 100.74 100.448 100.392 100.33C99.8288 100.135 99.3975 99.8842 99.0985 99.5778C98.8063 99.2714 98.6603 98.864 98.6603 98.3557C98.6533 97.9239 98.7542 97.5549 98.9628 97.2485C99.1785 96.9351 99.4706 96.6949 99.8392 96.5277C100.208 96.3536 100.632 96.2666 101.112 96.2666C101.599 96.2666 102.027 96.3536 102.395 96.5277C102.771 96.7018 103.063 96.9456 103.272 97.2589C103.487 97.5723 103.602 97.9448 103.616 98.3766H102.187C102.18 98.1189 102.079 97.8926 101.884 97.6976C101.696 97.4957 101.432 97.3947 101.091 97.3947C100.799 97.3877 100.552 97.4609 100.35 97.6141C100.156 97.7603 100.058 97.9762 100.058 98.2617C100.058 98.5054 100.135 98.7004 100.288 98.8466C100.441 98.9859 100.65 99.1043 100.914 99.2018C101.178 99.2992 101.481 99.4037 101.822 99.5151C102.183 99.6405 102.514 99.7867 102.813 99.9538C103.112 100.121 103.352 100.344 103.533 100.622C103.713 100.894 103.804 101.246 103.804 101.677C103.804 102.06 103.706 102.415 103.512 102.743C103.317 103.07 103.028 103.335 102.646 103.537C102.263 103.732 101.794 103.829 101.237 103.829Z" fill="#79829F"/>
<path d="M93.313 103.704V96.3921H94.6484V102.659H97.8827V103.704H93.313Z" fill="#79829F"/>
<path d="M90.562 103.704V96.3921H91.8975V103.704H90.562Z" fill="#79829F"/>
<path d="M82.7773 103.704L85.4482 96.3921H86.9506L89.6215 103.704H88.2026L87.6183 102.012H84.7701L84.1754 103.704H82.7773ZM85.1352 100.967H87.2532L86.189 97.9276L85.1352 100.967Z" fill="#79829F"/>
<path d="M74.0361 103.704V96.3921H75.622L77.9486 101.03L80.2438 96.3921H81.8297V103.704H80.4942V98.6587L78.4598 102.659H77.406L75.3716 98.6587V103.704H74.0361Z" fill="#79829F"/>
<path d="M68.0044 103.704V96.3921H72.7723V97.468H69.3398V99.4735H72.4593V100.518H69.3398V102.628H72.7723V103.704H68.0044Z" fill="#79829F"/>
<path d="M86.3487 140.669L93.4641 124.722H84.1655V121.781H97.0217V124.236L89.9333 140.669H86.3487Z" fill="#1C1F25"/>
<path d="M77.9569 140.398V125.449L74.8574 126.177V123.533L79.4124 121.509H81.5416V140.398H77.9569Z" fill="#1C1F25"/>
<path d="M79.353 161.639L74.6115 167.93C74.1149 168.589 74.585 169.532 75.4101 169.532H84.4981C85.3043 169.532 85.7791 168.627 85.3208 167.964L80.9744 161.672C80.5868 161.111 79.7635 161.094 79.353 161.639Z" fill="#387FF5"/>
<path d="M95.1705 169.032V167.508H91.0425V166.224L94.9545 160.632H96.7905V166.104H97.8825V167.508H96.7905V169.032H95.1705ZM92.7705 166.104H95.2785V162.42L92.7705 166.104Z" fill="#1C1F25"/>
<path d="M149.896 103.829C149.36 103.829 148.887 103.739 148.477 103.557C148.067 103.369 147.743 103.105 147.507 102.764C147.27 102.415 147.149 101.994 147.142 101.5H148.55C148.564 101.841 148.686 102.13 148.915 102.367C149.152 102.597 149.475 102.711 149.886 102.711C150.24 102.711 150.522 102.628 150.731 102.461C150.939 102.287 151.044 102.057 151.044 101.771C151.044 101.472 150.95 101.239 150.762 101.071C150.581 100.904 150.338 100.769 150.032 100.664C149.726 100.56 149.399 100.448 149.051 100.33C148.487 100.135 148.056 99.8842 147.757 99.5778C147.465 99.2714 147.319 98.864 147.319 98.3557C147.312 97.9239 147.413 97.5549 147.622 97.2485C147.837 96.9351 148.129 96.6949 148.498 96.5277C148.867 96.3536 149.291 96.2666 149.771 96.2666C150.258 96.2666 150.685 96.3536 151.054 96.5277C151.43 96.7018 151.722 96.9456 151.93 97.2589C152.146 97.5723 152.261 97.9448 152.275 98.3766H150.845C150.838 98.1189 150.738 97.8926 150.543 97.6976C150.355 97.4957 150.091 97.3947 149.75 97.3947C149.458 97.3877 149.211 97.4609 149.009 97.6141C148.814 97.7603 148.717 97.9762 148.717 98.2617C148.717 98.5054 148.794 98.7004 148.947 98.8466C149.1 98.9859 149.308 99.1043 149.573 99.2018C149.837 99.2992 150.139 99.4037 150.48 99.5151C150.842 99.6405 151.172 99.7867 151.471 99.9538C151.77 100.121 152.01 100.344 152.191 100.622C152.372 100.894 152.462 101.246 152.462 101.677C152.462 102.06 152.365 102.415 152.17 102.743C151.976 103.07 151.687 103.335 151.304 103.537C150.922 103.732 150.452 103.829 149.896 103.829Z" fill="#79829F"/>
<path d="M141.972 103.704V96.3921H143.307V102.659H146.541V103.704H141.972Z" fill="#79829F"/>
<path d="M136.226 103.704V96.3921H137.561V102.659H140.795V103.704H136.226Z" fill="#79829F"/>
<path d="M128.44 103.704L131.111 96.3921H132.614L135.285 103.704H133.866L133.281 102.012H130.433L129.838 103.704H128.44ZM130.798 100.967H132.916L131.852 97.9276L130.798 100.967Z" fill="#79829F"/>
<path d="M124.617 103.829C123.879 103.829 123.246 103.672 122.718 103.359C122.189 103.039 121.782 102.597 121.497 102.032C121.212 101.461 121.069 100.803 121.069 100.058C121.069 99.3132 121.212 98.6551 121.497 98.0841C121.782 97.5131 122.189 97.0674 122.718 96.7471C123.246 96.4268 123.879 96.2666 124.617 96.2666C125.493 96.2666 126.209 96.486 126.766 96.9247C127.329 97.3564 127.68 97.9657 127.82 98.7526H126.348C126.258 98.3557 126.063 98.0458 125.764 97.823C125.472 97.5932 125.083 97.4783 124.596 97.4783C123.921 97.4783 123.392 97.7081 123.01 98.1677C122.627 98.6273 122.436 99.2575 122.436 100.058C122.436 100.859 122.627 101.489 123.01 101.949C123.392 102.402 123.921 102.628 124.596 102.628C125.083 102.628 125.472 102.523 125.764 102.314C126.063 102.099 126.258 101.803 126.348 101.427H127.82C127.68 102.179 127.329 102.767 126.766 103.192C126.209 103.617 125.493 103.829 124.617 103.829Z" fill="#79829F"/>
<path d="M144.707 141.046C143.324 141.046 142.129 140.803 141.123 140.317C140.134 139.831 139.353 139.166 138.778 138.32C138.221 137.457 137.897 136.485 137.808 135.406H141.177C141.338 136.179 141.734 136.827 142.363 137.349C142.991 137.852 143.773 138.104 144.707 138.104C145.714 138.104 146.531 137.736 147.16 136.998C147.807 136.26 148.13 135.343 148.13 134.246C148.13 133.112 147.807 132.213 147.16 131.547C146.531 130.882 145.732 130.549 144.761 130.549C143.953 130.549 143.252 130.747 142.659 131.142C142.066 131.538 141.644 132.033 141.392 132.627H138.077L139.694 121.833H150.152V124.855H142.282L141.419 129.227C141.815 128.795 142.354 128.444 143.036 128.174C143.719 127.886 144.483 127.742 145.327 127.742C146.675 127.742 147.798 128.048 148.696 128.66C149.595 129.254 150.278 130.045 150.745 131.035C151.212 132.006 151.445 133.067 151.445 134.219C151.445 135.532 151.158 136.701 150.583 137.727C150.026 138.752 149.235 139.561 148.211 140.155C147.205 140.749 146.037 141.046 144.707 141.046Z" fill="#1C1F25"/>
<path d="M122.086 140.722V138.212C123.236 137.259 124.35 136.314 125.429 135.379C126.525 134.444 127.495 133.517 128.339 132.6C129.202 131.682 129.885 130.792 130.388 129.928C130.909 129.047 131.169 128.192 131.169 127.365C131.169 126.591 130.954 125.908 130.522 125.314C130.109 124.72 129.417 124.424 128.447 124.424C127.459 124.424 126.713 124.747 126.21 125.395C125.707 126.043 125.455 126.825 125.455 127.743H122.113C122.149 126.357 122.455 125.206 123.03 124.289C123.605 123.353 124.368 122.661 125.321 122.211C126.273 121.743 127.342 121.509 128.528 121.509C130.451 121.509 131.942 122.04 133.002 123.101C134.08 124.145 134.619 125.503 134.619 127.176C134.619 128.219 134.377 129.236 133.892 130.225C133.424 131.214 132.804 132.168 132.032 133.085C131.259 134.003 130.424 134.866 129.525 135.676C128.627 136.467 127.755 137.205 126.911 137.889H135.077V140.722H122.086Z" fill="#1C1F25"/>
<path d="M130.714 162.286L125.973 168.578C125.476 169.237 125.946 170.18 126.771 170.18H135.859C136.666 170.18 137.14 169.275 136.682 168.611L132.336 162.32C131.948 161.759 131.125 161.742 130.714 162.286Z" fill="#387FF5"/>
<path d="M143.453 169.68L146.453 162.66H142.385V161.28H148.121V162.42L145.133 169.68H143.453Z" fill="#1C1F25"/>
<path d="M217.87 103.829C217.334 103.829 216.861 103.739 216.451 103.557C216.04 103.369 215.717 103.105 215.48 102.764C215.244 102.415 215.122 101.994 215.115 101.5H216.524C216.538 101.841 216.659 102.13 216.889 102.367C217.125 102.597 217.449 102.711 217.859 102.711C218.214 102.711 218.496 102.628 218.704 102.461C218.913 102.287 219.017 102.057 219.017 101.771C219.017 101.472 218.923 101.239 218.736 101.071C218.555 100.904 218.311 100.769 218.005 100.664C217.699 100.56 217.372 100.448 217.024 100.33C216.461 100.135 216.03 99.8842 215.731 99.5778C215.439 99.2714 215.293 98.864 215.293 98.3557C215.286 97.9239 215.386 97.5549 215.595 97.2485C215.811 96.9351 216.103 96.6949 216.472 96.5277C216.84 96.3536 217.264 96.2666 217.744 96.2666C218.231 96.2666 218.659 96.3536 219.028 96.5277C219.403 96.7018 219.695 96.9456 219.904 97.2589C220.12 97.5723 220.234 97.9448 220.248 98.3766H218.819C218.812 98.1189 218.711 97.8926 218.516 97.6976C218.329 97.4957 218.064 97.3947 217.724 97.3947C217.431 97.3877 217.184 97.4609 216.983 97.6141C216.788 97.7603 216.691 97.9762 216.691 98.2617C216.691 98.5054 216.767 98.7004 216.92 98.8466C217.073 98.9859 217.282 99.1043 217.546 99.2018C217.81 99.2992 218.113 99.4037 218.454 99.5151C218.816 99.6405 219.146 99.7867 219.445 99.9538C219.744 100.121 219.984 100.344 220.165 100.622C220.346 100.894 220.436 101.246 220.436 101.677C220.436 102.06 220.339 102.415 220.144 102.743C219.949 103.07 219.661 103.335 219.278 103.537C218.896 103.732 218.426 103.829 217.87 103.829Z" fill="#79829F"/>
<path d="M210.499 103.829C209.81 103.829 209.209 103.672 208.694 103.359C208.179 103.046 207.779 102.61 207.494 102.053C207.209 101.489 207.066 100.835 207.066 100.09C207.066 99.3375 207.212 98.676 207.505 98.105C207.804 97.527 208.224 97.0779 208.767 96.7575C209.316 96.4302 209.967 96.2666 210.718 96.2666C211.574 96.2666 212.283 96.472 212.846 96.8829C213.41 97.2937 213.775 97.8613 213.942 98.5855H212.45C212.339 98.2443 212.137 97.9796 211.845 97.7916C211.553 97.5966 211.177 97.4992 210.718 97.4992C209.988 97.4992 209.424 97.7324 209.028 98.199C208.631 98.6586 208.433 99.2923 208.433 100.1C208.433 100.908 208.628 101.535 209.017 101.98C209.414 102.419 209.949 102.638 210.624 102.638C211.285 102.638 211.782 102.461 212.116 102.106C212.457 101.743 212.662 101.27 212.732 100.685H210.885V99.6822H214.077V103.704H212.846L212.742 102.743C212.506 103.091 212.21 103.359 211.855 103.547C211.5 103.735 211.048 103.829 210.499 103.829Z" fill="#79829F"/>
<path d="M199.787 103.704V96.3921H201.123L204.555 101.542V96.3921H205.89V103.704H204.555L201.123 98.5647V103.704H199.787Z" fill="#79829F"/>
<path d="M197.036 103.704V96.3921H198.372V103.704H197.036Z" fill="#79829F"/>
<path d="M192.573 103.704V97.468H190.444V96.3921H196.047V97.468H193.908V103.704H192.573Z" fill="#79829F"/>
<path d="M184.841 103.704V96.3921H189.609V97.468H186.176V99.4735H189.296V100.518H186.176V102.628H189.609V103.704H184.841Z" fill="#79829F"/>
<path d="M178.809 103.704V96.3921H183.577V97.468H180.145V99.4735H183.264V100.518H180.145V102.628H183.577V103.704H178.809Z" fill="#79829F"/>
<path d="M169.599 103.704V96.3921H171.184L173.511 101.03L175.806 96.3921H177.392V103.704H176.057V98.6587L174.022 102.659H172.969L170.934 98.6587V103.704H169.599Z" fill="#79829F"/>
<path d="M203.029 141.318C201.646 141.318 200.451 141.075 199.445 140.589C198.456 140.103 197.675 139.438 197.1 138.592C196.543 137.729 196.219 136.757 196.129 135.678H199.498C199.66 136.451 200.055 137.099 200.684 137.621C201.313 138.124 202.095 138.376 203.029 138.376C204.035 138.376 204.853 138.007 205.482 137.27C206.129 136.532 206.452 135.615 206.452 134.518C206.452 133.384 206.129 132.485 205.482 131.819C204.853 131.154 204.053 130.821 203.083 130.821C202.275 130.821 201.574 131.019 200.981 131.414C200.388 131.81 199.966 132.305 199.714 132.899H196.399L198.016 122.105H208.474V125.127H200.603L199.741 129.499C200.136 129.067 200.675 128.716 201.358 128.446C202.041 128.158 202.805 128.014 203.649 128.014C204.997 128.014 206.12 128.32 207.018 128.932C207.917 129.526 208.599 130.317 209.066 131.306C209.534 132.278 209.767 133.339 209.767 134.491C209.767 135.804 209.48 136.973 208.905 137.998C208.348 139.024 207.557 139.833 206.533 140.427C205.527 141.021 204.359 141.318 203.029 141.318Z" fill="#1C1F25"/>
<path d="M180.409 140.993V138.484C181.559 137.53 182.673 136.586 183.751 135.65C184.847 134.715 185.817 133.789 186.662 132.871C187.524 131.954 188.207 131.063 188.71 130.2C189.231 129.318 189.492 128.464 189.492 127.636C189.492 126.863 189.276 126.179 188.845 125.585C188.431 124.992 187.74 124.695 186.769 124.695C185.781 124.695 185.035 125.019 184.532 125.666C184.029 126.314 183.778 127.097 183.778 128.014H180.436C180.472 126.629 180.777 125.478 181.352 124.56C181.927 123.625 182.691 122.932 183.643 122.482C184.595 122.015 185.664 121.781 186.85 121.781C188.773 121.781 190.264 122.311 191.324 123.373C192.402 124.416 192.941 125.774 192.941 127.447C192.941 128.491 192.699 129.507 192.214 130.497C191.747 131.486 191.127 132.439 190.354 133.357C189.581 134.274 188.746 135.138 187.848 135.947C186.949 136.739 186.078 137.476 185.233 138.16H193.4V140.993H180.409Z" fill="#1C1F25"/>
<path d="M188.466 162.286L183.725 168.578C183.228 169.237 183.698 170.18 184.523 170.18H193.611C194.418 170.18 194.892 169.275 194.434 168.611L190.088 162.32C189.7 161.759 188.877 161.742 188.466 162.286Z" fill="#387FF5"/>
<path d="M200.632 169.68V168.492C201.152 168.084 201.656 167.676 202.144 167.268C202.632 166.86 203.068 166.456 203.452 166.056C203.844 165.648 204.152 165.252 204.376 164.868C204.608 164.484 204.724 164.112 204.724 163.752C204.724 163.528 204.68 163.324 204.592 163.14C204.512 162.948 204.384 162.796 204.208 162.684C204.032 162.564 203.8 162.504 203.512 162.504C203.232 162.504 202.992 162.568 202.792 162.696C202.6 162.824 202.452 162.996 202.348 163.212C202.252 163.42 202.204 163.656 202.204 163.92H200.644C200.66 163.304 200.796 162.788 201.052 162.372C201.316 161.956 201.664 161.648 202.096 161.448C202.536 161.24 203.024 161.136 203.56 161.136C204.152 161.136 204.652 161.248 205.06 161.472C205.476 161.688 205.792 161.984 206.008 162.36C206.232 162.736 206.344 163.168 206.344 163.656C206.344 164.024 206.272 164.384 206.128 164.736C205.992 165.088 205.804 165.432 205.564 165.768C205.332 166.096 205.068 166.412 204.772 166.716C204.476 167.02 204.164 167.312 203.836 167.592C203.508 167.864 203.192 168.12 202.888 168.36H206.536V169.68H200.632Z" fill="#1C1F25"/>
<path d="M101.989 192.016C101.989 190.574 103.158 189.405 104.6 189.405H155.89C157.332 189.405 158.502 190.574 158.502 192.016V192.016C158.502 193.458 157.332 194.627 155.89 194.627H104.6C103.158 194.627 101.989 193.458 101.989 192.016V192.016Z" fill="#D2D5E2"/>
<path d="M172.413 192.016C172.413 190.574 173.582 189.405 175.024 189.405H183.712C185.154 189.405 186.323 190.574 186.323 192.016V192.016C186.323 193.458 185.154 194.627 183.712 194.627H175.024C173.582 194.627 172.413 193.458 172.413 192.016V192.016Z" fill="#D2D5E2"/>
</g>
<defs>
<filter id="filter0_dddd_455_280" x="0" y="0.962891" width="288.312" height="272.037" filterUnits="userSpaceOnUse" color-interpolation-filters="sRGB">
<feFlood flood-opacity="0" result="BackgroundImageFix"/>
<feColorMatrix in="SourceAlpha" type="matrix" values="0 0 0 0 0 0 0 0 0 0 0 0 0 0 0 0 0 0 127 0" result="hardAlpha"/>
<feOffset dy="22"/>
<feGaussianBlur stdDeviation="16"/>
<feColorMatrix type="matrix" values="0 0 0 0 0.170868 0 0 0 0 0.225854 0 0 0 0 0.445799 0 0 0 0.05 0"/>
<feBlend mode="normal" in2="BackgroundImageFix" result="effect1_dropShadow_455_280"/>
<feColorMatrix in="SourceAlpha" type="matrix" values="0 0 0 0 0 0 0 0 0 0 0 0 0 0 0 0 0 0 127 0" result="hardAlpha"/>
<feOffset dy="18"/>
<feGaussianBlur stdDeviation="10"/>
<feColorMatrix type="matrix" values="0 0 0 0 0.170868 0 0 0 0 0.225854 0 0 0 0 0.445799 0 0 0 0.05 0"/>
<feBlend mode="normal" in2="effect1_dropShadow_455_280" result="effect2_dropShadow_455_280"/>
<feColorMatrix in="SourceAlpha" type="matrix" values="0 0 0 0 0 0 0 0 0 0 0 0 0 0 0 0 0 0 127 0" result="hardAlpha"/>
<feOffset dy="6"/>
<feGaussianBlur stdDeviation="4"/>
<feColorMatrix type="matrix" values="0 0 0 0 0.170868 0 0 0 0 0.225854 0 0 0 0 0.445799 0 0 0 0.05 0"/>
<feBlend mode="normal" in2="effect2_dropShadow_455_280" result="effect3_dropShadow_455_280"/>
<feColorMatrix in="SourceAlpha" type="matrix" values="0 0 0 0 0 0 0 0 0 0 0 0 0 0 0 0 0 0 127 0" result="hardAlpha"/>
<feOffset/>
<feGaussianBlur stdDeviation="0.5"/>
<feColorMatrix type="matrix" values="0 0 0 0 0.170868 0 0 0 0 0.225854 0 0 0 0 0.445799 0 0 0 0.05 0"/>
<feBlend mode="normal" in2="effect3_dropShadow_455_280" result="effect4_dropShadow_455_280"/>
<feBlend mode="normal" in="SourceGraphic" in2="effect4_dropShadow_455_280" result="shape"/>
</filter>
</defs>
</svg>
