<svg width="276" height="284" viewBox="0 0 276 284" fill="none" xmlns="http://www.w3.org/2000/svg">
<g filter="url(#filter0_dddd_524_9699)">
<rect x="32" y="10" width="211.5" height="219.406" rx="12" fill="#171C2F"/>
<rect x="32.5" y="10.5" width="210.5" height="218.406" rx="11.5" stroke="#2B324A"/>
<g clip-path="url(#clip0_524_9699)">
<rect x="53.0187" y="28.0687" width="76.8494" height="9.67967" rx="4.83984" fill="#2B324A"/>
<rect x="53.0187" y="44.2015" width="132.023" height="7.74374" rx="3.87187" fill="#2B324A"/>
<path fill-rule="evenodd" clip-rule="evenodd" d="M222.481 68.337L53.0187 68.337L53.0187 67.819L222.481 67.819L222.481 68.337Z" fill="#2B324A"/>
<rect x="61.376" y="175.628" width="5.18896" height="5.16997" rx="2.58498" fill="#2B324A"/>
<rect x="94.1483" y="175.628" width="5.18896" height="5.16997" rx="2.58498" fill="#2B324A"/>
<rect x="122.278" y="175.628" width="5.18896" height="5.16997" rx="2.58498" fill="#2B324A"/>
<rect x="148.722" y="175.628" width="5.18896" height="5.16997" rx="2.58498" fill="#2B324A"/>
<rect x="177.172" y="175.628" width="5.18896" height="5.16997" rx="2.58498" fill="#2B324A"/>
<rect x="205.574" y="175.628" width="5.18895" height="5.16997" rx="2.58498" fill="#2B324A"/>
<path fill-rule="evenodd" clip-rule="evenodd" d="M221.945 84.0924H53.555V171.028H221.945V84.0924ZM53.0187 83.5656V171.555H222.481V83.5656H53.0187Z" fill="#2B324A"/>
<path fill-rule="evenodd" clip-rule="evenodd" d="M222.481 100.162H53.0187V99.6354H222.481V100.162Z" fill="#2B324A"/>
<path fill-rule="evenodd" clip-rule="evenodd" d="M222.481 118.603H53.0187V118.076H222.481V118.603Z" fill="#2B324A"/>
<path fill-rule="evenodd" clip-rule="evenodd" d="M222.481 137.044H53.0187V136.517H222.481V137.044Z" fill="#2B324A"/>
<path fill-rule="evenodd" clip-rule="evenodd" d="M222.481 155.485H53.0187V154.958H222.481V155.485Z" fill="#2B324A"/>
<path fill-rule="evenodd" clip-rule="evenodd" d="M81.0393 171.555L81.0393 83.5656L81.5756 83.5656L81.5756 171.555L81.0393 171.555Z" fill="#2B324A"/>
<path fill-rule="evenodd" clip-rule="evenodd" d="M109.059 171.555L109.059 83.5656L109.595 83.5656L109.595 171.555L109.059 171.555Z" fill="#2B324A"/>
<path fill-rule="evenodd" clip-rule="evenodd" d="M137.078 171.555L137.078 83.5656L137.614 83.5656L137.614 171.555L137.078 171.555Z" fill="#2B324A"/>
<path fill-rule="evenodd" clip-rule="evenodd" d="M165.366 171.555L165.366 83.5656L165.903 83.5656L165.903 171.555L165.366 171.555Z" fill="#2B324A"/>
<path fill-rule="evenodd" clip-rule="evenodd" d="M193.386 171.555L193.386 83.5656L193.922 83.5656L193.922 171.555L193.386 171.555Z" fill="#2B324A"/>
<path d="M96.3696 95.181C96.3696 92.3299 98.7222 90.0186 101.624 90.0186C104.526 90.0186 106.879 92.3299 106.879 95.181V124.22C106.879 127.071 104.526 129.383 101.624 129.383C98.7222 129.383 96.3696 127.071 96.3696 124.22V95.181Z" fill="#FDAED0"/>
<path fill-rule="evenodd" clip-rule="evenodd" d="M105.806 124.22V95.181C105.806 92.9119 103.934 91.0723 101.624 91.0723C99.3146 91.0723 97.4422 92.9119 97.4422 95.181V124.22C97.4422 126.489 99.3146 128.329 101.624 128.329C103.934 128.329 105.806 126.489 105.806 124.22ZM101.624 90.0186C98.7222 90.0186 96.3696 92.3299 96.3696 95.181V124.22C96.3696 127.071 98.7222 129.383 101.624 129.383C104.526 129.383 106.879 127.071 106.879 124.22V95.181C106.879 92.3299 104.526 90.0186 101.624 90.0186Z" fill="#FA8DBB"/>
<path d="M66.8121 95.5037C66.8121 92.4743 69.3118 90.0186 72.3952 90.0186C75.4787 90.0186 77.9783 92.4743 77.9783 95.5037V123.897C77.9783 126.927 75.4787 129.383 72.3952 129.383C69.3118 129.383 66.8121 126.927 66.8121 123.897V95.5037Z" fill="#FDAED0"/>
<path fill-rule="evenodd" clip-rule="evenodd" d="M76.9057 123.897V95.5037C76.9057 93.0563 74.8863 91.0723 72.3952 91.0723C69.9041 91.0723 67.8847 93.0563 67.8847 95.5037V123.897C67.8847 126.345 69.9041 128.329 72.3952 128.329C74.8863 128.329 76.9057 126.345 76.9057 123.897ZM72.3952 90.0186C69.3118 90.0186 66.8121 92.4743 66.8121 95.5037V123.897C66.8121 126.927 69.3118 129.383 72.3952 129.383C75.4787 129.383 77.9783 126.927 77.9783 123.897V95.5037C77.9783 92.4743 75.4787 90.0186 72.3952 90.0186Z" fill="#FA8DBB"/>
<path d="M56.3029 131.49C56.3029 130.326 57.2633 129.383 58.448 129.383H64.667C65.8518 129.383 66.8122 130.326 66.8122 131.49V140.181C66.8122 141.345 65.8518 142.289 64.667 142.289H58.448C57.2633 142.289 56.3029 141.345 56.3029 140.181V131.49Z" fill="#B59DF9"/>
<path fill-rule="evenodd" clip-rule="evenodd" d="M64.667 130.436H58.448C57.8556 130.436 57.3754 130.908 57.3754 131.49V140.181C57.3754 140.763 57.8556 141.235 58.448 141.235H64.667C65.2594 141.235 65.7396 140.763 65.7396 140.181V131.49C65.7396 130.908 65.2594 130.436 64.667 130.436ZM58.448 129.383C57.2633 129.383 56.3029 130.326 56.3029 131.49V140.181C56.3029 141.345 57.2633 142.289 58.448 142.289H64.667C65.8518 142.289 66.8122 141.345 66.8122 140.181V131.49C66.8122 130.326 65.8518 129.383 64.667 129.383H58.448Z" fill="#9D7DF7"/>
<path d="M83.8898 116.003C83.8898 114.839 84.8502 113.895 86.0349 113.895H92.9108C94.0955 113.895 95.0559 114.839 95.0559 116.003V127.275C95.0559 128.439 94.0955 129.383 92.9108 129.383H86.0349C84.8502 129.383 83.8898 128.439 83.8898 127.275V116.003Z" fill="#B59DF9"/>
<path fill-rule="evenodd" clip-rule="evenodd" d="M92.9108 114.949H86.0349C85.4426 114.949 84.9623 115.421 84.9623 116.003V127.275C84.9623 127.857 85.4426 128.329 86.0349 128.329H92.9108C93.5031 128.329 93.9833 127.857 93.9833 127.275V116.003C93.9833 115.421 93.5031 114.949 92.9108 114.949ZM86.0349 113.895C84.8502 113.895 83.8898 114.839 83.8898 116.003V127.275C83.8898 128.439 84.8502 129.383 86.0349 129.383H92.9108C94.0955 129.383 95.0559 128.439 95.0559 127.275V116.003C95.0559 114.839 94.0955 113.895 92.9108 113.895H86.0349Z" fill="#9D7DF7"/>
<path d="M111.477 131.49C111.477 130.326 112.437 129.383 113.622 129.383H120.498C121.683 129.383 122.643 130.326 122.643 131.49V165.348C122.643 166.512 121.683 167.456 120.498 167.456H113.622C112.437 167.456 111.477 166.512 111.477 165.348V131.49Z" fill="#B59DF9"/>
<path fill-rule="evenodd" clip-rule="evenodd" d="M120.498 130.436H113.622C113.03 130.436 112.549 130.908 112.549 131.49V165.348C112.549 165.93 113.03 166.402 113.622 166.402H120.498C121.09 166.402 121.57 165.93 121.57 165.348V131.49C121.57 130.908 121.09 130.436 120.498 130.436ZM113.622 129.383C112.437 129.383 111.477 130.326 111.477 131.49V165.348C111.477 166.512 112.437 167.456 113.622 167.456H120.498C121.683 167.456 122.643 166.512 122.643 165.348V131.49C122.643 130.326 121.683 129.383 120.498 129.383H113.622Z" fill="#9D7DF7"/>
<path d="M139.721 131.49C139.721 130.326 140.681 129.383 141.866 129.383H148.742C149.926 129.383 150.887 130.326 150.887 131.49V138.245C150.887 139.409 149.926 140.353 148.742 140.353H141.866C140.681 140.353 139.721 139.409 139.721 138.245V131.49Z" fill="#B59DF9"/>
<path fill-rule="evenodd" clip-rule="evenodd" d="M148.742 130.436H141.866C141.273 130.436 140.793 130.908 140.793 131.49V138.245C140.793 138.827 141.273 139.299 141.866 139.299H148.742C149.334 139.299 149.814 138.827 149.814 138.245V131.49C149.814 130.908 149.334 130.436 148.742 130.436ZM141.866 129.383C140.681 129.383 139.721 130.326 139.721 131.49V138.245C139.721 139.409 140.681 140.353 141.866 140.353H148.742C149.926 140.353 150.887 139.409 150.887 138.245V131.49C150.887 130.326 149.926 129.383 148.742 129.383H141.866Z" fill="#9D7DF7"/>
<path d="M123.957 131.49C123.957 130.326 124.917 129.383 126.102 129.383H132.978C134.162 129.383 135.123 130.326 135.123 131.49V138.245C135.123 139.409 134.162 140.353 132.978 140.353H126.102C124.917 140.353 123.957 139.409 123.957 138.245V131.49Z" fill="#FDAED0"/>
<path fill-rule="evenodd" clip-rule="evenodd" d="M132.978 130.436H126.102C125.509 130.436 125.029 130.908 125.029 131.49V138.245C125.029 138.827 125.509 139.299 126.102 139.299H132.978C133.57 139.299 134.05 138.827 134.05 138.245V131.49C134.05 130.908 133.57 130.436 132.978 130.436ZM126.102 129.383C124.917 129.383 123.957 130.326 123.957 131.49V138.245C123.957 139.409 124.917 140.353 126.102 140.353H132.978C134.162 140.353 135.123 139.409 135.123 138.245V131.49C135.123 130.326 134.162 129.383 132.978 129.383H126.102Z" fill="#FA8DBB"/>
<path d="M168.621 113.421C168.621 112.257 169.582 111.314 170.766 111.314H176.985C178.17 111.314 179.131 112.257 179.131 113.421V126.63C179.131 127.794 178.17 128.737 176.985 128.737H170.766C169.582 128.737 168.621 127.794 168.621 126.63V113.421Z" fill="#B59DF9"/>
<path fill-rule="evenodd" clip-rule="evenodd" d="M176.985 112.368H170.766C170.174 112.368 169.694 112.839 169.694 113.421V126.63C169.694 127.212 170.174 127.683 170.766 127.683H176.985C177.578 127.683 178.058 127.212 178.058 126.63V113.421C178.058 112.839 177.578 112.368 176.985 112.368ZM170.766 111.314C169.582 111.314 168.621 112.257 168.621 113.421V126.63C168.621 127.794 169.582 128.737 170.766 128.737H176.985C178.17 128.737 179.131 127.794 179.131 126.63V113.421C179.131 112.257 178.17 111.314 176.985 111.314H170.766Z" fill="#9D7DF7"/>
<path d="M180.444 113.421C180.444 112.257 181.405 111.314 182.589 111.314H188.808C189.993 111.314 190.953 112.257 190.953 113.421V126.63C190.953 127.794 189.993 128.737 188.808 128.737H182.589C181.405 128.737 180.444 127.794 180.444 126.63V113.421Z" fill="#FDAED0"/>
<path fill-rule="evenodd" clip-rule="evenodd" d="M188.808 112.368H182.589C181.997 112.368 181.517 112.839 181.517 113.421V126.63C181.517 127.212 181.997 127.683 182.589 127.683H188.808C189.401 127.683 189.881 127.212 189.881 126.63V113.421C189.881 112.839 189.401 112.368 188.808 112.368ZM182.589 111.314C181.405 111.314 180.444 112.257 180.444 113.421V126.63C180.444 127.794 181.405 128.737 182.589 128.737H188.808C189.993 128.737 190.953 127.794 190.953 126.63V113.421C190.953 112.257 189.993 111.314 188.808 111.314H182.589Z" fill="#FA8DBB"/>
<path d="M196.208 131.49C196.208 130.326 197.169 129.383 198.353 129.383H205.229C206.414 129.383 207.374 130.326 207.374 131.49V150.506C207.374 151.67 206.414 152.614 205.229 152.614H198.353C197.169 152.614 196.208 151.67 196.208 150.506V131.49Z" fill="#B59DF9"/>
<path fill-rule="evenodd" clip-rule="evenodd" d="M205.229 130.436H198.353C197.761 130.436 197.281 130.908 197.281 131.49V150.506C197.281 151.088 197.761 151.56 198.353 151.56H205.229C205.821 151.56 206.302 151.088 206.302 150.506V131.49C206.302 130.908 205.821 130.436 205.229 130.436ZM198.353 129.383C197.169 129.383 196.208 130.326 196.208 131.49V150.506C196.208 151.67 197.169 152.614 198.353 152.614H205.229C206.414 152.614 207.374 151.67 207.374 150.506V131.49C207.374 130.326 206.414 129.383 205.229 129.383H198.353Z" fill="#9D7DF7"/>
<path d="M152.2 135.513C152.2 132.484 154.7 130.028 157.783 130.028C160.867 130.028 163.366 132.484 163.366 135.513V140.03C163.366 143.06 160.867 145.515 157.783 145.515C154.7 145.515 152.2 143.06 152.2 140.03V135.513Z" fill="#FDAED0"/>
<path fill-rule="evenodd" clip-rule="evenodd" d="M162.294 140.03V135.513C162.294 133.066 160.274 131.082 157.783 131.082C155.292 131.082 153.273 133.066 153.273 135.513V140.03C153.273 142.478 155.292 144.462 157.783 144.462C160.274 144.462 162.294 142.478 162.294 140.03ZM157.783 130.028C154.7 130.028 152.2 132.484 152.2 135.513V140.03C152.2 143.06 154.7 145.515 157.783 145.515C160.867 145.515 163.366 143.06 163.366 140.03V135.513C163.366 132.484 160.867 130.028 157.783 130.028Z" fill="#FA8DBB"/>
<path d="M208.031 100.021C208.031 96.9915 210.531 94.5358 213.614 94.5358C216.698 94.5358 219.197 96.9916 219.197 100.021V124.543C219.197 127.572 216.698 130.028 213.614 130.028C210.531 130.028 208.031 127.572 208.031 124.543V100.021Z" fill="#FDAED0"/>
<path fill-rule="evenodd" clip-rule="evenodd" d="M218.125 124.543V100.021C218.125 97.5735 216.105 95.5895 213.614 95.5895C211.123 95.5895 209.104 97.5735 209.104 100.021V124.543C209.104 126.99 211.123 128.974 213.614 128.974C216.105 128.974 218.125 126.99 218.125 124.543ZM213.614 94.5358C210.531 94.5358 208.031 96.9915 208.031 100.021V124.543C208.031 127.572 210.531 130.028 213.614 130.028C216.698 130.028 219.197 127.572 219.197 124.543V100.021C219.197 96.9916 216.698 94.5358 213.614 94.5358Z" fill="#FA8DBB"/>
<path d="M53.0187 204.675C53.0187 203.606 53.9009 202.739 54.9892 202.739C56.0774 202.739 56.9597 203.606 56.9597 204.675C56.9597 205.744 56.0774 206.611 54.9892 206.611C53.9009 206.611 53.0187 205.744 53.0187 204.675Z" fill="#B59DF9"/>
<rect x="61.5575" y="201.012" width="27.587" height="6.45311" rx="3.22655" fill="#2B324A"/>
<path d="M104.908 204.675C104.908 203.606 105.791 202.739 106.879 202.739C107.967 202.739 108.849 203.606 108.849 204.675C108.849 205.744 107.967 206.611 106.879 206.611C105.791 206.611 104.908 205.744 104.908 204.675Z" fill="#FDAED0"/>
<rect x="113.447" y="201.012" width="27.587" height="6.45311" rx="3.22655" fill="#2B324A"/>
</g>
</g>
<defs>
<filter id="filter0_dddd_524_9699" x="0" y="0" width="275.5" height="283.406" filterUnits="userSpaceOnUse" color-interpolation-filters="sRGB">
<feFlood flood-opacity="0" result="BackgroundImageFix"/>
<feColorMatrix in="SourceAlpha" type="matrix" values="0 0 0 0 0 0 0 0 0 0 0 0 0 0 0 0 0 0 127 0" result="hardAlpha"/>
<feOffset dy="22"/>
<feGaussianBlur stdDeviation="16"/>
<feColorMatrix type="matrix" values="0 0 0 0 0.170868 0 0 0 0 0.225854 0 0 0 0 0.445799 0 0 0 0.05 0"/>
<feBlend mode="normal" in2="BackgroundImageFix" result="effect1_dropShadow_524_9699"/>
<feColorMatrix in="SourceAlpha" type="matrix" values="0 0 0 0 0 0 0 0 0 0 0 0 0 0 0 0 0 0 127 0" result="hardAlpha"/>
<feOffset dy="18"/>
<feGaussianBlur stdDeviation="10"/>
<feColorMatrix type="matrix" values="0 0 0 0 0.170868 0 0 0 0 0.225854 0 0 0 0 0.445799 0 0 0 0.05 0"/>
<feBlend mode="normal" in2="effect1_dropShadow_524_9699" result="effect2_dropShadow_524_9699"/>
<feColorMatrix in="SourceAlpha" type="matrix" values="0 0 0 0 0 0 0 0 0 0 0 0 0 0 0 0 0 0 127 0" result="hardAlpha"/>
<feOffset dy="6"/>
<feGaussianBlur stdDeviation="4"/>
<feColorMatrix type="matrix" values="0 0 0 0 0.170868 0 0 0 0 0.225854 0 0 0 0 0.445799 0 0 0 0.05 0"/>
<feBlend mode="normal" in2="effect2_dropShadow_524_9699" result="effect3_dropShadow_524_9699"/>
<feColorMatrix in="SourceAlpha" type="matrix" values="0 0 0 0 0 0 0 0 0 0 0 0 0 0 0 0 0 0 127 0" result="hardAlpha"/>
<feOffset/>
<feGaussianBlur stdDeviation="0.5"/>
<feColorMatrix type="matrix" values="0 0 0 0 0.170868 0 0 0 0 0.225854 0 0 0 0 0.445799 0 0 0 0.05 0"/>
<feBlend mode="normal" in2="effect3_dropShadow_524_9699" result="effect4_dropShadow_524_9699"/>
<feBlend mode="normal" in="SourceGraphic" in2="effect4_dropShadow_524_9699" result="shape"/>
</filter>
<clipPath id="clip0_524_9699">
<rect width="169.463" height="179.833" fill="white" transform="translate(53.0187 28.0687)"/>
</clipPath>
</defs>
</svg>
