<svg width="266" height="202" viewBox="0 0 266 202" fill="none" xmlns="http://www.w3.org/2000/svg">
<g filter="url(#filter0_dddd_455_1553)">
<path d="M32.3999 22.3926C32.3999 15.7651 37.7725 10.3926 44.3999 10.3926H222C228.627 10.3926 234 15.7652 234 22.3926V135.072C234 141.699 228.627 147.072 222 147.072H44.3999C37.7725 147.072 32.3999 141.699 32.3999 135.072V22.3926Z" fill="white"/>
<path d="M44.3999 10.8926H222C228.351 10.8926 233.5 16.0413 233.5 22.3926V135.071C233.5 141.423 228.351 146.571 222 146.571H44.3999C38.0486 146.571 32.8999 141.423 32.8999 135.071V22.3926C32.8999 16.0413 38.0486 10.8926 44.3999 10.8926Z" stroke="#ECEEF4"/>
<path d="M185.032 39.7948V33.4885H186.479L186.607 34.5565C186.803 34.1836 187.084 33.8869 187.451 33.6665C187.827 33.4461 188.266 33.3359 188.77 33.3359C189.555 33.3359 190.165 33.5817 190.6 34.0734C191.035 34.565 191.253 35.2855 191.253 36.2348V39.7948H189.615V36.3874C189.615 35.8449 189.504 35.4296 189.282 35.1414C189.06 34.8532 188.714 34.7091 188.245 34.7091C187.784 34.7091 187.405 34.8701 187.106 35.1922C186.816 35.5143 186.671 35.9636 186.671 36.5399V39.7948H185.032Z" fill="#4B5162"/>
<path d="M176.011 39.7946L174.155 33.4883H175.781L176.882 38.0273L178.162 33.4883H179.979L181.259 38.0273L182.373 33.4883H183.998L182.13 39.7946H180.427L179.07 35.0776L177.714 39.7946H176.011Z" fill="#4B5162"/>
<path d="M170.279 39.9474C169.664 39.9474 169.109 39.8075 168.615 39.5278C168.128 39.2481 167.74 38.8624 167.45 38.3708C167.168 37.8707 167.027 37.2943 167.027 36.6417C167.027 35.989 167.172 35.4168 167.463 34.9252C167.753 34.4251 168.141 34.0352 168.627 33.7555C169.122 33.4758 169.677 33.3359 170.291 33.3359C170.897 33.3359 171.443 33.4758 171.93 33.7555C172.425 34.0352 172.813 34.4251 173.095 34.9252C173.385 35.4168 173.53 35.989 173.53 36.6417C173.53 37.2943 173.385 37.8707 173.095 38.3708C172.813 38.8624 172.425 39.2481 171.93 39.5278C171.435 39.8075 170.884 39.9474 170.279 39.9474ZM170.279 38.5361C170.705 38.5361 171.076 38.3793 171.392 38.0657C171.708 37.7436 171.866 37.2689 171.866 36.6417C171.866 36.0144 171.708 35.544 171.392 35.2304C171.076 34.9083 170.709 34.7472 170.291 34.7472C169.856 34.7472 169.481 34.9083 169.165 35.2304C168.858 35.544 168.704 36.0144 168.704 36.6417C168.704 37.2689 168.858 37.7436 169.165 38.0657C169.481 38.3793 169.852 38.5361 170.279 38.5361Z" fill="#4B5162"/>
<path d="M161.8 39.947C161.203 39.947 160.67 39.8029 160.2 39.5147C159.731 39.2265 159.36 38.8324 159.087 38.3323C158.814 37.8322 158.677 37.2643 158.677 36.6286C158.677 35.9929 158.814 35.4292 159.087 34.9376C159.36 34.4375 159.731 34.0476 160.2 33.7679C160.67 33.4797 161.203 33.3356 161.8 33.3356C162.278 33.3356 162.696 33.4246 163.055 33.6026C163.413 33.7806 163.703 34.0306 163.925 34.3527V30.6401H165.564V39.7945H164.104L163.925 38.8917C163.72 39.1715 163.447 39.4173 163.106 39.6292C162.773 39.8411 162.338 39.947 161.8 39.947ZM162.146 38.523C162.675 38.523 163.106 38.3493 163.439 38.0017C163.78 37.6457 163.951 37.1923 163.951 36.6413C163.951 36.0903 163.78 35.6411 163.439 35.2936C163.106 34.9376 162.675 34.7596 162.146 34.7596C161.626 34.7596 161.195 34.9333 160.853 35.2809C160.512 35.6284 160.341 36.0776 160.341 36.6286C160.341 37.1795 160.512 37.633 160.853 37.989C161.195 38.345 161.626 38.523 162.146 38.523Z" fill="#4B5162"/>
<path d="M152.132 39.7945V30.6401H153.77V36.0437L156.023 33.4881H157.969L155.37 36.3616L158.391 39.7945H156.343L153.77 36.6286V39.7945H152.132Z" fill="#4B5162"/>
<path d="M146.934 39.9474C146.387 39.9474 145.939 39.8626 145.59 39.6931C145.24 39.5151 144.979 39.282 144.809 38.9938C144.638 38.7056 144.553 38.3878 144.553 38.0402C144.553 37.4554 144.783 36.9807 145.244 36.6162C145.705 36.2518 146.396 36.0695 147.318 36.0695H148.93V35.9169C148.93 35.4847 148.807 35.1668 148.559 34.9634C148.312 34.7599 148.004 34.6582 147.638 34.6582C147.305 34.6582 147.015 34.7388 146.767 34.8998C146.52 35.0524 146.366 35.2812 146.306 35.5864H144.706C144.749 35.1287 144.903 34.7303 145.167 34.3912C145.44 34.0522 145.79 33.7937 146.217 33.6157C146.643 33.4292 147.121 33.3359 147.65 33.3359C148.555 33.3359 149.267 33.5606 149.788 34.0098C150.308 34.459 150.569 35.0948 150.569 35.9169V39.7948H149.174L149.02 38.7777C148.832 39.1167 148.568 39.3964 148.226 39.6168C147.894 39.8372 147.463 39.9474 146.934 39.9474ZM147.305 38.676C147.774 38.676 148.137 38.5234 148.393 38.2182C148.657 37.9131 148.824 37.5359 148.892 37.0867H147.497C147.062 37.0867 146.75 37.1672 146.562 37.3282C146.375 37.4808 146.281 37.6715 146.281 37.9004C146.281 38.1462 146.375 38.3369 146.562 38.4725C146.75 38.6081 146.998 38.676 147.305 38.676Z" fill="#4B5162"/>
<path d="M140.179 39.9474C139.539 39.9474 138.972 39.8118 138.477 39.5405C137.982 39.2693 137.594 38.8879 137.312 38.3962C137.03 37.9046 136.89 37.3367 136.89 36.6925C136.89 36.0399 137.026 35.4592 137.299 34.9507C137.581 34.4421 137.965 34.0479 138.451 33.7682C138.946 33.48 139.526 33.3359 140.192 33.3359C140.815 33.3359 141.365 33.4716 141.843 33.7428C142.321 34.014 142.692 34.387 142.957 34.8617C143.23 35.3278 143.366 35.8491 143.366 36.4255C143.366 36.5188 143.362 36.6162 143.354 36.7179C143.354 36.8197 143.349 36.9256 143.341 37.0358H138.515C138.549 37.5274 138.72 37.9131 139.027 38.1928C139.343 38.4725 139.723 38.6124 140.166 38.6124C140.499 38.6124 140.777 38.5403 140.998 38.3962C141.229 38.2437 141.4 38.0487 141.51 37.8114H143.174C143.055 38.2098 142.854 38.5742 142.573 38.9048C142.3 39.2269 141.958 39.4812 141.549 39.6677C141.148 39.8542 140.691 39.9474 140.179 39.9474ZM140.192 34.6582C139.791 34.6582 139.437 34.7727 139.13 35.0015C138.822 35.2219 138.626 35.5609 138.541 36.0187H141.702C141.677 35.6033 141.523 35.2728 141.242 35.0269C140.96 34.7811 140.61 34.6582 140.192 34.6582Z" fill="#4B5162"/>
<path d="M132.132 39.7948V33.4885H133.591L133.745 34.6709C133.975 34.2641 134.287 33.942 134.679 33.7047C135.08 33.4588 135.549 33.3359 136.087 33.3359V35.0524H135.626C135.268 35.0524 134.948 35.1075 134.666 35.2177C134.385 35.3278 134.163 35.5186 134.001 35.7898C133.847 36.061 133.77 36.4382 133.77 36.9214V39.7948H132.132Z" fill="#4B5162"/>
<path d="M124.095 39.7946V30.8945H127.692C128.622 30.8945 129.33 31.1107 129.817 31.543C130.312 31.9668 130.559 32.5135 130.559 33.1831C130.559 33.7425 130.406 34.1918 130.098 34.5308C129.8 34.8614 129.433 35.086 128.998 35.2047C129.51 35.3064 129.932 35.5607 130.265 35.9675C130.598 36.3659 130.764 36.8321 130.764 37.3661C130.764 38.0697 130.508 38.6503 129.996 39.108C129.484 39.5657 128.759 39.7946 127.82 39.7946H124.095ZM125.734 34.6325H127.449C127.91 34.6325 128.264 34.5266 128.511 34.3147C128.759 34.1028 128.882 33.8019 128.882 33.412C128.882 33.039 128.759 32.7466 128.511 32.5347C128.272 32.3143 127.91 32.2041 127.423 32.2041H125.734V34.6325ZM125.734 38.4723H127.564C128.05 38.4723 128.426 38.3621 128.69 38.1417C128.963 37.9128 129.1 37.595 129.1 37.1881C129.1 36.7728 128.959 36.4465 128.678 36.2091C128.396 35.9718 128.016 35.8531 127.538 35.8531H125.734V38.4723Z" fill="#4B5162"/>
<path d="M116.442 39.9474C115.802 39.9474 115.234 39.8118 114.74 39.5405C114.245 39.2693 113.856 38.8879 113.575 38.3962C113.293 37.9046 113.152 37.3367 113.152 36.6925C113.152 36.0399 113.289 35.4592 113.562 34.9507C113.844 34.4421 114.228 34.0479 114.714 33.7682C115.209 33.48 115.789 33.3359 116.455 33.3359C117.078 33.3359 117.628 33.4716 118.106 33.7428C118.584 34.014 118.955 34.387 119.22 34.8617C119.493 35.3278 119.629 35.8491 119.629 36.4255C119.629 36.5188 119.625 36.6162 119.616 36.7179C119.616 36.8197 119.612 36.9256 119.604 37.0358H114.778C114.812 37.5274 114.983 37.9131 115.29 38.1928C115.606 38.4725 115.985 38.6124 116.429 38.6124C116.762 38.6124 117.039 38.5403 117.261 38.3962C117.492 38.2437 117.662 38.0487 117.773 37.8114H119.437C119.318 38.2098 119.117 38.5742 118.836 38.9048C118.562 39.2269 118.221 39.4812 117.812 39.6677C117.41 39.8542 116.954 39.9474 116.442 39.9474ZM116.455 34.6582C116.054 34.6582 115.7 34.7727 115.392 35.0015C115.085 35.2219 114.889 35.5609 114.804 36.0187H117.965C117.94 35.6033 117.786 35.2728 117.504 35.0269C117.223 34.7811 116.873 34.6582 116.455 34.6582Z" fill="#4B5162"/>
<path d="M108.792 39.9474C108.144 39.9474 107.572 39.8075 107.077 39.5278C106.582 39.2481 106.19 38.8582 105.899 38.3581C105.618 37.858 105.477 37.2859 105.477 36.6417C105.477 35.9975 105.618 35.4253 105.899 34.9252C106.19 34.4251 106.582 34.0352 107.077 33.7555C107.572 33.4758 108.144 33.3359 108.792 33.3359C109.603 33.3359 110.286 33.5478 110.84 33.9717C111.395 34.387 111.749 34.9634 111.903 35.7008H110.175C110.089 35.3957 109.919 35.1583 109.663 34.9888C109.415 34.8108 109.121 34.7218 108.779 34.7218C108.327 34.7218 107.943 34.8913 107.627 35.2304C107.312 35.5694 107.154 36.0399 107.154 36.6417C107.154 37.2435 107.312 37.7139 107.627 38.053C107.943 38.392 108.327 38.5615 108.779 38.5615C109.121 38.5615 109.415 38.4768 109.663 38.3072C109.919 38.1377 110.089 37.8961 110.175 37.5825H111.903C111.749 38.2945 111.395 38.8667 110.84 39.299C110.286 39.7312 109.603 39.9474 108.792 39.9474Z" fill="#4B5162"/>
<path d="M103.153 32.5091C102.854 32.5091 102.607 32.4201 102.411 32.2421C102.223 32.0641 102.129 31.8395 102.129 31.5683C102.129 31.297 102.223 31.0767 102.411 30.9071C102.607 30.7291 102.854 30.6401 103.153 30.6401C103.452 30.6401 103.695 30.7291 103.883 30.9071C104.079 31.0767 104.177 31.297 104.177 31.5683C104.177 31.8395 104.079 32.0641 103.883 32.2421C103.695 32.4201 103.452 32.5091 103.153 32.5091ZM102.334 39.7945V33.4881H103.972V39.7945H102.334Z" fill="#4B5162"/>
<path d="M96.9097 39.7946L94.5801 33.4883H96.2953L97.9081 38.2562L99.5209 33.4883H101.236L98.8937 39.7946H96.9097Z" fill="#4B5162"/>
<path d="M90.1196 39.7948V33.4885H91.5788L91.7324 34.6709C91.9628 34.2641 92.2743 33.942 92.6668 33.7047C93.0679 33.4588 93.5372 33.3359 94.0748 33.3359V35.0524H93.614C93.2556 35.0524 92.9356 35.1075 92.654 35.2177C92.3724 35.3278 92.1506 35.5186 91.9884 35.7898C91.8348 36.061 91.758 36.4382 91.758 36.9214V39.7948H90.1196Z" fill="#4B5162"/>
<path d="M85.5542 39.9474C84.9142 39.9474 84.3468 39.8118 83.8518 39.5405C83.3569 39.2693 82.9686 38.8879 82.687 38.3962C82.4054 37.9046 82.2646 37.3367 82.2646 36.6925C82.2646 36.0399 82.4012 35.4592 82.6742 34.9507C82.9558 34.4421 83.3398 34.0479 83.8262 33.7682C84.3212 33.48 84.9014 33.3359 85.567 33.3359C86.19 33.3359 86.7404 33.4716 87.2182 33.7428C87.6961 34.014 88.0673 34.387 88.3319 34.8617C88.6049 35.3278 88.7415 35.8491 88.7415 36.4255C88.7415 36.5188 88.7372 36.6162 88.7287 36.7179C88.7287 36.8197 88.7244 36.9256 88.7159 37.0358H83.8902C83.9244 37.5274 84.095 37.9131 84.4022 38.1928C84.718 38.4725 85.0977 38.6124 85.5414 38.6124C85.8742 38.6124 86.1516 38.5403 86.3734 38.3962C86.6038 38.2437 86.7745 38.0487 86.8855 37.8114H88.5495C88.43 38.2098 88.2295 38.5742 87.9479 38.9048C87.6748 39.2269 87.3334 39.4812 86.9238 39.6677C86.5228 39.8542 86.0662 39.9474 85.5542 39.9474ZM85.567 34.6582C85.166 34.6582 84.8118 34.7727 84.5046 35.0015C84.1974 35.2219 84.0012 35.5609 83.9158 36.0187H87.0774C87.0518 35.6033 86.8983 35.2728 86.6167 35.0269C86.3351 34.7811 85.9852 34.6582 85.567 34.6582Z" fill="#4B5162"/>
<path d="M77.9295 39.9474C77.2724 39.9474 76.6922 39.8372 76.1887 39.6168C75.6852 39.3879 75.2884 39.0658 74.9983 38.6505C74.7082 38.2267 74.5588 37.7139 74.5503 37.1121H76.2783C76.2954 37.5274 76.4447 37.8792 76.7263 38.1674C77.0164 38.4471 77.4132 38.5869 77.9167 38.5869C78.3519 38.5869 78.6975 38.4852 78.9535 38.2818C79.2095 38.0699 79.3375 37.7902 79.3375 37.4426C79.3375 37.0782 79.2223 36.7942 78.9919 36.5908C78.77 36.3873 78.4714 36.2221 78.0959 36.0949C77.7204 35.9678 77.3194 35.8322 76.8927 35.6881C76.2015 35.4507 75.6724 35.1456 75.3055 34.7726C74.9471 34.3997 74.7679 33.9038 74.7679 33.2851C74.7594 32.7595 74.8831 32.3103 75.1391 31.9373C75.4036 31.5559 75.762 31.2635 76.2143 31.06C76.6666 30.8481 77.1871 30.7422 77.7759 30.7422C78.3732 30.7422 78.898 30.8481 79.3503 31.06C79.8111 31.272 80.1695 31.5686 80.4255 31.95C80.69 32.3315 80.8308 32.785 80.8479 33.3105H79.0943C79.0858 32.9969 78.962 32.7214 78.7231 32.4841C78.4927 32.2382 78.1684 32.1153 77.7503 32.1153C77.3919 32.1069 77.089 32.1959 76.8415 32.3823C76.6026 32.5603 76.4831 32.8231 76.4831 33.1706C76.4831 33.4673 76.577 33.7046 76.7647 33.8826C76.9524 34.0522 77.2084 34.1962 77.5327 34.3149C77.857 34.4336 78.2282 34.5607 78.6463 34.6963C79.09 34.8489 79.4954 35.0269 79.8623 35.2303C80.2292 35.4338 80.5236 35.705 80.7455 36.0441C80.9674 36.3746 81.0783 36.8027 81.0783 37.3282C81.0783 37.7944 80.9588 38.2267 80.7199 38.6251C80.481 39.0235 80.1268 39.3455 79.6575 39.5914C79.1882 39.8287 78.6122 39.9474 77.9295 39.9474Z" fill="#4B5162"/>
<rect x="64.3999" y="66.4155" width="4.8" height="4.76787" rx="2" fill="#6096FA"/>
<path d="M74 68.7995C74 67.4829 75.0673 66.4155 76.3839 66.4155H117.216C118.533 66.4155 119.6 67.4829 119.6 68.7995V68.7995C119.6 70.1161 118.533 71.1834 117.216 71.1834H76.3839C75.0673 71.1834 74 70.1161 74 68.7995V68.7995Z" fill="#D2D5E2"/>
<rect x="64.3999" y="79.1299" width="4.8" height="4.76787" rx="2" fill="#57D3D4"/>
<path d="M74 81.5138C74 80.1972 75.0673 79.1299 76.3839 79.1299H117.216C118.533 79.1299 119.6 80.1972 119.6 81.5138V81.5138C119.6 82.8304 118.533 83.8978 117.216 83.8978H76.3839C75.0673 83.8978 74 82.8304 74 81.5138V81.5138Z" fill="#D2D5E2"/>
<rect x="64.3999" y="91.8442" width="4.8" height="4.76787" rx="2" fill="#999DE7"/>
<path d="M74 94.2282C74 92.9116 75.0673 91.8442 76.3839 91.8442H117.216C118.533 91.8442 119.6 92.9116 119.6 94.2282V94.2282C119.6 95.5448 118.533 96.6121 117.216 96.6121H76.3839C75.0673 96.6121 74 95.5448 74 94.2282V94.2282Z" fill="#D2D5E2"/>
<rect x="64.3999" y="104.559" width="4.8" height="4.76788" rx="2" fill="#FFCE78"/>
<path d="M74 106.943C74 105.626 75.0673 104.559 76.3839 104.559H117.216C118.533 104.559 119.6 105.626 119.6 106.943V106.943C119.6 108.259 118.533 109.326 117.216 109.326H76.3839C75.0673 109.326 74 108.259 74 106.943V106.943Z" fill="#D2D5E2"/>
<rect x="64.3999" y="117.273" width="4.8" height="4.76788" rx="2" fill="#F791B3"/>
<path d="M74 119.657C74 118.34 75.0673 117.273 76.3839 117.273H117.216C118.533 117.273 119.6 118.34 119.6 119.657V119.657C119.6 120.973 118.533 122.041 117.216 122.041H76.3839C75.0673 122.041 74 120.973 74 119.657V119.657Z" fill="#D2D5E2"/>
<path d="M202 94.228C202 112.88 186.778 128 168 128C149.222 128 134 112.88 134 94.228C134 75.576 149.222 60.4556 168 60.4556C186.778 60.4556 202 75.576 202 94.228ZM155.886 94.228C155.886 100.874 161.309 106.261 168 106.261C174.691 106.261 180.114 100.874 180.114 94.228C180.114 87.5822 174.691 82.1948 168 82.1948C161.309 82.1948 155.886 87.5822 155.886 94.228Z" fill="#D9D9D9"/>
<path d="M168 60.4556C174.22 60.4556 180.32 62.1502 185.637 65.355C190.955 68.5598 195.285 73.152 198.157 78.6317C201.03 84.1115 202.334 90.2689 201.927 96.4336C201.521 102.598 199.42 108.534 195.854 113.596L177.924 101.129C179.195 99.3254 179.944 97.2104 180.088 95.0139C180.233 92.8173 179.769 90.6235 178.745 88.671C177.722 86.7186 176.179 85.0824 174.284 83.9405C172.39 82.7986 170.216 82.1948 168 82.1948L168 60.4556Z" fill="#6096FA" stroke="white" stroke-width="2"/>
<path d="M196.554 112.561C193.862 116.699 190.291 120.201 186.091 122.823C181.892 125.444 177.166 127.121 172.245 127.736C167.324 128.351 162.327 127.889 157.604 126.383C152.882 124.877 148.549 122.362 144.908 119.016L159.772 103.06C161.069 104.252 162.613 105.148 164.296 105.685C165.979 106.222 167.759 106.386 169.512 106.167C171.266 105.948 172.95 105.35 174.446 104.416C175.942 103.482 177.215 102.234 178.174 100.76L196.554 112.561Z" fill="#57D3D4" stroke="white" stroke-width="2"/>
<path d="M145.828 119.831C139.732 114.623 135.692 107.438 134.425 99.5517L156.037 96.1248C156.489 98.9348 157.928 101.495 160.1 103.35L145.828 119.831Z" fill="#999DE7" stroke="white" stroke-width="2"/>
<path d="M134.738 101.225C133.109 93.5879 134.195 85.6265 137.81 78.6949C141.424 71.7632 147.345 66.2894 154.564 63.2045L163.213 83.1742C160.64 84.2734 158.531 86.2237 157.243 88.6935C155.955 91.1633 155.568 93.9999 156.149 96.721L134.738 101.225Z" fill="#FFCE78" stroke="white" stroke-width="2"/>
<path d="M151.9 64.4819C156.934 61.7937 162.569 60.4093 168.284 60.4567L168.101 82.1952C166.065 82.1783 164.057 82.6716 162.264 83.6294L151.9 64.4819Z" fill="#F791B3" stroke="white" stroke-width="2"/>
</g>
<defs>
<filter id="filter0_dddd_455_1553" x="0.399902" y="0.392578" width="265.6" height="200.679" filterUnits="userSpaceOnUse" color-interpolation-filters="sRGB">
<feFlood flood-opacity="0" result="BackgroundImageFix"/>
<feColorMatrix in="SourceAlpha" type="matrix" values="0 0 0 0 0 0 0 0 0 0 0 0 0 0 0 0 0 0 127 0" result="hardAlpha"/>
<feOffset dy="22"/>
<feGaussianBlur stdDeviation="16"/>
<feColorMatrix type="matrix" values="0 0 0 0 0.170868 0 0 0 0 0.225854 0 0 0 0 0.445799 0 0 0 0.05 0"/>
<feBlend mode="normal" in2="BackgroundImageFix" result="effect1_dropShadow_455_1553"/>
<feColorMatrix in="SourceAlpha" type="matrix" values="0 0 0 0 0 0 0 0 0 0 0 0 0 0 0 0 0 0 127 0" result="hardAlpha"/>
<feOffset dy="18"/>
<feGaussianBlur stdDeviation="10"/>
<feColorMatrix type="matrix" values="0 0 0 0 0.170868 0 0 0 0 0.225854 0 0 0 0 0.445799 0 0 0 0.05 0"/>
<feBlend mode="normal" in2="effect1_dropShadow_455_1553" result="effect2_dropShadow_455_1553"/>
<feColorMatrix in="SourceAlpha" type="matrix" values="0 0 0 0 0 0 0 0 0 0 0 0 0 0 0 0 0 0 127 0" result="hardAlpha"/>
<feOffset dy="6"/>
<feGaussianBlur stdDeviation="4"/>
<feColorMatrix type="matrix" values="0 0 0 0 0.170868 0 0 0 0 0.225854 0 0 0 0 0.445799 0 0 0 0.05 0"/>
<feBlend mode="normal" in2="effect2_dropShadow_455_1553" result="effect3_dropShadow_455_1553"/>
<feColorMatrix in="SourceAlpha" type="matrix" values="0 0 0 0 0 0 0 0 0 0 0 0 0 0 0 0 0 0 127 0" result="hardAlpha"/>
<feOffset/>
<feGaussianBlur stdDeviation="0.5"/>
<feColorMatrix type="matrix" values="0 0 0 0 0.170868 0 0 0 0 0.225854 0 0 0 0 0.445799 0 0 0 0.05 0"/>
<feBlend mode="normal" in2="effect3_dropShadow_455_1553" result="effect4_dropShadow_455_1553"/>
<feBlend mode="normal" in="SourceGraphic" in2="effect4_dropShadow_455_1553" result="shape"/>
</filter>
</defs>
</svg>
