<svg width="392" height="286" viewBox="0 0 392 286" fill="none" xmlns="http://www.w3.org/2000/svg">
<g filter="url(#filter0_dddd_455_721)">
<rect x="32" y="10.8726" width="327.952" height="220.7" rx="12" fill="white"/>
<rect x="32.5" y="11.3726" width="326.952" height="219.7" rx="11.5" stroke="#ECEEF4"/>
<rect x="53.1157" y="29.0479" width="77.2039" height="9.73678" rx="4.86839" fill="#ECEEF4"/>
<rect x="53.2686" y="45.5405" width="131.973" height="7.78942" rx="3.89471" fill="#ECEEF4"/>
<path d="M53.2686 69.2935L338.713 69.2934" stroke="#ECEEF4" stroke-width="0.80062"/>
<rect x="53.1157" y="84.8721" width="12.5374" height="5.19295" rx="2.59647" fill="#ECEEF4"/>
<rect x="53.1157" y="98.5034" width="12.5374" height="5.19295" rx="2.59647" fill="#ECEEF4"/>
<rect x="53.1157" y="112.135" width="12.5374" height="5.19295" rx="2.59647" fill="#ECEEF4"/>
<rect x="53.1157" y="125.767" width="12.5374" height="5.19295" rx="2.59647" fill="#ECEEF4"/>
<rect x="53.1157" y="139.398" width="12.5374" height="5.19294" rx="2.59647" fill="#ECEEF4"/>
<rect x="53.1157" y="153.029" width="12.5374" height="5.19295" rx="2.59647" fill="#ECEEF4"/>
<rect x="53.1157" y="166.661" width="12.5374" height="5.19295" rx="2.59647" fill="#ECEEF4"/>
<rect x="96.7661" y="177.371" width="8.04171" height="4.48711" rx="2.24356" fill="#ECEEF4"/>
<rect x="139.558" y="177.696" width="7.91835" height="3.89471" rx="1.94735" fill="#ECEEF4"/>
<rect x="183.768" y="177.696" width="7.91835" height="3.89471" rx="1.94735" fill="#ECEEF4"/>
<rect x="223.36" y="177.696" width="7.91835" height="3.89471" rx="1.94735" fill="#ECEEF4"/>
<rect x="267.571" y="177.696" width="7.91835" height="3.89471" rx="1.94735" fill="#ECEEF4"/>
<rect x="312.441" y="177.696" width="7.91837" height="3.89471" rx="1.94735" fill="#ECEEF4"/>
<rect x="80.0302" y="85.2724" width="258.282" height="86.3438" stroke="#ECEEF4" stroke-width="0.80062"/>
<path d="M79.6299 113.572H338.713" stroke="#ECEEF4" stroke-width="0.80062"/>
<path d="M79.6299 99.4829H338.713" stroke="#ECEEF4" stroke-width="0.80062"/>
<path d="M79.6299 127.662H338.713" stroke="#ECEEF4" stroke-width="0.80062"/>
<path d="M79.6299 141.751H338.713" stroke="#ECEEF4" stroke-width="0.80062"/>
<path d="M79.6299 155.84H338.713" stroke="#ECEEF4" stroke-width="0.80062"/>
<path d="M123.214 84.8721L123.214 172.016" stroke="#ECEEF4" stroke-width="0.80062"/>
<path d="M165.991 84.8721L165.991 172.016" stroke="#ECEEF4" stroke-width="0.80062"/>
<path d="M208.768 84.8721L208.768 172.016" stroke="#ECEEF4" stroke-width="0.80062"/>
<path d="M251.544 84.8721L251.544 172.016" stroke="#ECEEF4" stroke-width="0.80062"/>
<path d="M294.322 84.8721L294.322 172.016" stroke="#ECEEF4" stroke-width="0.80062"/>
<rect x="85.8989" y="128.013" width="29.7767" height="24.6791" fill="#5A78E5"/>
<rect x="85.8989" y="152.692" width="29.7767" height="6.73068" fill="#B59DF9"/>
<rect x="85.8989" y="159.423" width="29.7767" height="3.36535" fill="#FDAED0"/>
<rect x="128.039" y="128.013" width="31.3439" height="3.36534" fill="#FDAED0"/>
<rect x="172.095" y="85.3857" width="29.7767" height="14.5831" fill="#FDAED0"/>
<rect x="214.409" y="149.327" width="29.7767" height="6.73067" fill="#FDAED0"/>
<rect x="256.723" y="93.2378" width="31.3439" height="14.5831" fill="#FDAED0"/>
<rect x="300.604" y="128.013" width="29.7767" height="3.36534" fill="#FDAED0"/>
<rect x="128.039" y="107.821" width="31.3439" height="5.6089" fill="#B59DF9"/>
<rect x="172.095" y="99.9688" width="29.7767" height="20.192" fill="#B59DF9"/>
<rect x="214.409" y="143.718" width="29.7767" height="5.60889" fill="#B59DF9"/>
<rect x="256.723" y="107.821" width="31.3439" height="13.4613" fill="#B59DF9"/>
<rect x="300.604" y="93.2378" width="29.7767" height="3.36534" fill="#B59DF9"/>
<rect x="128.039" y="113.43" width="31.3439" height="14.5831" fill="#5A78E5"/>
<rect x="172.095" y="120.161" width="29.7767" height="7.85245" fill="#5A78E5"/>
<rect x="214.409" y="128.013" width="29.7767" height="15.7049" fill="#5A78E5"/>
<rect x="256.723" y="121.283" width="31.3439" height="6.73067" fill="#5A78E5"/>
<path d="M300.604 96.6035H330.381V128.013H300.604V96.6035Z" fill="#5A78E5"/>
<rect x="53.2686" y="204.31" width="3.95918" height="3.89471" rx="1.94735" fill="#5A78E5"/>
<rect x="61.6938" y="203.012" width="27.7142" height="6.49118" rx="3.24559" fill="#ECEEF4"/>
<rect x="105.356" y="204.31" width="3.95918" height="3.89471" rx="1.94735" fill="#B59DF9"/>
<rect x="113.823" y="203.012" width="27.7142" height="6.49118" rx="3.24559" fill="#ECEEF4"/>
<rect x="157.443" y="204.31" width="3.95918" height="3.89471" rx="1.94735" fill="#FDAED0"/>
<rect x="165.952" y="203.012" width="27.7142" height="6.49118" rx="3.24559" fill="#ECEEF4"/>
</g>
<defs>
<filter id="filter0_dddd_455_721" x="0" y="0.872559" width="391.952" height="284.701" filterUnits="userSpaceOnUse" color-interpolation-filters="sRGB">
<feFlood flood-opacity="0" result="BackgroundImageFix"/>
<feColorMatrix in="SourceAlpha" type="matrix" values="0 0 0 0 0 0 0 0 0 0 0 0 0 0 0 0 0 0 127 0" result="hardAlpha"/>
<feOffset dy="22"/>
<feGaussianBlur stdDeviation="16"/>
<feColorMatrix type="matrix" values="0 0 0 0 0.170868 0 0 0 0 0.225854 0 0 0 0 0.445799 0 0 0 0.05 0"/>
<feBlend mode="normal" in2="BackgroundImageFix" result="effect1_dropShadow_455_721"/>
<feColorMatrix in="SourceAlpha" type="matrix" values="0 0 0 0 0 0 0 0 0 0 0 0 0 0 0 0 0 0 127 0" result="hardAlpha"/>
<feOffset dy="18"/>
<feGaussianBlur stdDeviation="10"/>
<feColorMatrix type="matrix" values="0 0 0 0 0.170868 0 0 0 0 0.225854 0 0 0 0 0.445799 0 0 0 0.05 0"/>
<feBlend mode="normal" in2="effect1_dropShadow_455_721" result="effect2_dropShadow_455_721"/>
<feColorMatrix in="SourceAlpha" type="matrix" values="0 0 0 0 0 0 0 0 0 0 0 0 0 0 0 0 0 0 127 0" result="hardAlpha"/>
<feOffset dy="6"/>
<feGaussianBlur stdDeviation="4"/>
<feColorMatrix type="matrix" values="0 0 0 0 0.170868 0 0 0 0 0.225854 0 0 0 0 0.445799 0 0 0 0.05 0"/>
<feBlend mode="normal" in2="effect2_dropShadow_455_721" result="effect3_dropShadow_455_721"/>
<feColorMatrix in="SourceAlpha" type="matrix" values="0 0 0 0 0 0 0 0 0 0 0 0 0 0 0 0 0 0 127 0" result="hardAlpha"/>
<feOffset/>
<feGaussianBlur stdDeviation="0.5"/>
<feColorMatrix type="matrix" values="0 0 0 0 0.170868 0 0 0 0 0.225854 0 0 0 0 0.445799 0 0 0 0.05 0"/>
<feBlend mode="normal" in2="effect3_dropShadow_455_721" result="effect4_dropShadow_455_721"/>
<feBlend mode="normal" in="SourceGraphic" in2="effect4_dropShadow_455_721" result="shape"/>
</filter>
</defs>
</svg>
