<svg width="266" height="201" viewBox="0 0 266 201" fill="none" xmlns="http://www.w3.org/2000/svg">
<g filter="url(#filter0_dddd_524_9445)">
<path d="M32 22C32 15.3726 37.3726 10 44 10H221.6C228.227 10 233.6 15.3726 233.6 22V134.679C233.6 141.306 228.227 146.679 221.6 146.679H44C37.3726 146.679 32 141.306 32 134.679V22Z" fill="#171C2F"/>
<path d="M44 10.5H221.6C227.951 10.5 233.1 15.6487 233.1 22V134.679C233.1 141.03 227.951 146.179 221.6 146.179H44C37.6487 146.179 32.5 141.03 32.5 134.679V22C32.5 15.6487 37.6487 10.5 44 10.5Z" stroke="#2B324A"/>
<path d="M184.632 39.4018V33.0955H186.078L186.206 34.1635C186.403 33.7906 186.684 33.4939 187.051 33.2735C187.427 33.0531 187.866 32.9429 188.37 32.9429C189.155 32.9429 189.765 33.1887 190.2 33.6804C190.635 34.172 190.853 34.8925 190.853 35.8418V39.4018H189.214V35.9944C189.214 35.4519 189.103 35.0366 188.882 34.7484C188.66 34.4602 188.314 34.3161 187.845 34.3161C187.384 34.3161 187.004 34.4771 186.706 34.7992C186.415 35.1213 186.27 35.5706 186.27 36.1469V39.4018H184.632Z" fill="#BEC2D3"/>
<path d="M175.611 39.4018L173.755 33.0955H175.381L176.482 37.6345L177.762 33.0955H179.579L180.859 37.6345L181.973 33.0955H183.598L181.73 39.4018H180.027L178.67 34.6848L177.314 39.4018H175.611Z" fill="#BEC2D3"/>
<path d="M169.878 39.5544C169.264 39.5544 168.709 39.4145 168.214 39.1348C167.728 38.8551 167.34 38.4694 167.05 37.9778C166.768 37.4777 166.627 36.9013 166.627 36.2487C166.627 35.596 166.772 35.0238 167.062 34.5322C167.353 34.0321 167.741 33.6422 168.227 33.3625C168.722 33.0828 169.277 32.9429 169.891 32.9429C170.497 32.9429 171.043 33.0828 171.53 33.3625C172.025 33.6422 172.413 34.0321 172.694 34.5322C172.985 35.0238 173.13 35.596 173.13 36.2487C173.13 36.9013 172.985 37.4777 172.694 37.9778C172.413 38.4694 172.025 38.8551 171.53 39.1348C171.035 39.4145 170.484 39.5544 169.878 39.5544ZM169.878 38.1431C170.305 38.1431 170.676 37.9863 170.992 37.6727C171.308 37.3506 171.466 36.8759 171.466 36.2487C171.466 35.6214 171.308 35.151 170.992 34.8374C170.676 34.5153 170.309 34.3542 169.891 34.3542C169.456 34.3542 169.081 34.5153 168.765 34.8374C168.458 35.151 168.304 35.6214 168.304 36.2487C168.304 36.8759 168.458 37.3506 168.765 37.6727C169.081 37.9863 169.452 38.1431 169.878 38.1431Z" fill="#BEC2D3"/>
<path d="M161.4 39.5544C160.803 39.5544 160.27 39.4103 159.8 39.1221C159.331 38.8339 158.96 38.4398 158.687 37.9397C158.414 37.4396 158.277 36.8717 158.277 36.2359C158.277 35.6002 158.414 35.0366 158.687 34.5449C158.96 34.0448 159.331 33.6549 159.8 33.3752C160.27 33.087 160.803 32.9429 161.4 32.9429C161.878 32.9429 162.296 33.0319 162.655 33.2099C163.013 33.3879 163.303 33.638 163.525 33.9601V30.2475H165.164V39.4018H163.704L163.525 38.4991C163.32 38.7788 163.047 39.0246 162.706 39.2365C162.373 39.4484 161.938 39.5544 161.4 39.5544ZM161.746 38.1304C162.275 38.1304 162.706 37.9566 163.039 37.6091C163.38 37.2531 163.551 36.7996 163.551 36.2487C163.551 35.6977 163.38 35.2485 163.039 34.9009C162.706 34.5449 162.275 34.3669 161.746 34.3669C161.225 34.3669 160.795 34.5407 160.453 34.8882C160.112 35.2358 159.941 35.685 159.941 36.2359C159.941 36.7869 160.112 37.2404 160.453 37.5964C160.795 37.9524 161.225 38.1304 161.746 38.1304Z" fill="#BEC2D3"/>
<path d="M151.732 39.4018V30.2475H153.37V35.6511L155.623 33.0955H157.569L154.97 35.9689L157.991 39.4018H155.943L153.37 36.2359V39.4018H151.732Z" fill="#BEC2D3"/>
<path d="M146.533 39.5544C145.987 39.5544 145.539 39.4696 145.189 39.3001C144.839 39.1221 144.579 38.889 144.408 38.6008C144.238 38.3126 144.152 37.9948 144.152 37.6472C144.152 37.0624 144.383 36.5877 144.844 36.2232C145.304 35.8588 145.996 35.6765 146.917 35.6765H148.53V35.5239C148.53 35.0917 148.406 34.7738 148.159 34.5704C147.911 34.3669 147.604 34.2652 147.237 34.2652C146.904 34.2652 146.614 34.3457 146.367 34.5068C146.119 34.6594 145.966 34.8882 145.906 35.1934H144.306C144.349 34.7357 144.502 34.3373 144.767 33.9982C145.04 33.6592 145.39 33.4006 145.816 33.2226C146.243 33.0362 146.721 32.9429 147.25 32.9429C148.155 32.9429 148.867 33.1676 149.388 33.6168C149.908 34.066 150.168 34.7017 150.168 35.5239V39.4018H148.773L148.62 38.3847C148.432 38.7237 148.167 39.0034 147.826 39.2238C147.493 39.4442 147.062 39.5544 146.533 39.5544ZM146.904 38.283C147.374 38.283 147.736 38.1304 147.992 37.8252C148.257 37.5201 148.423 37.1429 148.492 36.6937H147.096C146.661 36.6937 146.35 36.7742 146.162 36.9352C145.974 37.0878 145.88 37.2785 145.88 37.5074C145.88 37.7532 145.974 37.9439 146.162 38.0795C146.35 38.2151 146.597 38.283 146.904 38.283Z" fill="#BEC2D3"/>
<path d="M139.779 39.5544C139.139 39.5544 138.572 39.4188 138.077 39.1475C137.582 38.8763 137.194 38.4949 136.912 38.0032C136.63 37.5116 136.49 36.9437 136.49 36.2995C136.49 35.6468 136.626 35.0662 136.899 34.5577C137.181 34.0491 137.565 33.6549 138.051 33.3752C138.546 33.087 139.126 32.9429 139.792 32.9429C140.415 32.9429 140.965 33.0786 141.443 33.3498C141.921 33.621 142.292 33.994 142.557 34.4687C142.83 34.9348 142.966 35.4561 142.966 36.0325C142.966 36.1258 142.962 36.2232 142.954 36.3249C142.954 36.4267 142.949 36.5326 142.941 36.6428H138.115C138.149 37.1344 138.32 37.5201 138.627 37.7998C138.943 38.0795 139.323 38.2194 139.766 38.2194C140.099 38.2194 140.377 38.1473 140.598 38.0032C140.829 37.8507 140.999 37.6557 141.11 37.4184H142.774C142.655 37.8168 142.454 38.1812 142.173 38.5118C141.9 38.8339 141.558 39.0882 141.149 39.2747C140.748 39.4611 140.291 39.5544 139.779 39.5544ZM139.792 34.2652C139.391 34.2652 139.037 34.3797 138.73 34.6085C138.422 34.8289 138.226 35.1679 138.141 35.6257H141.302C141.277 35.2103 141.123 34.8797 140.842 34.6339C140.56 34.3881 140.21 34.2652 139.792 34.2652Z" fill="#BEC2D3"/>
<path d="M131.732 39.4018V33.0955H133.191L133.345 34.2779C133.575 33.8711 133.887 33.549 134.279 33.3116C134.68 33.0658 135.15 32.9429 135.687 32.9429V34.6594H135.226C134.868 34.6594 134.548 34.7145 134.266 34.8247C133.985 34.9348 133.763 35.1256 133.601 35.3968C133.447 35.668 133.37 36.0452 133.37 36.5284V39.4018H131.732Z" fill="#BEC2D3"/>
<path d="M123.695 39.4019V30.5018H127.292C128.222 30.5018 128.931 30.718 129.417 31.1503C129.912 31.5741 130.159 32.1208 130.159 32.7904C130.159 33.3498 130.006 33.7991 129.699 34.1381C129.4 34.4687 129.033 34.6933 128.598 34.812C129.11 34.9137 129.532 35.168 129.865 35.5748C130.198 35.9732 130.364 36.4394 130.364 36.9734C130.364 37.677 130.108 38.2576 129.596 38.7153C129.084 39.173 128.359 39.4019 127.42 39.4019H123.695ZM125.334 34.2398H127.049C127.51 34.2398 127.864 34.1339 128.111 33.922C128.359 33.7101 128.483 33.4092 128.483 33.0193C128.483 32.6463 128.359 32.3539 128.111 32.142C127.873 31.9216 127.51 31.8114 127.023 31.8114H125.334V34.2398ZM125.334 38.0796H127.164C127.651 38.0796 128.026 37.9694 128.291 37.749C128.564 37.5201 128.7 37.2023 128.7 36.7954C128.7 36.3801 128.559 36.0538 128.278 35.8164C127.996 35.5791 127.617 35.4604 127.139 35.4604H125.334V38.0796Z" fill="#BEC2D3"/>
<path d="M116.042 39.5544C115.402 39.5544 114.834 39.4188 114.339 39.1475C113.844 38.8763 113.456 38.4949 113.175 38.0032C112.893 37.5116 112.752 36.9437 112.752 36.2995C112.752 35.6468 112.889 35.0662 113.162 34.5577C113.443 34.0491 113.827 33.6549 114.314 33.3752C114.809 33.087 115.389 32.9429 116.055 32.9429C116.678 32.9429 117.228 33.0786 117.706 33.3498C118.184 33.621 118.555 33.994 118.819 34.4687C119.092 34.9348 119.229 35.4561 119.229 36.0325C119.229 36.1258 119.225 36.2232 119.216 36.3249C119.216 36.4267 119.212 36.5326 119.203 36.6428H114.378C114.412 37.1344 114.583 37.5201 114.89 37.7998C115.206 38.0795 115.585 38.2194 116.029 38.2194C116.362 38.2194 116.639 38.1473 116.861 38.0032C117.091 37.8507 117.262 37.6557 117.373 37.4184H119.037C118.918 37.8168 118.717 38.1812 118.435 38.5118C118.162 38.8339 117.821 39.0882 117.411 39.2747C117.01 39.4611 116.554 39.5544 116.042 39.5544ZM116.055 34.2652C115.654 34.2652 115.299 34.3797 114.992 34.6085C114.685 34.8289 114.489 35.1679 114.403 35.6257H117.565C117.539 35.2103 117.386 34.8797 117.104 34.6339C116.823 34.3881 116.473 34.2652 116.055 34.2652Z" fill="#BEC2D3"/>
<path d="M108.392 39.5544C107.744 39.5544 107.172 39.4145 106.677 39.1348C106.182 38.8551 105.79 38.4652 105.5 37.9651C105.218 37.465 105.077 36.8929 105.077 36.2487C105.077 35.6045 105.218 35.0323 105.5 34.5322C105.79 34.0321 106.182 33.6422 106.677 33.3625C107.172 33.0828 107.744 32.9429 108.392 32.9429C109.203 32.9429 109.886 33.1548 110.44 33.5786C110.995 33.994 111.349 34.5704 111.503 35.3078H109.775C109.689 35.0027 109.519 34.7653 109.263 34.5958C109.015 34.4178 108.721 34.3288 108.38 34.3288C107.927 34.3288 107.543 34.4983 107.228 34.8374C106.912 35.1764 106.754 35.6468 106.754 36.2487C106.754 36.8505 106.912 37.3209 107.228 37.6599C107.543 37.999 107.927 38.1685 108.38 38.1685C108.721 38.1685 109.015 38.0838 109.263 37.9142C109.519 37.7447 109.689 37.5031 109.775 37.1895H111.503C111.349 37.9015 110.995 38.4737 110.44 38.906C109.886 39.3382 109.203 39.5544 108.392 39.5544Z" fill="#BEC2D3"/>
<path d="M102.753 32.1165C102.454 32.1165 102.207 32.0275 102.01 31.8495C101.823 31.6715 101.729 31.4469 101.729 31.1756C101.729 30.9044 101.823 30.684 102.01 30.5145C102.207 30.3365 102.454 30.2475 102.753 30.2475C103.051 30.2475 103.295 30.3365 103.482 30.5145C103.679 30.684 103.777 30.9044 103.777 31.1756C103.777 31.4469 103.679 31.6715 103.482 31.8495C103.295 32.0275 103.051 32.1165 102.753 32.1165ZM101.933 39.4018V33.0955H103.572V39.4018H101.933Z" fill="#BEC2D3"/>
<path d="M96.5097 39.4018L94.1801 33.0955H95.8953L97.5081 37.8634L99.1209 33.0955H100.836L98.4937 39.4018H96.5097Z" fill="#BEC2D3"/>
<path d="M89.7195 39.4018V33.0955H91.1787L91.3323 34.2779C91.5627 33.8711 91.8741 33.549 92.2667 33.3116C92.6677 33.0658 93.1371 32.9429 93.6747 32.9429V34.6594H93.2139C92.8555 34.6594 92.5355 34.7145 92.2539 34.8247C91.9723 34.9348 91.7504 35.1256 91.5883 35.3968C91.4347 35.668 91.3579 36.0452 91.3579 36.5284V39.4018H89.7195Z" fill="#BEC2D3"/>
<path d="M85.1542 39.5544C84.5142 39.5544 83.9468 39.4188 83.4518 39.1475C82.9569 38.8763 82.5686 38.4949 82.287 38.0032C82.0054 37.5116 81.8646 36.9437 81.8646 36.2995C81.8646 35.6468 82.0012 35.0662 82.2742 34.5577C82.5558 34.0491 82.9398 33.6549 83.4262 33.3752C83.9212 33.087 84.5014 32.9429 85.167 32.9429C85.79 32.9429 86.3404 33.0786 86.8182 33.3498C87.2961 33.621 87.6673 33.994 87.9318 34.4687C88.2049 34.9348 88.3414 35.4561 88.3414 36.0325C88.3414 36.1258 88.3372 36.2232 88.3286 36.3249C88.3286 36.4267 88.3244 36.5326 88.3158 36.6428H83.4902C83.5244 37.1344 83.695 37.5201 84.0022 37.7998C84.318 38.0795 84.6977 38.2194 85.1414 38.2194C85.4742 38.2194 85.7516 38.1473 85.9734 38.0032C86.2038 37.8507 86.3745 37.6557 86.4854 37.4184H88.1494C88.03 37.8168 87.8294 38.1812 87.5478 38.5118C87.2748 38.8339 86.9334 39.0882 86.5238 39.2747C86.1228 39.4611 85.6662 39.5544 85.1542 39.5544ZM85.167 34.2652C84.766 34.2652 84.4118 34.3797 84.1046 34.6085C83.7974 34.8289 83.6012 35.1679 83.5158 35.6257H86.6774C86.6518 35.2103 86.4982 34.8797 86.2166 34.6339C85.935 34.3881 85.5852 34.2652 85.167 34.2652Z" fill="#BEC2D3"/>
<path d="M77.5296 39.5544C76.8725 39.5544 76.2923 39.4442 75.7888 39.2238C75.2853 38.995 74.8885 38.6729 74.5984 38.2576C74.3083 37.8337 74.1589 37.3209 74.1504 36.7191H75.8784C75.8955 37.1345 76.0448 37.4862 76.3264 37.7744C76.6165 38.0541 77.0133 38.194 77.5168 38.194C77.952 38.194 78.2976 38.0923 78.5536 37.8888C78.8096 37.6769 78.9376 37.3972 78.9376 37.0497C78.9376 36.6852 78.8224 36.4013 78.592 36.1978C78.3701 35.9944 78.0715 35.8291 77.696 35.702C77.3205 35.5748 76.9195 35.4392 76.4928 35.2951C75.8016 35.0578 75.2725 34.7526 74.9056 34.3797C74.5472 34.0067 74.368 33.5109 74.368 32.8921C74.3595 32.3666 74.4832 31.9173 74.7392 31.5444C75.0037 31.163 75.3621 30.8705 75.8144 30.6671C76.2667 30.4552 76.7872 30.3492 77.376 30.3492C77.9733 30.3492 78.4981 30.4552 78.9504 30.6671C79.4112 30.879 79.7696 31.1757 80.0256 31.5571C80.2901 31.9385 80.4309 32.392 80.448 32.9175H78.6944C78.6859 32.6039 78.5621 32.3284 78.3232 32.0911C78.0928 31.8453 77.7685 31.7224 77.3504 31.7224C76.992 31.7139 76.6891 31.8029 76.4416 31.9894C76.2027 32.1674 76.0832 32.4302 76.0832 32.7777C76.0832 33.0743 76.1771 33.3117 76.3648 33.4897C76.5525 33.6592 76.8085 33.8033 77.1328 33.922C77.4571 34.0406 77.8283 34.1678 78.2464 34.3034C78.6901 34.456 79.0955 34.634 79.4624 34.8374C79.8293 35.0408 80.1237 35.3121 80.3456 35.6511C80.5675 35.9817 80.6784 36.4097 80.6784 36.9353C80.6784 37.4015 80.5589 37.8337 80.32 38.2321C80.0811 38.6305 79.7269 38.9526 79.2576 39.1984C78.7883 39.4358 78.2123 39.5544 77.5296 39.5544Z" fill="#BEC2D3"/>
<rect x="64" y="66.0225" width="4.8" height="4.76787" rx="2" fill="#6096FA"/>
<path d="M73.6 68.4064C73.6 67.0898 74.6673 66.0225 75.9839 66.0225H116.816C118.133 66.0225 119.2 67.0898 119.2 68.4064C119.2 69.723 118.133 70.7903 116.816 70.7903H75.9839C74.6673 70.7903 73.6 69.723 73.6 68.4064Z" fill="#3C4561"/>
<rect x="64" y="78.7368" width="4.8" height="4.76787" rx="2" fill="#57D3D4"/>
<path d="M73.6 81.1208C73.6 79.8041 74.6673 78.7368 75.9839 78.7368H116.816C118.133 78.7368 119.2 79.8041 119.2 81.1208C119.2 82.4374 118.133 83.5047 116.816 83.5047H75.9839C74.6673 83.5047 73.6 82.4374 73.6 81.1208Z" fill="#3C4561"/>
<rect x="64" y="91.4511" width="4.8" height="4.76787" rx="2" fill="#999DE7"/>
<path d="M73.6 93.835C73.6 92.5184 74.6673 91.4511 75.9839 91.4511H116.816C118.133 91.4511 119.2 92.5184 119.2 93.835C119.2 95.1517 118.133 96.219 116.816 96.219H75.9839C74.6673 96.219 73.6 95.1517 73.6 93.835Z" fill="#3C4561"/>
<rect x="64" y="104.165" width="4.8" height="4.76788" rx="2" fill="#FFCE78"/>
<path d="M73.6 106.549C73.6 105.233 74.6673 104.165 75.9839 104.165H116.816C118.133 104.165 119.2 105.233 119.2 106.549C119.2 107.866 118.133 108.933 116.816 108.933H75.9839C74.6673 108.933 73.6 107.866 73.6 106.549Z" fill="#3C4561"/>
<rect x="64" y="116.88" width="4.8" height="4.76788" rx="2" fill="#F791B3"/>
<path d="M73.6 119.264C73.6 117.947 74.6673 116.88 75.9839 116.88H116.816C118.133 116.88 119.2 117.947 119.2 119.264C119.2 120.58 118.133 121.648 116.816 121.648H75.9839C74.6673 121.648 73.6 120.58 73.6 119.264Z" fill="#3C4561"/>
<path d="M201.6 93.8351C201.6 112.487 186.378 127.607 167.6 127.607C148.822 127.607 133.6 112.487 133.6 93.8351C133.6 75.1831 148.822 60.0626 167.6 60.0626C186.378 60.0626 201.6 75.1831 201.6 93.8351ZM155.486 93.8351C155.486 100.481 160.909 105.868 167.6 105.868C174.291 105.868 179.714 100.481 179.714 93.8351C179.714 87.1893 174.291 81.8018 167.6 81.8018C160.909 81.8018 155.486 87.1893 155.486 93.8351Z" fill="#D9D9D9"/>
<path d="M167.6 60.0626C173.82 60.0626 179.92 61.7572 185.237 64.9621C190.555 68.1669 194.885 72.759 197.757 78.2388C200.63 83.7186 201.934 89.8759 201.527 96.0407C201.121 102.205 199.02 108.142 195.454 113.203L177.524 100.736C178.795 98.9325 179.544 96.8175 179.688 94.6209C179.833 92.4244 179.369 90.2305 178.345 88.2781C177.322 86.3256 175.779 84.6894 173.884 83.5475C171.99 82.4056 169.816 81.8018 167.6 81.8018V60.0626Z" fill="#6096FA" stroke="white" stroke-width="2"/>
<path d="M196.154 112.168C193.462 116.306 189.891 119.808 185.691 122.43C181.492 125.051 176.766 126.728 171.845 127.343C166.924 127.958 161.927 127.497 157.204 125.99C152.482 124.484 148.149 121.969 144.508 118.623L159.372 102.667C160.669 103.859 162.213 104.755 163.896 105.292C165.579 105.829 167.359 105.993 169.112 105.774C170.866 105.555 172.55 104.957 174.046 104.023C175.542 103.089 176.815 101.841 177.774 100.367L196.154 112.168Z" fill="#57D3D4" stroke="white" stroke-width="2"/>
<path d="M145.428 119.438C139.332 114.23 135.292 107.045 134.025 99.1587L155.637 95.7319C156.089 98.5418 157.528 101.102 159.7 102.958L145.428 119.438Z" fill="#999DE7" stroke="white" stroke-width="2"/>
<path d="M134.338 100.832C132.709 93.195 133.795 85.2336 137.41 78.3019C141.024 71.3703 146.945 65.8965 154.164 62.8116L162.813 82.7813C160.24 83.8805 158.131 85.8308 156.843 88.3006C155.555 90.7703 155.168 93.607 155.749 96.3281L134.338 100.832Z" fill="#FFCE78" stroke="white" stroke-width="2"/>
<path d="M151.5 64.089C156.534 61.4008 162.169 60.0164 167.884 60.0638L167.701 81.8023C165.665 81.7854 163.657 82.2786 161.864 83.2364L151.5 64.089Z" fill="#F791B3" stroke="white" stroke-width="2"/>
</g>
<defs>
<filter id="filter0_dddd_524_9445" x="0" y="0" width="265.6" height="200.679" filterUnits="userSpaceOnUse" color-interpolation-filters="sRGB">
<feFlood flood-opacity="0" result="BackgroundImageFix"/>
<feColorMatrix in="SourceAlpha" type="matrix" values="0 0 0 0 0 0 0 0 0 0 0 0 0 0 0 0 0 0 127 0" result="hardAlpha"/>
<feOffset dy="22"/>
<feGaussianBlur stdDeviation="16"/>
<feColorMatrix type="matrix" values="0 0 0 0 0.170868 0 0 0 0 0.225854 0 0 0 0 0.445799 0 0 0 0.05 0"/>
<feBlend mode="normal" in2="BackgroundImageFix" result="effect1_dropShadow_524_9445"/>
<feColorMatrix in="SourceAlpha" type="matrix" values="0 0 0 0 0 0 0 0 0 0 0 0 0 0 0 0 0 0 127 0" result="hardAlpha"/>
<feOffset dy="18"/>
<feGaussianBlur stdDeviation="10"/>
<feColorMatrix type="matrix" values="0 0 0 0 0.170868 0 0 0 0 0.225854 0 0 0 0 0.445799 0 0 0 0.05 0"/>
<feBlend mode="normal" in2="effect1_dropShadow_524_9445" result="effect2_dropShadow_524_9445"/>
<feColorMatrix in="SourceAlpha" type="matrix" values="0 0 0 0 0 0 0 0 0 0 0 0 0 0 0 0 0 0 127 0" result="hardAlpha"/>
<feOffset dy="6"/>
<feGaussianBlur stdDeviation="4"/>
<feColorMatrix type="matrix" values="0 0 0 0 0.170868 0 0 0 0 0.225854 0 0 0 0 0.445799 0 0 0 0.05 0"/>
<feBlend mode="normal" in2="effect2_dropShadow_524_9445" result="effect3_dropShadow_524_9445"/>
<feColorMatrix in="SourceAlpha" type="matrix" values="0 0 0 0 0 0 0 0 0 0 0 0 0 0 0 0 0 0 127 0" result="hardAlpha"/>
<feOffset/>
<feGaussianBlur stdDeviation="0.5"/>
<feColorMatrix type="matrix" values="0 0 0 0 0.170868 0 0 0 0 0.225854 0 0 0 0 0.445799 0 0 0 0.05 0"/>
<feBlend mode="normal" in2="effect3_dropShadow_524_9445" result="effect4_dropShadow_524_9445"/>
<feBlend mode="normal" in="SourceGraphic" in2="effect4_dropShadow_524_9445" result="shape"/>
</filter>
</defs>
</svg>
