<svg width="276" height="284" viewBox="0 0 276 284" fill="none" xmlns="http://www.w3.org/2000/svg">
<g filter="url(#filter0_dddd_455_2767)">
<rect x="32" y="10" width="211.5" height="219.406" rx="12" fill="white"/>
<rect x="32.5" y="10.5" width="210.5" height="218.406" rx="11.5" stroke="#ECEEF4"/>
<g clip-path="url(#clip0_455_2767)">
<rect x="53.0186" y="28.0684" width="76.8494" height="9.67967" rx="4.83984" fill="#ECEEF4"/>
<rect x="53.0186" y="44.2012" width="132.023" height="7.74374" rx="3.87187" fill="#ECEEF4"/>
<path fill-rule="evenodd" clip-rule="evenodd" d="M222.481 68.3364L53.0186 68.3364L53.0186 67.8184L222.481 67.8183L222.481 68.3364Z" fill="#ECEEF4"/>
<rect x="61.376" y="175.628" width="5.18896" height="5.16997" rx="2.58498" fill="#ECEEF4"/>
<rect x="94.1479" y="175.628" width="5.18896" height="5.16997" rx="2.58498" fill="#ECEEF4"/>
<rect x="122.278" y="175.628" width="5.18896" height="5.16997" rx="2.58498" fill="#ECEEF4"/>
<rect x="148.722" y="175.628" width="5.18896" height="5.16997" rx="2.58498" fill="#ECEEF4"/>
<rect x="177.171" y="175.628" width="5.18896" height="5.16997" rx="2.58498" fill="#ECEEF4"/>
<rect x="205.574" y="175.628" width="5.18895" height="5.16997" rx="2.58498" fill="#ECEEF4"/>
<path fill-rule="evenodd" clip-rule="evenodd" d="M221.945 84.0923H53.5548V171.028H221.945V84.0923ZM53.0186 83.5654V171.555H222.481V83.5654H53.0186Z" fill="#ECEEF4"/>
<path fill-rule="evenodd" clip-rule="evenodd" d="M222.481 100.162H53.0186V99.6348H222.481V100.162Z" fill="#ECEEF4"/>
<path fill-rule="evenodd" clip-rule="evenodd" d="M222.481 118.603H53.0186V118.076H222.481V118.603Z" fill="#ECEEF4"/>
<path fill-rule="evenodd" clip-rule="evenodd" d="M222.481 137.043H53.0186V136.517H222.481V137.043Z" fill="#ECEEF4"/>
<path fill-rule="evenodd" clip-rule="evenodd" d="M222.481 155.485H53.0186V154.958H222.481V155.485Z" fill="#ECEEF4"/>
<path fill-rule="evenodd" clip-rule="evenodd" d="M81.0389 171.555L81.0389 83.5654L81.5752 83.5654L81.5752 171.555L81.0389 171.555Z" fill="#ECEEF4"/>
<path fill-rule="evenodd" clip-rule="evenodd" d="M109.058 171.555L109.058 83.5654L109.595 83.5654L109.595 171.555L109.058 171.555Z" fill="#ECEEF4"/>
<path fill-rule="evenodd" clip-rule="evenodd" d="M137.077 171.555L137.077 83.5654L137.614 83.5654L137.614 171.555L137.077 171.555Z" fill="#ECEEF4"/>
<path fill-rule="evenodd" clip-rule="evenodd" d="M165.366 171.555L165.366 83.5654L165.902 83.5654L165.902 171.555L165.366 171.555Z" fill="#ECEEF4"/>
<path fill-rule="evenodd" clip-rule="evenodd" d="M193.386 171.555L193.386 83.5654L193.922 83.5654L193.922 171.555L193.386 171.555Z" fill="#ECEEF4"/>
<path d="M96.3696 95.181C96.3696 92.3299 98.7222 90.0186 101.624 90.0186C104.526 90.0186 106.879 92.3299 106.879 95.181V124.22C106.879 127.071 104.526 129.383 101.624 129.383C98.7222 129.383 96.3696 127.071 96.3696 124.22V95.181Z" fill="#FDAED0"/>
<path fill-rule="evenodd" clip-rule="evenodd" d="M105.806 124.22V95.181C105.806 92.9119 103.934 91.0723 101.624 91.0723C99.3146 91.0723 97.4422 92.9119 97.4422 95.181V124.22C97.4422 126.489 99.3146 128.329 101.624 128.329C103.934 128.329 105.806 126.489 105.806 124.22ZM101.624 90.0186C98.7222 90.0186 96.3696 92.3299 96.3696 95.181V124.22C96.3696 127.071 98.7222 129.383 101.624 129.383C104.526 129.383 106.879 127.071 106.879 124.22V95.181C106.879 92.3299 104.526 90.0186 101.624 90.0186Z" fill="#FA8DBB"/>
<path d="M66.812 95.5037C66.812 92.4743 69.3116 90.0186 72.3951 90.0186C75.4785 90.0186 77.9782 92.4743 77.9782 95.5037V123.897C77.9782 126.927 75.4785 129.383 72.3951 129.383C69.3116 129.383 66.812 126.927 66.812 123.897V95.5037Z" fill="#FDAED0"/>
<path fill-rule="evenodd" clip-rule="evenodd" d="M76.9056 123.897V95.5037C76.9056 93.0563 74.8862 91.0723 72.3951 91.0723C69.904 91.0723 67.8846 93.0563 67.8846 95.5037V123.897C67.8846 126.345 69.904 128.329 72.3951 128.329C74.8862 128.329 76.9056 126.345 76.9056 123.897ZM72.3951 90.0186C69.3116 90.0186 66.812 92.4743 66.812 95.5037V123.897C66.812 126.927 69.3116 129.383 72.3951 129.383C75.4785 129.383 77.9782 126.927 77.9782 123.897V95.5037C77.9782 92.4743 75.4785 90.0186 72.3951 90.0186Z" fill="#FA8DBB"/>
<path d="M56.3027 131.489C56.3027 130.325 57.2632 129.382 58.4479 129.382H64.6669C65.8516 129.382 66.8121 130.325 66.8121 131.489V140.181C66.8121 141.344 65.8516 142.288 64.6669 142.288H58.4479C57.2632 142.288 56.3027 141.344 56.3027 140.181V131.489Z" fill="#B59DF9"/>
<path fill-rule="evenodd" clip-rule="evenodd" d="M64.6669 130.436H58.4479C57.8555 130.436 57.3753 130.907 57.3753 131.489V140.181C57.3753 140.763 57.8555 141.234 58.4479 141.234H64.6669C65.2593 141.234 65.7395 140.763 65.7395 140.181V131.489C65.7395 130.907 65.2593 130.436 64.6669 130.436ZM58.4479 129.382C57.2632 129.382 56.3027 130.325 56.3027 131.489V140.181C56.3027 141.344 57.2632 142.288 58.4479 142.288H64.6669C65.8516 142.288 66.8121 141.344 66.8121 140.181V131.489C66.8121 130.325 65.8516 129.382 64.6669 129.382H58.4479Z" fill="#9D7DF7"/>
<path d="M83.8896 116.002C83.8896 114.838 84.8501 113.895 86.0348 113.895H92.9106C94.0954 113.895 95.0558 114.838 95.0558 116.002V127.274C95.0558 128.438 94.0954 129.382 92.9106 129.382H86.0348C84.8501 129.382 83.8896 128.438 83.8896 127.274V116.002Z" fill="#B59DF9"/>
<path fill-rule="evenodd" clip-rule="evenodd" d="M92.9106 114.948H86.0348C85.4424 114.948 84.9622 115.42 84.9622 116.002V127.274C84.9622 127.856 85.4424 128.328 86.0348 128.328H92.9106C93.503 128.328 93.9832 127.856 93.9832 127.274V116.002C93.9832 115.42 93.503 114.948 92.9106 114.948ZM86.0348 113.895C84.8501 113.895 83.8896 114.838 83.8896 116.002V127.274C83.8896 128.438 84.8501 129.382 86.0348 129.382H92.9106C94.0954 129.382 95.0558 128.438 95.0558 127.274V116.002C95.0558 114.838 94.0954 113.895 92.9106 113.895H86.0348Z" fill="#9D7DF7"/>
<path d="M111.477 131.489C111.477 130.325 112.437 129.382 113.622 129.382H120.498C121.682 129.382 122.643 130.325 122.643 131.489V165.348C122.643 166.512 121.682 167.455 120.498 167.455H113.622C112.437 167.455 111.477 166.512 111.477 165.348V131.489Z" fill="#B59DF9"/>
<path fill-rule="evenodd" clip-rule="evenodd" d="M120.498 130.436H113.622C113.029 130.436 112.549 130.907 112.549 131.489V165.348C112.549 165.93 113.029 166.401 113.622 166.401H120.498C121.09 166.401 121.57 165.93 121.57 165.348V131.489C121.57 130.907 121.09 130.436 120.498 130.436ZM113.622 129.382C112.437 129.382 111.477 130.325 111.477 131.489V165.348C111.477 166.512 112.437 167.455 113.622 167.455H120.498C121.682 167.455 122.643 166.512 122.643 165.348V131.489C122.643 130.325 121.682 129.382 120.498 129.382H113.622Z" fill="#9D7DF7"/>
<path d="M139.72 131.489C139.72 130.325 140.681 129.382 141.865 129.382H148.741C149.926 129.382 150.886 130.325 150.886 131.489V138.245C150.886 139.409 149.926 140.352 148.741 140.352H141.865C140.681 140.352 139.72 139.409 139.72 138.245V131.489Z" fill="#B59DF9"/>
<path fill-rule="evenodd" clip-rule="evenodd" d="M148.741 130.436H141.865C141.273 130.436 140.793 130.907 140.793 131.489V138.245C140.793 138.827 141.273 139.298 141.865 139.298H148.741C149.334 139.298 149.814 138.827 149.814 138.245V131.489C149.814 130.907 149.334 130.436 148.741 130.436ZM141.865 129.382C140.681 129.382 139.72 130.325 139.72 131.489V138.245C139.72 139.409 140.681 140.352 141.865 140.352H148.741C149.926 140.352 150.886 139.409 150.886 138.245V131.489C150.886 130.325 149.926 129.382 148.741 129.382H141.865Z" fill="#9D7DF7"/>
<path d="M123.957 131.489C123.957 130.325 124.917 129.382 126.102 129.382H132.978C134.162 129.382 135.123 130.325 135.123 131.489V138.245C135.123 139.409 134.162 140.352 132.978 140.352H126.102C124.917 140.352 123.957 139.409 123.957 138.245V131.489Z" fill="#FDAED0"/>
<path fill-rule="evenodd" clip-rule="evenodd" d="M132.978 130.436H126.102C125.509 130.436 125.029 130.907 125.029 131.489V138.245C125.029 138.827 125.509 139.298 126.102 139.298H132.978C133.57 139.298 134.05 138.827 134.05 138.245V131.489C134.05 130.907 133.57 130.436 132.978 130.436ZM126.102 129.382C124.917 129.382 123.957 130.325 123.957 131.489V138.245C123.957 139.409 124.917 140.352 126.102 140.352H132.978C134.162 140.352 135.123 139.409 135.123 138.245V131.489C135.123 130.325 134.162 129.382 132.978 129.382H126.102Z" fill="#FA8DBB"/>
<path d="M168.621 113.421C168.621 112.257 169.582 111.313 170.766 111.313H176.985C178.17 111.313 179.13 112.257 179.13 113.421V126.629C179.13 127.793 178.17 128.737 176.985 128.737H170.766C169.582 128.737 168.621 127.793 168.621 126.629V113.421Z" fill="#B59DF9"/>
<path fill-rule="evenodd" clip-rule="evenodd" d="M176.985 112.367H170.766C170.174 112.367 169.694 112.839 169.694 113.421V126.629C169.694 127.211 170.174 127.683 170.766 127.683H176.985C177.578 127.683 178.058 127.211 178.058 126.629V113.421C178.058 112.839 177.578 112.367 176.985 112.367ZM170.766 111.313C169.582 111.313 168.621 112.257 168.621 113.421V126.629C168.621 127.793 169.582 128.737 170.766 128.737H176.985C178.17 128.737 179.13 127.793 179.13 126.629V113.421C179.13 112.257 178.17 111.313 176.985 111.313H170.766Z" fill="#9D7DF7"/>
<path d="M180.444 113.421C180.444 112.257 181.404 111.313 182.589 111.313H188.808C189.993 111.313 190.953 112.257 190.953 113.421V126.629C190.953 127.793 189.993 128.737 188.808 128.737H182.589C181.404 128.737 180.444 127.793 180.444 126.629V113.421Z" fill="#FDAED0"/>
<path fill-rule="evenodd" clip-rule="evenodd" d="M188.808 112.367H182.589C181.997 112.367 181.516 112.839 181.516 113.421V126.629C181.516 127.211 181.997 127.683 182.589 127.683H188.808C189.4 127.683 189.881 127.211 189.881 126.629V113.421C189.881 112.839 189.4 112.367 188.808 112.367ZM182.589 111.313C181.404 111.313 180.444 112.257 180.444 113.421V126.629C180.444 127.793 181.404 128.737 182.589 128.737H188.808C189.993 128.737 190.953 127.793 190.953 126.629V113.421C190.953 112.257 189.993 111.313 188.808 111.313H182.589Z" fill="#FA8DBB"/>
<path d="M196.208 131.489C196.208 130.325 197.168 129.382 198.353 129.382H205.229C206.414 129.382 207.374 130.325 207.374 131.489V150.506C207.374 151.669 206.414 152.613 205.229 152.613H198.353C197.168 152.613 196.208 151.669 196.208 150.506V131.489Z" fill="#B59DF9"/>
<path fill-rule="evenodd" clip-rule="evenodd" d="M205.229 130.436H198.353C197.761 130.436 197.281 130.907 197.281 131.489V150.506C197.281 151.087 197.761 151.559 198.353 151.559H205.229C205.821 151.559 206.302 151.087 206.302 150.506V131.489C206.302 130.907 205.821 130.436 205.229 130.436ZM198.353 129.382C197.168 129.382 196.208 130.325 196.208 131.489V150.506C196.208 151.669 197.168 152.613 198.353 152.613H205.229C206.414 152.613 207.374 151.669 207.374 150.506V131.489C207.374 130.325 206.414 129.382 205.229 129.382H198.353Z" fill="#9D7DF7"/>
<path d="M152.2 135.512C152.2 132.483 154.7 130.027 157.783 130.027C160.867 130.027 163.366 132.483 163.366 135.512V140.03C163.366 143.059 160.867 145.515 157.783 145.515C154.7 145.515 152.2 143.059 152.2 140.03V135.512Z" fill="#FDAED0"/>
<path fill-rule="evenodd" clip-rule="evenodd" d="M162.294 140.03V135.512C162.294 133.065 160.274 131.081 157.783 131.081C155.292 131.081 153.273 133.065 153.273 135.512V140.03C153.273 142.477 155.292 144.461 157.783 144.461C160.274 144.461 162.294 142.477 162.294 140.03ZM157.783 130.027C154.7 130.027 152.2 132.483 152.2 135.512V140.03C152.2 143.059 154.7 145.515 157.783 145.515C160.867 145.515 163.366 143.059 163.366 140.03V135.512C163.366 132.483 160.867 130.027 157.783 130.027Z" fill="#FA8DBB"/>
<path d="M208.031 100.02C208.031 96.9909 210.53 94.5352 213.614 94.5352C216.697 94.5352 219.197 96.9909 219.197 100.02V124.542C219.197 127.572 216.697 130.027 213.614 130.027C210.53 130.027 208.031 127.571 208.031 124.542V100.02Z" fill="#FDAED0"/>
<path fill-rule="evenodd" clip-rule="evenodd" d="M218.124 124.542V100.02C218.124 97.5729 216.105 95.5889 213.614 95.5889C211.123 95.5889 209.103 97.5729 209.103 100.02V124.542C209.103 126.99 211.123 128.974 213.614 128.974C216.105 128.974 218.124 126.99 218.124 124.542ZM213.614 94.5352C210.53 94.5352 208.031 96.9909 208.031 100.02V124.542C208.031 127.571 210.53 130.027 213.614 130.027C216.697 130.027 219.197 127.572 219.197 124.542V100.02C219.197 96.9909 216.697 94.5352 213.614 94.5352Z" fill="#FA8DBB"/>
<path d="M53.0186 204.675C53.0186 203.606 53.9008 202.739 54.9891 202.739C56.0773 202.739 56.9595 203.606 56.9595 204.675C56.9595 205.744 56.0773 206.611 54.9891 206.611C53.9008 206.611 53.0186 205.744 53.0186 204.675Z" fill="#B59DF9"/>
<rect x="61.5576" y="201.012" width="27.587" height="6.45311" rx="3.22655" fill="#ECEEF4"/>
<path d="M104.908 204.675C104.908 203.606 105.79 202.739 106.879 202.739C107.967 202.739 108.849 203.606 108.849 204.675C108.849 205.744 107.967 206.611 106.879 206.611C105.79 206.611 104.908 205.744 104.908 204.675Z" fill="#FDAED0"/>
<rect x="113.447" y="201.012" width="27.587" height="6.45311" rx="3.22655" fill="#ECEEF4"/>
</g>
</g>
<defs>
<filter id="filter0_dddd_455_2767" x="0" y="0" width="275.5" height="283.406" filterUnits="userSpaceOnUse" color-interpolation-filters="sRGB">
<feFlood flood-opacity="0" result="BackgroundImageFix"/>
<feColorMatrix in="SourceAlpha" type="matrix" values="0 0 0 0 0 0 0 0 0 0 0 0 0 0 0 0 0 0 127 0" result="hardAlpha"/>
<feOffset dy="22"/>
<feGaussianBlur stdDeviation="16"/>
<feColorMatrix type="matrix" values="0 0 0 0 0.170868 0 0 0 0 0.225854 0 0 0 0 0.445799 0 0 0 0.05 0"/>
<feBlend mode="normal" in2="BackgroundImageFix" result="effect1_dropShadow_455_2767"/>
<feColorMatrix in="SourceAlpha" type="matrix" values="0 0 0 0 0 0 0 0 0 0 0 0 0 0 0 0 0 0 127 0" result="hardAlpha"/>
<feOffset dy="18"/>
<feGaussianBlur stdDeviation="10"/>
<feColorMatrix type="matrix" values="0 0 0 0 0.170868 0 0 0 0 0.225854 0 0 0 0 0.445799 0 0 0 0.05 0"/>
<feBlend mode="normal" in2="effect1_dropShadow_455_2767" result="effect2_dropShadow_455_2767"/>
<feColorMatrix in="SourceAlpha" type="matrix" values="0 0 0 0 0 0 0 0 0 0 0 0 0 0 0 0 0 0 127 0" result="hardAlpha"/>
<feOffset dy="6"/>
<feGaussianBlur stdDeviation="4"/>
<feColorMatrix type="matrix" values="0 0 0 0 0.170868 0 0 0 0 0.225854 0 0 0 0 0.445799 0 0 0 0.05 0"/>
<feBlend mode="normal" in2="effect2_dropShadow_455_2767" result="effect3_dropShadow_455_2767"/>
<feColorMatrix in="SourceAlpha" type="matrix" values="0 0 0 0 0 0 0 0 0 0 0 0 0 0 0 0 0 0 127 0" result="hardAlpha"/>
<feOffset/>
<feGaussianBlur stdDeviation="0.5"/>
<feColorMatrix type="matrix" values="0 0 0 0 0.170868 0 0 0 0 0.225854 0 0 0 0 0.445799 0 0 0 0.05 0"/>
<feBlend mode="normal" in2="effect3_dropShadow_455_2767" result="effect4_dropShadow_455_2767"/>
<feBlend mode="normal" in="SourceGraphic" in2="effect4_dropShadow_455_2767" result="shape"/>
</filter>
<clipPath id="clip0_455_2767">
<rect width="169.463" height="179.833" fill="white" transform="translate(53.0186 28.0684)"/>
</clipPath>
</defs>
</svg>
