<svg width="433" height="305" viewBox="0 0 433 305" fill="none" xmlns="http://www.w3.org/2000/svg">
<g clip-path="url(#clip0_524_9271)">
<g clip-path="url(#clip1_524_9271)">
<rect width="432.752" height="304.396" transform="translate(0 -0.24025)" fill="#2D66C4"/>
<g style="mix-blend-mode:screen" opacity="0.2">
<circle cx="215.707" cy="152.053" r="95.2723" fill="white" fill-opacity="0.4"/>
</g>
<circle opacity="0.2" cx="213.875" cy="150.221" r="51.3005" fill="white" fill-opacity="0.6"/>
<path d="M-317.718 -173.228H-251.844V-268.611H-250.672V-173.228H-184.799V-268.611H-183.626V-173.228H-117.754V-268.611H-116.581V-173.228H-51.7234V-268.611H-50.5505V-173.228H15.3215V-268.611H16.4944V-173.228H82.3674V-268.611H83.5403V-173.228H149.413V-268.611H150.586V-173.228H215.443V-268.611H216.615V-173.228H282.489V-268.611H283.661V-173.228H349.534V-268.611H350.707V-173.228H415.564V-268.611H416.737V-173.228H482.61V-268.611H483.782V-173.228H549.655V-268.611H550.827V-173.228H616.7V-268.611H617.873V-173.228H682.73V-268.611H683.903V-173.228H749.776V-268.611H750.948V-173.228H843.234V-172.055H750.948V-105.91H843.234V-104.737H750.948V-38.5916H843.234V-37.4187H750.948V28.7258H843.234V29.8986H750.948V96.0441H843.234V97.217H750.948V163.363H843.234V164.535H750.948V230.68H843.234V231.853H750.948V297.998H843.234V299.171H750.948V402.861H749.776V299.171H683.903V402.861H682.73V299.171H617.873V402.861H616.7V299.171H550.827V402.861H549.655V299.171H483.782V402.861H482.61V299.171H416.737V402.861H415.564V299.171H350.707V402.861H349.534V299.171H283.661V402.861H282.489V299.171H216.615V402.861H215.443V299.171H150.586V402.861H149.413V299.171H83.5403V402.861H82.3674V299.171H16.4944V402.861H15.3215V299.171H-50.5505V402.861H-51.7234V299.171H-116.581V402.861H-117.754V299.171H-183.627V402.861H-184.8V299.171H-250.672V402.861H-251.844V299.171H-317.718V402.861H-318.89V299.171H-411.332V297.998H-318.89V231.853L-411.332 231.854V230.681L-318.89 230.68V164.535H-411.332V163.363H-318.89V97.217H-411.332V96.0441H-318.89V29.8986H-411.332V28.7258H-318.89V-37.4187H-411.332V-38.5916H-318.89V-104.737H-411.332V-105.91H-318.89V-172.055H-411.332V-173.228H-318.89V-268.611H-317.718V-173.228ZM683.903 231.853V297.998H749.776V231.853H683.903ZM-317.718 297.998H-251.844V231.853H-317.718V297.998ZM-250.672 297.998H-184.8V231.853H-250.672V297.998ZM-183.627 297.998H-117.754V231.853H-183.627V297.998ZM-116.581 297.998H-51.7234V231.853H-116.581V297.998ZM-50.5505 297.998H15.3215V231.853H-50.5505V297.998ZM16.4944 297.998H82.3674V231.853H16.4944V297.998ZM83.5403 297.998H149.413V231.853H83.5403V297.998ZM150.586 297.998H215.443V231.853H150.586V297.998ZM216.615 297.998H282.489V231.853H216.615V297.998ZM283.661 297.998H349.534V231.853H283.661V297.998ZM350.707 297.998H415.564V231.853H350.707V297.998ZM416.737 297.998H482.61V231.853H416.737V297.998ZM483.782 297.998H549.655V231.853H483.782V297.998ZM550.827 297.998H616.7V231.853H550.827V297.998ZM617.873 297.998H682.73V231.853H617.873V297.998ZM683.903 164.535V230.68H749.776V164.535H683.903ZM-317.718 230.68H-251.844V164.535H-317.718V230.68ZM-250.672 230.68H-184.8V164.535H-250.672V230.68ZM-183.627 230.68H-117.754V164.535H-183.627V230.68ZM-116.581 230.68H-51.7234V164.535H-116.581V230.68ZM-50.5505 230.68H15.3215V164.535H-50.5505V230.68ZM16.4944 230.68H82.3674V164.535H16.4944V230.68ZM83.5403 230.68H149.413V164.535H83.5403V230.68ZM150.586 230.68H215.443V164.535H150.586V230.68ZM216.615 230.68H282.489V164.535H216.615V230.68ZM283.661 230.68H349.534V164.535H283.661V230.68ZM350.707 230.68H415.564V164.535H350.707V230.68ZM416.737 230.68H482.61V164.535H416.737V230.68ZM483.782 230.68H549.655V164.535H483.782V230.68ZM550.827 230.68H616.7V164.535H550.827V230.68ZM617.873 230.68H682.73V164.535H617.873V230.68ZM683.903 97.217V163.363H749.776V97.217H683.903ZM-317.718 163.363H-251.844V97.217H-317.718V163.363ZM-250.672 163.363H-184.8V97.217H-250.672V163.363ZM-183.627 163.363H-117.754V97.217H-183.627V163.363ZM-116.581 163.363H-51.7234V97.217H-116.581V163.363ZM-50.5505 163.363H15.3215V97.217H-50.5505V163.363ZM16.4944 163.363H82.3674V97.217H16.4944V163.363ZM83.5403 163.363H149.413V97.217H83.5403V163.363ZM150.586 163.363H215.443V97.217H150.586V163.363ZM216.615 163.363H282.489V97.217H216.615V163.363ZM283.661 163.363H349.534V97.217H283.661V163.363ZM350.707 163.363H415.564V97.217H350.707V163.363ZM416.737 163.363H482.61V97.217H416.737V163.363ZM483.782 163.363H549.655V97.217H483.782V163.363ZM550.827 163.363H616.7V97.217H550.827V163.363ZM617.873 163.363H682.73V97.217H617.873V163.363ZM683.903 29.8986V96.0441H749.776V29.8986H683.903ZM-317.718 96.0441H-251.844V29.8986H-317.718V96.0441ZM-250.672 96.0441H-184.8L-184.799 29.8986H-250.672V96.0441ZM-183.627 96.0441H-117.754V29.8986H-183.626L-183.627 96.0441ZM-116.581 96.0441H-51.7234V29.8986H-116.581V96.0441ZM-50.5505 96.0441H15.3215V29.8986H-50.5505V96.0441ZM16.4944 96.0441H82.3674V29.8986H16.4944V96.0441ZM83.5403 96.0441H149.413V29.8986H83.5403V96.0441ZM150.586 96.0441H215.443V29.8986H150.586V96.0441ZM216.615 96.0441H282.489V29.8986H216.615V96.0441ZM283.661 96.0441H349.534V29.8986H283.661V96.0441ZM350.707 96.0441H415.564V29.8986H350.707V96.0441ZM416.737 96.0441H482.61V29.8986H416.737V96.0441ZM483.782 96.0441H549.655V29.8986H483.782V96.0441ZM550.827 96.0441H616.7V29.8986H550.827V96.0441ZM617.873 96.0441H682.73V29.8986H617.873V96.0441ZM683.903 -37.4187V28.7258H749.776V-37.4187H683.903ZM-317.718 28.7258H-251.844V-37.4187H-317.718V28.7258ZM-250.672 28.7258H-184.799V-37.4187H-250.672V28.7258ZM-183.626 28.7258H-117.754V-37.4187H-183.626V28.7258ZM-116.581 28.7258H-51.7234V-37.4187H-116.581V28.7258ZM-50.5505 28.7258H15.3215V-37.4187H-50.5505V28.7258ZM16.4944 28.7258H82.3674V-37.4187H16.4944V28.7258ZM83.5403 28.7258H149.413V-37.4187H83.5403V28.7258ZM150.586 28.7258H215.443V-37.4187H150.586V28.7258ZM216.615 28.7258H282.489V-37.4187H216.615V28.7258ZM283.661 28.7258H349.534V-37.4187H283.661V28.7258ZM350.707 28.7258H415.564V-37.4187H350.707V28.7258ZM416.737 28.7258H482.61V-37.4187H416.737V28.7258ZM483.782 28.7258H549.655V-37.4187H483.782V28.7258ZM550.827 28.7258H616.7V-37.4187H550.827V28.7258ZM617.873 28.7258H682.73V-37.4187H617.873V28.7258ZM683.903 -104.737V-38.5916H749.776V-104.737H683.903ZM-317.718 -38.5916H-251.844V-104.737H-317.718V-38.5916ZM-250.672 -38.5916H-184.799V-104.737H-250.672V-38.5916ZM-183.626 -38.5916H-117.754V-104.737H-183.626V-38.5916ZM-116.581 -38.5916H-51.7234V-104.737H-116.581V-38.5916ZM-50.5505 -38.5916H15.3215V-104.737H-50.5505V-38.5916ZM16.4944 -38.5916H82.3674V-104.737H16.4944V-38.5916ZM83.5403 -38.5916H149.413V-104.737H83.5403V-38.5916ZM150.586 -38.5916H215.443V-104.737H150.586V-38.5916ZM216.615 -38.5916H282.489V-104.737H216.615V-38.5916ZM283.661 -38.5916H349.534V-104.737H283.661V-38.5916ZM350.707 -38.5916H415.564V-104.737H350.707V-38.5916ZM416.737 -38.5916H482.61V-104.737H416.737V-38.5916ZM483.782 -38.5916H549.655V-104.737H483.782V-38.5916ZM550.827 -38.5916H616.7V-104.737H550.827V-38.5916ZM617.873 -38.5916H682.73V-104.737H617.873V-38.5916ZM683.903 -172.055V-105.91H749.776V-172.055H683.903ZM-317.718 -105.91H-251.844V-172.055H-317.718V-105.91ZM-250.672 -105.91H-184.799V-172.055H-250.672V-105.91ZM-183.626 -105.91H-117.754V-172.055H-183.626V-105.91ZM-116.581 -105.91H-51.7234V-172.055H-116.581V-105.91ZM-50.5505 -105.91H15.3215V-172.055H-50.5505V-105.91ZM16.4944 -105.91H82.3674V-172.055H16.4944V-105.91ZM83.5403 -105.91H149.413V-172.055H83.5403V-105.91ZM150.586 -105.91H215.443V-172.055H150.586V-105.91ZM216.615 -105.91H282.489V-172.055H216.615V-105.91ZM283.661 -105.91H349.534V-172.055H283.661V-105.91ZM350.707 -105.91H415.564V-172.055H350.707V-105.91ZM416.737 -105.91H482.61V-172.055H416.737V-105.91ZM483.782 -105.91H549.655V-172.055H483.782V-105.91ZM550.827 -105.91H616.7V-172.055H550.827V-105.91ZM617.873 -105.91H682.73V-172.055H617.873V-105.91Z" fill="url(#paint0_radial_524_9271)"/>
<path fill-rule="evenodd" clip-rule="evenodd" d="M240.917 93.1306C240.917 90.7021 242.886 88.7334 245.315 88.7334C263.933 88.7334 279.026 103.827 279.026 122.445C279.026 124.874 277.058 126.842 274.629 126.842C272.201 126.842 270.232 124.874 270.232 122.445C270.232 108.684 259.076 97.5278 245.315 97.5278C242.886 97.5278 240.917 95.5591 240.917 93.1306ZM213.068 94.5963C183.117 94.5963 158.837 118.877 158.837 148.828C158.837 182.018 185.742 208.923 218.931 208.923C233.315 208.923 247.109 203.209 257.279 193.039C267.45 182.869 273.163 169.074 273.163 154.691V151.76C273.163 149.331 271.195 147.363 268.766 147.363C266.338 147.363 264.369 149.331 264.369 151.76V154.691C264.369 166.742 259.582 178.299 251.061 186.82C242.539 195.342 230.982 200.129 218.931 200.129C190.599 200.129 167.631 177.161 167.631 148.828C167.631 123.734 187.974 103.391 213.068 103.391H216C218.428 103.391 220.397 101.422 220.397 98.9935C220.397 96.565 218.428 94.5963 216 94.5963H213.068ZM222.067 124.458C218.468 121.774 213.533 121.774 209.934 124.458C205.587 127.681 200.426 129.623 195.033 130.065C191.21 130.308 188.209 133.451 188.151 137.289V153.225C188.151 160.681 192.757 166.648 197.359 170.813C202.055 175.062 207.525 178.148 210.88 179.84C214.095 181.486 217.905 181.486 221.119 179.84C224.472 178.15 229.943 175.068 234.64 170.82C239.244 166.656 243.849 160.689 243.849 153.225V137.355L243.847 137.235C243.743 133.435 240.774 130.337 236.987 130.066C231.588 129.628 226.419 127.685 222.067 124.458ZM209.934 124.458L209.926 124.463L212.558 127.986L209.938 124.455L209.934 124.458ZM215.189 131.509C215.67 131.15 216.33 131.15 216.811 131.509L216.823 131.518C222.167 135.482 228.458 137.961 235.054 138.713V153.225C235.054 156.951 232.698 160.719 228.741 164.298C224.882 167.788 220.199 170.456 217.148 171.993L217.116 172.01C216.415 172.37 215.585 172.37 214.884 172.01L214.852 171.993C211.803 170.457 207.12 167.785 203.26 164.292C199.301 160.709 196.945 156.942 196.945 153.225V138.713C203.542 137.961 209.833 135.482 215.177 131.518L215.189 131.509ZM195.578 138.842L195.617 138.84C195.604 138.841 195.591 138.842 195.578 138.842ZM245.315 106.322C242.886 106.322 240.917 108.291 240.917 110.719C240.917 113.148 242.886 115.117 245.315 115.117C249.362 115.117 252.643 118.398 252.643 122.445C252.643 124.874 254.612 126.842 257.04 126.842C259.469 126.842 261.438 124.874 261.438 122.445C261.438 113.541 254.219 106.322 245.315 106.322Z" fill="url(#paint1_linear_524_9271)" fill-opacity="0.8"/>
<g style="mix-blend-mode:screen" opacity="0.2">
<circle cx="229.778" cy="56.4874" r="16.123" fill="white" fill-opacity="0.4"/>
</g>
<circle opacity="0.2" cx="229.411" cy="56.121" r="10.2601" fill="white" fill-opacity="0.6"/>
<circle cx="229.411" cy="56.121" r="5.13005" fill="white" fill-opacity="0.6"/>
<g style="mix-blend-mode:screen" opacity="0.2">
<circle cx="603.539" cy="151.76" r="201.098" fill="white" fill-opacity="0.4"/>
</g>
<g style="mix-blend-mode:color-burn">
<rect width="432.752" height="304.396" transform="translate(0 -0.24025)" fill="#2E71E5" fill-opacity="0.1"/>
</g>
<g style="mix-blend-mode:screen" opacity="0.2">
<circle cx="131.281" cy="201.301" r="37.8158" fill="white" fill-opacity="0.4"/>
</g>
<circle opacity="0.2" cx="130.554" cy="200.574" r="20.3623" fill="white" fill-opacity="0.6"/>
<circle cx="130.554" cy="200.574" r="10.1812" fill="white" fill-opacity="0.6"/>
</g>
</g>
<defs>
<radialGradient id="paint0_radial_524_9271" cx="0" cy="0" r="1" gradientUnits="userSpaceOnUse" gradientTransform="translate(212.804 742.186) rotate(180) scale(762.441 723.584)">
<stop stop-color="#EDECF3"/>
<stop offset="1" stop-color="#E6E5F5" stop-opacity="0.01"/>
</radialGradient>
<linearGradient id="paint1_linear_524_9271" x1="186.217" y1="81.405" x2="249.151" y2="216.485" gradientUnits="userSpaceOnUse">
<stop stop-color="white"/>
<stop offset="1" stop-color="white" stop-opacity="0.38"/>
</linearGradient>
<clipPath id="clip0_524_9271">
<path d="M0 16C0 7.16344 7.16344 0 16 0H416.752C425.588 0 432.752 7.16344 432.752 16V288.148C432.752 296.985 425.588 304.148 416.752 304.148H16C7.16344 304.148 0 296.985 0 288.148V16Z" fill="white"/>
</clipPath>
<clipPath id="clip1_524_9271">
<rect width="432.752" height="304.396" fill="white" transform="translate(0 -0.24025)"/>
</clipPath>
</defs>
</svg>
