<svg width="426" height="299" viewBox="0 0 426 299" fill="none" xmlns="http://www.w3.org/2000/svg">
<g clip-path="url(#clip0_455_1497)">
<g clip-path="url(#clip1_455_1497)">
<rect width="424.8" height="298.536" transform="translate(0.799805 0.774414)" fill="#6099F7"/>
<path fill-rule="evenodd" clip-rule="evenodd" d="M-418.227 446.006H-416.843L-416.843 323.681H-339.131V446.006H-337.747V323.681H-260.035V446.006H-258.652V323.681H-180.94V446.006H-179.556V323.681H-103.042V446.006H-101.658V323.681H-23.9463V446.006H-22.5625V323.681H55.1494V446.006H56.5331V323.681H134.245V446.006H135.629V323.681H212.143V446.006H213.526V323.681H291.239V446.006H292.622V323.681H370.335V446.006H371.718V323.681H448.232V446.006H449.615V323.681H527.328V446.006H528.711V323.681H606.423V446.006H607.807V323.681H685.519V446.006H686.903V323.681H763.417V446.006H764.8V323.681H842.512V446.006H843.896V323.681H952.768V322.297H843.896V244.263H952.768V242.88H843.896V164.846H952.768V163.462H843.896V85.4288H952.768V84.045H843.896V6.01154H952.768V4.62775H843.896V-73.4058H952.768V-74.7896H843.896V-152.823H952.768V-154.207H843.896V-232.241H952.768V-233.625H843.896V-346.15H842.512V-233.625H764.8V-346.15H763.417V-233.625H686.903V-346.15H685.519V-233.625H607.807V-346.15H606.423V-233.625H528.711V-346.15H527.328V-233.625H449.616V-346.15H448.232V-233.625H371.718V-346.15H370.335V-233.625H292.622V-346.15H291.239V-233.625H213.527V-346.15H212.143V-233.625H135.629V-346.15H134.245V-233.625H56.5332V-346.15H55.1494V-233.625H-22.5625V-346.15H-23.9463V-233.625H-101.658V-346.15H-103.042V-233.625H-179.556V-346.15H-180.94V-233.625H-258.651V-346.15H-260.035V-233.625H-337.747V-346.15H-339.131V-233.625H-416.843L-416.843 -346.15H-418.227L-418.227 -233.625H-527.283V-232.241H-418.227V-154.207H-527.283V-152.823H-418.227L-418.227 -74.7896H-527.283V-73.4058H-418.227V4.62775H-527.283V6.01154H-418.227L-418.227 84.045H-527.283V85.4288H-418.227V163.462H-527.283V164.846H-418.227L-418.227 242.88H-527.283V244.263H-418.227V322.297H-527.283V323.681H-418.227L-418.227 446.006ZM842.512 -232.241H764.8V-154.207H842.512V-232.241ZM842.512 -152.823H764.8V-74.7896H842.512V-152.823ZM842.512 -73.4058H764.8V4.62775H842.512V-73.4058ZM842.512 6.01154H764.8V84.045H842.512V6.01154ZM842.512 85.4288H764.8V163.462H842.512V85.4288ZM842.512 164.846H764.8V242.88H842.512V164.846ZM842.512 244.263H764.8V322.297H842.512V244.263ZM763.417 244.263V322.297H686.903V244.263H763.417ZM763.417 164.846V242.88H686.903V164.846H763.417ZM763.417 85.4288V163.462H686.903V85.4288H763.417ZM763.417 6.01154V84.045H686.903V6.01154H763.417ZM763.417 -73.4058V4.62775H686.903V-73.4058H763.417ZM763.417 -152.823V-74.7896H686.903V-152.823H763.417ZM763.417 -232.241V-154.207H686.903V-232.241H763.417ZM685.519 -232.241H607.807V-154.207H685.519V-232.241ZM685.519 -152.823H607.807V-74.7896H685.519V-152.823ZM685.519 -73.4058H607.807V4.62775H685.519V-73.4058ZM685.519 6.01154H607.807V84.045H685.519V6.01154ZM685.519 85.4288H607.807V163.462H685.519V85.4288ZM685.519 164.846H607.807V242.88H685.519V164.846ZM685.519 244.263H607.807V322.297H685.519V244.263ZM606.423 244.263V322.297H528.711V244.263H606.423ZM606.423 164.846V242.88H528.711V164.846H606.423ZM606.423 85.4288V163.462H528.711V85.4288H606.423ZM606.423 6.01154V84.045H528.711V6.01154H606.423ZM606.423 -73.4058V4.62775H528.711V-73.4058H606.423ZM606.423 -152.823V-74.7896H528.711V-152.823H606.423ZM606.423 -232.241V-154.207H528.711V-232.241H606.423ZM527.328 -232.241H449.616V-154.207H527.328V-232.241ZM527.328 -152.823H449.616V-74.7896H527.328V-152.823ZM527.328 -73.4058H449.616V4.62775H527.328V-73.4058ZM527.328 6.01154H449.616L449.615 84.045H527.328V6.01154ZM527.328 85.4288H449.615V163.462H527.328V85.4288ZM527.328 164.846H449.615V242.88H527.328V164.846ZM527.328 244.263H449.615V322.297H527.328V244.263ZM448.232 244.263V322.297H371.718V244.263H448.232ZM448.232 164.846V242.88H371.718V164.846H448.232ZM448.232 85.4288V163.462H371.718V85.4288H448.232ZM448.232 6.01154L448.232 84.045H371.718L371.718 6.01154H448.232ZM448.232 -73.4058V4.62775H371.718V-73.4058H448.232ZM448.232 -152.823V-74.7896H371.718V-152.823H448.232ZM448.232 -232.241V-154.207H371.718V-232.241H448.232ZM370.335 -232.241H292.622V-154.207H370.335V-232.241ZM370.335 -152.823H292.622V-74.7896H370.335V-152.823ZM370.335 -73.4058H292.622V4.62775H370.335V-73.4058ZM370.335 6.01154H292.622L292.622 84.045H370.335L370.335 6.01154ZM370.335 85.4288H292.622V163.462H370.335V85.4288ZM370.335 164.846H292.622V242.88H370.335V164.846ZM370.335 244.263H292.622V322.297H370.335V244.263ZM291.239 244.263V322.297H213.526V244.263H291.239ZM291.239 164.846V242.88H213.526V164.846H291.239ZM291.239 85.4288V163.462H213.526V85.4288H291.239ZM291.239 6.01154L291.239 84.045H213.526L213.527 6.01154H291.239ZM291.239 -73.4058V4.62775H213.527V-73.4058H291.239ZM291.239 -152.823V-74.7896H213.527V-152.823H291.239ZM291.239 -232.241V-154.207H213.527V-232.241H291.239ZM212.143 -232.241H135.629V-154.207H212.143V-232.241ZM212.143 -152.823H135.629V-74.7896H212.143V-152.823ZM212.143 -73.4058H135.629V4.62775H212.143V-73.4058ZM212.143 6.01154H135.629L135.629 84.045H212.143L212.143 6.01154ZM212.143 85.4288H135.629V163.462H212.143V85.4288ZM212.143 164.846H135.629V242.88H212.143V164.846ZM212.143 244.263H135.629V322.297H212.143V244.263ZM134.245 244.263V322.297H56.5331V244.263H134.245ZM134.245 164.846V242.88H56.5331V164.846H134.245ZM134.245 85.4288V163.462H56.5331V85.4288H134.245ZM134.245 6.01154L134.245 84.045H56.5331L56.5332 6.01154H134.245ZM134.245 -73.4058V4.62775H56.5332V-73.4058H134.245ZM134.245 -152.823V-74.7896H56.5332V-152.823H134.245ZM134.245 -232.241V-154.207H56.5332V-232.241H134.245ZM55.1494 -232.241H-22.5625V-154.207H55.1494V-232.241ZM55.1494 -152.823H-22.5625V-74.7896H55.1494V-152.823ZM55.1494 -73.4058H-22.5625V4.62775H55.1494V-73.4058ZM55.1494 6.01154H-22.5625L-22.5625 84.045H55.1494L55.1494 6.01154ZM55.1494 85.4288H-22.5625V163.462H55.1494V85.4288ZM55.1494 164.846H-22.5625V242.88H55.1494V164.846ZM55.1494 244.263H-22.5625V322.297H55.1494V244.263ZM-23.9463 244.263V322.297H-101.658V244.263H-23.9463ZM-23.9463 164.846V242.88H-101.658V164.846H-23.9463ZM-23.9463 85.4288V163.462H-101.658V85.4288H-23.9463ZM-23.9463 6.01154L-23.9463 84.045H-101.658L-101.658 6.01154H-23.9463ZM-23.9463 -73.4058V4.62775H-101.658V-73.4058H-23.9463ZM-23.9463 -152.823V-74.7896H-101.658V-152.823H-23.9463ZM-23.9463 -232.241V-154.207H-101.658V-232.241H-23.9463ZM-103.042 -232.241H-179.556V-154.207H-103.042V-232.241ZM-103.042 -152.823H-179.556V-74.7896H-103.042V-152.823ZM-103.042 -73.4058H-179.556V4.62775H-103.042V-73.4058ZM-103.042 6.01154H-179.556L-179.556 84.045H-103.042L-103.042 6.01154ZM-103.042 85.4288H-179.556V163.462H-103.042V85.4288ZM-103.042 164.846H-179.556V242.88H-103.042V164.846ZM-103.042 244.263H-179.556V322.297H-103.042V244.263ZM-180.94 244.263V322.297H-258.652V244.263H-180.94ZM-180.94 164.846V242.88H-258.652V164.846H-180.94ZM-180.94 85.4288V163.462H-258.652V85.4288H-180.94ZM-180.94 6.01154L-180.94 84.045H-258.652L-258.651 6.01154H-180.94ZM-180.94 -73.4058V4.62775H-258.651V-73.4058H-180.94ZM-180.94 -152.823V-74.7896H-258.651V-152.823H-180.94ZM-180.94 -232.241V-154.207H-258.651V-232.241H-180.94ZM-260.035 -232.241H-337.747L-337.747 -154.207H-260.035V-232.241ZM-260.035 -152.823H-337.747V-74.7896H-260.035V-152.823ZM-260.035 -73.4058H-337.747V4.62775H-260.035V-73.4058ZM-260.035 6.01154H-337.747L-337.747 84.045H-260.035L-260.035 6.01154ZM-260.035 85.4288H-337.747V163.462H-260.035V85.4288ZM-260.035 164.846H-337.747V242.88H-260.035V164.846ZM-260.035 244.263H-337.747L-337.747 322.297H-260.035V244.263ZM-339.131 244.263L-339.131 322.297H-416.843V244.263H-339.131ZM-339.131 164.846V242.88H-416.843L-416.843 164.846H-339.131ZM-339.131 85.4288V163.462H-416.843V85.4288H-339.131ZM-339.131 6.01154L-339.131 84.045H-416.843L-416.843 6.01154H-339.131ZM-339.131 -73.4058V4.62775H-416.843V-73.4058H-339.131ZM-339.131 -152.823V-74.7896H-416.843L-416.843 -152.823H-339.131ZM-339.131 -232.241L-339.131 -154.207H-416.843V-232.241H-339.131Z" fill="url(#paint0_radial_455_1497)"/>
<g style="mix-blend-mode:screen" opacity="0.2">
<circle cx="184.275" cy="150.299" r="64.1583" fill="white" fill-opacity="0.4"/>
</g>
<ellipse opacity="0.2" cx="183.251" cy="149.083" rx="46.6875" ry="47.0333" fill="white" fill-opacity="0.6"/>
<circle cx="183.129" cy="149.154" r="9.16547" fill="white" fill-opacity="0.6"/>
<g style="mix-blend-mode:screen" opacity="0.2">
<circle cx="257.412" cy="69.1952" r="19.0208" fill="white" fill-opacity="0.4"/>
</g>
<circle opacity="0.2" cx="256.98" cy="68.7629" r="12.1042" fill="white" fill-opacity="0.6"/>
<circle cx="256.98" cy="68.763" r="6.05208" fill="white" fill-opacity="0.6"/>
<g style="mix-blend-mode:screen" opacity="0.2">
<circle cx="108.704" cy="259.404" r="44.6125" fill="white" fill-opacity="0.4"/>
</g>
<circle opacity="0.2" cx="107.846" cy="258.546" r="24.0221" fill="white" fill-opacity="0.6"/>
<circle cx="107.846" cy="258.546" r="12.0111" fill="white" fill-opacity="0.6"/>
<g style="mix-blend-mode:color-burn">
<rect width="424.8" height="298.536" transform="translate(0.799805 0.774414)" fill="#387FF5" fill-opacity="0.1"/>
</g>
</g>
</g>
<defs>
<radialGradient id="paint0_radial_455_1497" cx="0" cy="0" r="1" gradientUnits="userSpaceOnUse" gradientTransform="translate(209.029 846.319) rotate(180) scale(899.476 853.635)">
<stop stop-color="#EDECF3"/>
<stop offset="1" stop-color="#E6E5F5" stop-opacity="0.01"/>
</radialGradient>
<clipPath id="clip0_455_1497">
<path d="M0.799805 16.7744C0.799805 7.93783 7.96325 0.774414 16.7998 0.774414H409.6C418.436 0.774414 425.6 7.93786 425.6 16.7744V282.72C425.6 291.557 418.436 298.72 409.6 298.72H16.7998C7.96324 298.72 0.799805 291.557 0.799805 282.72V16.7744Z" fill="white"/>
</clipPath>
<clipPath id="clip1_455_1497">
<rect width="424.8" height="298.536" fill="white" transform="translate(0.799805 0.774414)"/>
</clipPath>
</defs>
</svg>
